<svg xmlns="http://www.w3.org/2000/svg" width="94.879" height="115.654" viewBox="0 0 94.879 115.654">
  <g id="Group_920" data-name="Group 920" transform="translate(-125.333 14.766)">
    <g id="Ellipse_83" data-name="Ellipse 83" transform="translate(160.657 -14.766)">
      <g id="Group_921" data-name="Group 921" transform="translate(0 0)">
        <circle id="Ellipse_87" data-name="Ellipse 87" cx="12.994" cy="12.994" r="12.994" fill="none"/>
      </g>
      <g id="Group_922" data-name="Group 922" transform="translate(0)">
        <path id="Path_455" data-name="Path 455" d="M170.949,11.222A13.008,13.008,0,0,1,157.955-1.772a13.009,13.009,0,0,1,12.994-12.994A13.009,13.009,0,0,1,183.943-1.772,13.008,13.008,0,0,1,170.949,11.222Zm0-22.739A9.757,9.757,0,0,0,161.2-1.772a9.757,9.757,0,0,0,9.745,9.745,9.756,9.756,0,0,0,9.745-9.745A9.757,9.757,0,0,0,170.949-11.518Z" transform="translate(-157.955 14.766)" fill="#00285c"/>
      </g>
    </g>
    <g id="Path_447" data-name="Path 447" transform="translate(125.333 48.059)">
      <path id="Path_456" data-name="Path 456" d="M132.279,93.7c-3.189,0-4.841-1.372-5.664-2.522-2.4-3.351-.729-8.569-.531-9.153,2.379-7.9,6.951-23.09,7.1-23.631,2.862-10.682,10.865-10.975,12.152-10.951l16.448-1.214.59-2.971,3.187.632-1.072,5.4-19.119,1.411-.127-.011c-.262-.027-6.542-.331-8.924,8.555-.119.445-5.973,19.882-7.146,23.773-.4,1.206-1.141,4.574.081,6.275a3.456,3.456,0,0,0,3.021,1.161c3.177,0,4.353-3.311,4.4-3.452l3.147-8.975,3.065,1.075-3.14,8.957C139.686,88.257,137.822,93.7,132.279,93.7Z" transform="translate(-125.333 -43.254)" fill="#00285c"/>
    </g>
    <g id="Union_11" data-name="Union 11" transform="translate(139 17.719)">
      <g id="Group_923" data-name="Group 923" transform="translate(0 0.003)">
        <path id="Path_457" data-name="Path 457" d="M197.51,85.617H149.866a11.911,11.911,0,0,1,0-23.822h37.008l4.248-30.752a14.246,14.246,0,0,1-.108-1.733,14.077,14.077,0,1,1,18.408,13.4l-1.639,24.965a11.91,11.91,0,0,1-9.931,17.944h-.341Z" transform="translate(-137.955 -15.237)" fill="none"/>
      </g>
      <g id="Group_924" data-name="Group 924">
        <path id="Path_458" data-name="Path 458" d="M197.633,82.369l.127,0a8.665,8.665,0,0,0,7.222-13.044l-.508-.863.066-1L206.182,42.5l.144-2.2,2.1-.678A10.93,10.93,0,0,0,213.8,35.74a10.829,10.829,0,1,0-19.542-6.43,11.166,11.166,0,0,0,.08,1.334l.052.42-.057.419L190.092,62.24l-.387,2.8H149.866a8.662,8.662,0,1,0,0,17.324h47.767m.214,3.248H149.866a11.91,11.91,0,1,1,0-23.821h37.008l4.245-30.757a14.227,14.227,0,0,1-.105-1.728,14.077,14.077,0,1,1,18.41,13.4l-1.642,24.965a11.913,11.913,0,0,1-9.931,17.939Z" transform="translate(-137.955 -15.234)" fill="#00285c"/>
      </g>
    </g>
    <g id="Path_451" data-name="Path 451" transform="translate(148.224 28.871)">
      <rect id="Rectangle_276" data-name="Rectangle 276" width="14.544" height="3.249" transform="matrix(0.547, -0.837, 0.837, 0.547, 0, 12.171)" fill="#00285c"/>
    </g>
    <g id="Path_450" data-name="Path 450" transform="translate(127.459 40.574)">
      <path id="Path_459" data-name="Path 459" d="M158.1,50.108l-22.7-9.631-5.254,9.517L127.3,48.424l6.669-12.082,25.4,10.775Z" transform="translate(-127.296 -36.342)" fill="#00285c"/>
    </g>
    <g id="Path_452" data-name="Path 452" transform="translate(182.976 84.853)">
      <path id="Path_460" data-name="Path 460" d="M197.928,93.268h-9.576l-9.784-16.034h13.959Zm-7.753-3.248h3.231l-3.213-9.537h-5.837Z" transform="translate(-178.567 -77.234)" fill="#00285c"/>
    </g>
    <g id="Path_453" data-name="Path 453" transform="translate(145.111 84.899)">
      <path id="Path_461" data-name="Path 461" d="M153.135,93.262H143.6l4.918-15.986h13.922ZM148,90.013h3.27l5.522-9.489h-5.873Z" transform="translate(-143.598 -77.276)" fill="#00285c"/>
    </g>
    <g id="Path_454" data-name="Path 454" transform="translate(165.039 13.09)">
      <path id="Path_462" data-name="Path 462" d="M171.372,65.371q-.4,0-.819-.021l.15-3.244c9.249.4,9.967-8.316,9.993-8.69.094-1.221,2.306-29.592,2.7-32.24a6.4,6.4,0,0,0-1.367-4.819c-1.229-1.427-3.2-2.15-5.861-2.15-5.644,0-9.349,11.2-10.3,15.52l-.683,3.482L162,32.594l.693-3.532c.415-1.882,4.255-18.1,13.479-18.1,4.545,0,7.034,1.783,8.323,3.279a9.664,9.664,0,0,1,2.117,7.421c-.3,2.028-1.884,21.816-2.677,32C183.655,57.771,180.651,65.371,171.372,65.371Z" transform="translate(-162.002 -10.959)" fill="#00285c"/>
    </g>
    <g id="Path_449" data-name="Path 449" transform="translate(145.631 22.292)">
      <path id="Path_463" data-name="Path 463" d="M161.5,47.076c-.564,0-1.107-.051-1.619-.1l-.319-.039c-.592-.11-6.572-.757-10.2-1.139-.265-.016-3.2-.261-4.579-2.193a3.9,3.9,0,0,1-.531-3.408c.887-3.315,4.415-3.74,6.218-3.5l9.154.549,12.373-17.793,2.667,1.855L161.243,40.6l-11.179-.678c-.081-.01-2.3-.295-2.68,1.116-.122.455-.014.607.032.672a3.664,3.664,0,0,0,2.222.851c2.241.235,9.253.978,10.448,1.171l.09.009c1.853.168,2.784.259,4.063-1.387l.024.019c.734-1.048,3.389-4.458,13.592-17.562l2.564,2c-4.925,6.325-12.224,15.711-13.413,17.27l0,.017-.2.254A6.248,6.248,0,0,1,161.5,47.076Z" transform="translate(-144.078 -19.458)" fill="#00285c"/>
    </g>
  </g>
</svg>
