<svg xmlns="http://www.w3.org/2000/svg" width="83.428" height="91.382" viewBox="0 0 83.428 91.382">
  <g id="visit_icon_002" transform="translate(-918.532 -1420.021)">
    <path id="Path_226" data-name="Path 226" d="M-20694.445-16292.867s-.8-11.757-17.047-21.139l-5.4,5.4,2.99,2.99-6.109,2.347,3.119,7.5,9.666-3.409,3.75,6.309s-2.631,13.688,2.557,20.8c19.775,27.1,55.76,16.349,59.494,12.614s2.258-41.04-8.992-51.78-26.508-5.687-26.508-5.687" transform="translate(21640.049 17764.088)" fill="none" stroke="#00285c" stroke-linecap="round" stroke-linejoin="round" stroke-width="3"/>
    <path id="Path_227" data-name="Path 227" d="M-20632-16347.463s7.684-.523,5.217,6.033-5.24,10.49,1.852,14.949" transform="translate(21591.541 17779.92)" fill="none" stroke="#00285c" stroke-linecap="round" stroke-linejoin="round" stroke-width="3"/>
    <path id="Path_228" data-name="Path 228" d="M-20666.637-16327.607s-14.732-12.1-1.016-33.69c4.686-7.373-4.941-10.49-9.482-4.842-2.252-3.9-2.824-5.043-2.824-5.043l-6.053,3.53,2.826,4.841-3.631,4.339-4.035-2.825-4.742,4.338,5.547,5.749v14.828" transform="translate(21626.881 17792.703)" fill="none" stroke="#00285c" stroke-linecap="round" stroke-linejoin="round" stroke-width="3"/>
  </g>
</svg>
