<svg xmlns="http://www.w3.org/2000/svg" width="190" height="72" viewBox="0 0 190 72">
  <g id="visit_icon_006" transform="translate(-1395 -2093)">
    <g id="Path_283" data-name="Path 283" transform="translate(1395 2093)" fill="#f2fdfe">
      <path d="M 35.5 70.5 C 30.91197776794434 70.5 26.46179962158203 69.58903503417969 22.2730884552002 67.79239654541016 C 18.22511100769043 66.05613708496094 14.58899974822998 63.56985473632813 11.46575546264648 60.40262222290039 C 8.341089248657227 57.23394393920898 5.887844562530518 53.54403305053711 4.174177646636963 49.43539810180664 C 2.399722337722778 45.18103408813477 1.5 40.66070938110352 1.5 36 C 1.5 31.33928871154785 2.399722337722778 26.81896591186523 4.174177646636963 22.56459999084473 C 5.887844562530518 18.45596694946289 8.341089248657227 14.7660551071167 11.46575546264648 11.59737777709961 C 14.58899974822998 8.430144309997559 18.22511100769043 5.943866729736328 22.2730884552002 4.207600116729736 C 26.46179962158203 2.410966634750366 30.91197776794434 1.5 35.5 1.5 C 40.08802032470703 1.5 44.53820037841797 2.410966634750366 48.72690963745117 4.207600116729736 C 52.77488708496094 5.943866729736328 56.4109992980957 8.430144309997559 59.53424453735352 11.59737777709961 C 62.65891265869141 14.7660551071167 65.11215209960938 18.45596694946289 66.82582092285156 22.56459999084473 C 68.60028076171875 26.81896591186523 69.5 31.33928871154785 69.5 36 C 69.5 40.66070938110352 68.60028076171875 45.18103408813477 66.82582092285156 49.43539810180664 C 65.11215209960938 53.54403305053711 62.65891265869141 57.23394393920898 59.53424453735352 60.40262222290039 C 56.4109992980957 63.56985473632813 52.77488708496094 66.05613708496094 48.72690963745117 67.79239654541016 C 44.53820037841797 69.58903503417969 40.08802032470703 70.5 35.5 70.5 Z" stroke="none"/>
      <path d="M 35.5 3 C 31.11643600463867 3 26.86520004272461 3.870109558105469 22.86437606811523 5.586143493652344 C 18.99574279785156 7.2454833984375 15.52003479003906 9.622306823730469 12.5338134765625 12.65058898925781 C 9.544731140136719 15.68177795410156 7.197917938232422 19.21161270141602 5.558578491210938 23.14202499389648 C 3.860832214355469 27.21248245239258 3 31.53853988647461 3 36 C 3 40.46145629882813 3.860832214355469 44.78751754760742 5.558578491210938 48.85797882080078 C 7.197917938232422 52.78838729858398 9.544731140136719 56.31822204589844 12.5338134765625 59.34941101074219 C 15.52003479003906 62.37769317626953 18.99574279785156 64.7545166015625 22.86437606811523 66.41385650634766 C 26.86520004272461 68.12989044189453 31.11643600463867 69 35.5 69 C 39.88356399536133 69 44.13479995727539 68.12989044189453 48.13562393188477 66.41385650634766 C 52.00425720214844 64.7545166015625 55.47996520996094 62.37769317626953 58.4661865234375 59.34941101074219 C 61.45526885986328 56.31822204589844 63.80208206176758 52.78838729858398 65.44142150878906 48.85797882080078 C 67.13916778564453 44.78751754760742 68 40.46145629882813 68 36 C 68 31.53853988647461 67.13916778564453 27.21248245239258 65.44142150878906 23.14202499389648 C 63.80208206176758 19.21161270141602 61.45526885986328 15.68177795410156 58.4661865234375 12.65058898925781 C 55.47996520996094 9.622306823730469 52.00425720214844 7.2454833984375 48.13562393188477 5.586143493652344 C 44.13479995727539 3.870109558105469 39.88356399536133 3 35.5 3 M 35.5 0 C 55.10610580444336 0 71 16.11775207519531 71 36 C 71 55.88224792480469 55.10610580444336 72 35.5 72 C 15.89389419555664 72 0 55.88224792480469 0 36 C 0 16.11775207519531 15.89389419555664 0 35.5 0 Z" stroke="none" fill="#00285c"/>
    </g>
    <g id="Path_281" data-name="Path 281" transform="translate(1452 2093)" fill="#f2fdfe">
      <path d="M 36 70.5 C 31.34186744689941 70.5 26.82387733459473 69.58803558349609 22.57151031494141 67.78943634033203 C 18.46344375610352 66.05186462402344 14.77372264862061 63.56409072875977 11.60482215881348 60.39517593383789 C 8.435911178588867 57.22627639770508 5.94813346862793 53.53655624389648 4.210566520690918 49.42848968505859 C 2.411966562271118 45.17612075805664 1.5 40.65813446044922 1.5 36 C 1.5 31.34186744689941 2.411966562271118 26.82387733459473 4.210566520690918 22.57151031494141 C 5.94813346862793 18.46344375610352 8.435911178588867 14.77372264862061 11.60482215881348 11.60482215881348 C 14.77372264862061 8.435911178588867 18.46344375610352 5.94813346862793 22.57151031494141 4.210566520690918 C 26.82387733459473 2.411966562271118 31.34186744689941 1.5 36 1.5 C 40.65813446044922 1.5 45.17612075805664 2.411966562271118 49.42848968505859 4.210566520690918 C 53.53655624389648 5.94813346862793 57.22627639770508 8.435911178588867 60.39517593383789 11.60482215881348 C 63.56409072875977 14.77372264862061 66.05186462402344 18.46344375610352 67.78943634033203 22.57151031494141 C 69.58803558349609 26.82387733459473 70.5 31.34186744689941 70.5 36 C 70.5 40.65813446044922 69.58803558349609 45.17612075805664 67.78943634033203 49.42848968505859 C 66.05186462402344 53.53655624389648 63.56409072875977 57.22627639770508 60.39517593383789 60.39517593383789 C 57.22627639770508 63.56409072875977 53.53655624389648 66.05186462402344 49.42848968505859 67.78943634033203 C 45.17612075805664 69.58803558349609 40.65813446044922 70.5 36 70.5 Z" stroke="none"/>
      <path d="M 36 3 C 31.54370498657227 3 27.22230529785156 3.872093200683594 23.15583419799805 5.592071533203125 C 19.22657775878906 7.254013061523438 15.69710540771484 9.633846282958984 12.66548156738281 12.66548156738281 C 9.633846282958984 15.69710540771484 7.254013061523438 19.22657775878906 5.592071533203125 23.15583419799805 C 3.872093200683594 27.22230529785156 3 31.54370498657227 3 36 C 3 40.45629501342773 3.872093200683594 44.77769470214844 5.592071533203125 48.84416198730469 C 7.254013061523438 52.77342224121094 9.633846282958984 56.30289459228516 12.66548156738281 59.33451843261719 C 15.69710540771484 62.36615371704102 19.22657775878906 64.74598693847656 23.15583419799805 66.40792846679688 C 27.22230529785156 68.12790679931641 31.54370498657227 69 36 69 C 40.45629501342773 69 44.77769470214844 68.12790679931641 48.84416198730469 66.40792846679688 C 52.77342224121094 64.74598693847656 56.30289459228516 62.36615371704102 59.33451843261719 59.33451843261719 C 62.36615371704102 56.30289459228516 64.74598693847656 52.77342224121094 66.40792846679688 48.84416198730469 C 68.12790679931641 44.77769470214844 69 40.45629501342773 69 36 C 69 31.54370498657227 68.12790679931641 27.22230529785156 66.40792846679688 23.15583419799805 C 64.74598693847656 19.22657775878906 62.36615371704102 15.69710540771484 59.33451843261719 12.66548156738281 C 56.30289459228516 9.633846282958984 52.77342224121094 7.254013061523438 48.84416198730469 5.592071533203125 C 44.77769470214844 3.872093200683594 40.45629501342773 3 36 3 M 36 0 C 55.88224792480469 0 72 16.11775207519531 72 36 C 72 55.88224792480469 55.88224792480469 72 36 72 C 16.11775207519531 72 0 55.88224792480469 0 36 C 0 16.11775207519531 16.11775207519531 0 36 0 Z" stroke="none" fill="#00285c"/>
    </g>
    <g id="Path_282" data-name="Path 282" transform="translate(1514 2093)" fill="#f2fdfe">
      <path d="M 35.5 70.5 C 30.91197776794434 70.5 26.46179962158203 69.58903503417969 22.2730884552002 67.79239654541016 C 18.22511100769043 66.05613708496094 14.58899974822998 63.56985473632813 11.46575546264648 60.40262222290039 C 8.341089248657227 57.23394393920898 5.887844562530518 53.54403305053711 4.174177646636963 49.43539810180664 C 2.399722337722778 45.18103408813477 1.5 40.66070938110352 1.5 36 C 1.5 31.33928871154785 2.399722337722778 26.81896591186523 4.174177646636963 22.56459999084473 C 5.887844562530518 18.45596694946289 8.341089248657227 14.7660551071167 11.46575546264648 11.59737777709961 C 14.58899974822998 8.430144309997559 18.22511100769043 5.943866729736328 22.2730884552002 4.207600116729736 C 26.46179962158203 2.410966634750366 30.91197776794434 1.5 35.5 1.5 C 40.08802032470703 1.5 44.53820037841797 2.410966634750366 48.72690963745117 4.207600116729736 C 52.77488708496094 5.943866729736328 56.4109992980957 8.430144309997559 59.53424453735352 11.59737777709961 C 62.65891265869141 14.7660551071167 65.11215209960938 18.45596694946289 66.82582092285156 22.56459999084473 C 68.60028076171875 26.81896591186523 69.5 31.33928871154785 69.5 36 C 69.5 40.66070938110352 68.60028076171875 45.18103408813477 66.82582092285156 49.43539810180664 C 65.11215209960938 53.54403305053711 62.65891265869141 57.23394393920898 59.53424453735352 60.40262222290039 C 56.4109992980957 63.56985473632813 52.77488708496094 66.05613708496094 48.72690963745117 67.79239654541016 C 44.53820037841797 69.58903503417969 40.08802032470703 70.5 35.5 70.5 Z" stroke="none"/>
      <path d="M 35.5 3 C 31.11643600463867 3 26.86520004272461 3.870109558105469 22.86437606811523 5.586143493652344 C 18.99574279785156 7.2454833984375 15.52003479003906 9.622306823730469 12.5338134765625 12.65058898925781 C 9.544731140136719 15.68177795410156 7.197917938232422 19.21161270141602 5.558578491210938 23.14202499389648 C 3.860832214355469 27.21248245239258 3 31.53853988647461 3 36 C 3 40.46145629882813 3.860832214355469 44.78751754760742 5.558578491210938 48.85797882080078 C 7.197917938232422 52.78838729858398 9.544731140136719 56.31822204589844 12.5338134765625 59.34941101074219 C 15.52003479003906 62.37769317626953 18.99574279785156 64.7545166015625 22.86437606811523 66.41385650634766 C 26.86520004272461 68.12989044189453 31.11643600463867 69 35.5 69 C 39.88356399536133 69 44.13479995727539 68.12989044189453 48.13562393188477 66.41385650634766 C 52.00425720214844 64.7545166015625 55.47996520996094 62.37769317626953 58.4661865234375 59.34941101074219 C 61.45526885986328 56.31822204589844 63.80208206176758 52.78838729858398 65.44142150878906 48.85797882080078 C 67.13916778564453 44.78751754760742 68 40.46145629882813 68 36 C 68 31.53853988647461 67.13916778564453 27.21248245239258 65.44142150878906 23.14202499389648 C 63.80208206176758 19.21161270141602 61.45526885986328 15.68177795410156 58.4661865234375 12.65058898925781 C 55.47996520996094 9.622306823730469 52.00425720214844 7.2454833984375 48.13562393188477 5.586143493652344 C 44.13479995727539 3.870109558105469 39.88356399536133 3 35.5 3 M 35.5 0 C 55.10610580444336 0 71 16.11775207519531 71 36 C 71 55.88224792480469 55.10610580444336 72 35.5 72 C 15.89389419555664 72 0 55.88224792480469 0 36 C 0 16.11775207519531 15.89389419555664 0 35.5 0 Z" stroke="none" fill="#00285c"/>
    </g>
    <path id="Path_245" data-name="Path 245" d="M94.181,0C86.2,0,79.7,7.181,79.7,16.007a1.409,1.409,0,1,0,2.8,0C82.5,8.89,87.743,3.1,94.181,3.1s11.677,5.791,11.677,12.908c0,4.653-1.639,6.423-3.915,8.879-2.478,2.676-5.562,6-5.562,13.187a4.833,4.833,0,1,1-9.617,0,1.409,1.409,0,1,0-2.8,0c0,4.639,3.415,8.414,7.612,8.414s7.613-3.775,7.613-8.414c0-5.876,2.4-8.465,4.725-10.978s4.752-5.126,4.752-11.087C108.661,7.181,102.166,0,94.181,0Z" transform="translate(1336.901 2105.195)" fill="#00285c"/>
    <path id="Path_246" data-name="Path 246" d="M152.494,207.367a6.876,6.876,0,0,0-2.886-4.26,5.775,5.775,0,0,0-3.869-.939,1.518,1.518,0,0,0-1.248,1.7,1.441,1.441,0,0,0,1.54,1.379,3.2,3.2,0,0,1,2.145.522,3.808,3.808,0,0,1,1.6,2.362,4.178,4.178,0,0,1-.38,2.927,3.526,3.526,0,0,1-2.14,1.773,3.189,3.189,0,0,1-2.647-.421,1.33,1.33,0,0,0-1.92.542,1.647,1.647,0,0,0,.491,2.124,5.816,5.816,0,0,0,3.2.978,5.709,5.709,0,0,0,1.566-.22,6.36,6.36,0,0,0,3.858-3.192A7.546,7.546,0,0,0,152.494,207.367Z" transform="translate(1279.265 1921.416)" fill="#00285c"/>
    <path id="Path_247" data-name="Path 247" d="M173.537,79.6c-4.509,0-8.178,4.057-8.178,9.042a1.409,1.409,0,1,0,2.8,0,5.4,5.4,0,1,1,10.747,0,1.409,1.409,0,1,0,2.8,0C181.713,83.656,178.045,79.6,173.537,79.6Z" transform="translate(1258.278 2032.823)" fill="#00285c"/>
    <path id="Path_248" data-name="Path 248" d="M167.862,157.359a1.467,1.467,0,0,0-1.448-1.5,1.493,1.493,0,0,0-1.354,1.6l.125,4.122a1.475,1.475,0,0,0,1.4,1.5c.015,0,.031,0,.048,0a1.493,1.493,0,0,0,1.354-1.6Z" transform="translate(1258.554 1963.485)" fill="#00285c"/>
    <path id="Path_249" data-name="Path 249" d="M51.717,25.368c-.9-2.074-2.929-11.283-4.5-19.644a6.275,6.275,0,0,0-12.5,0c-1.567,8.362-3.6,17.571-4.5,19.644a9.992,9.992,0,1,0,4.723,19.074,8.371,8.371,0,0,0,12.048,0,9.991,9.991,0,1,0,4.723-19.074Zm-.6,17.545a7.571,7.571,0,0,1-2.681-.495,8.434,8.434,0,0,0,.781-2.318,5.782,5.782,0,0,0,1.032.092c1.821,0,3.3-.813,3.3-1.816s-1.476-1.816-3.3-1.816c-1.686,0-3.074.7-3.27,1.6l-.066.005a5.977,5.977,0,0,1-.846,3.545l-.376.435c-.034.04-.069.08-.1.118a6.289,6.289,0,0,1-9.229,0c-.035-.038-.068-.077-.1-.116l-.376-.433a5.976,5.976,0,0,1-.849-3.549l-.066-.005c-.2-.9-1.584-1.6-3.27-1.6-1.821,0-3.3.813-3.3,1.816s1.476,1.816,3.3,1.816a5.782,5.782,0,0,0,1.032-.092,8.432,8.432,0,0,0,.781,2.318,7.57,7.57,0,1,1-2.681-14.648c1.14,0,1.64-1.079,2.48-4.119.48-1.737,1.055-4.15,1.711-7.173C36.126,11.353,37.1,6.16,37.11,6.109l.017-.13a3.854,3.854,0,0,1,7.685,0l.017.13c.01.052.984,5.245,2.1,10.371.656,3.023,1.231,5.436,1.711,7.173.839,3.04,1.34,4.119,2.48,4.119a7.571,7.571,0,1,1,0,15.142Z" transform="translate(1447.347 2105.195)" fill="#00285c"/>
    <path id="Path_250" data-name="Path 250" d="M113.08,76.026a1.212,1.212,0,0,0-1.433.937l-2.26,10.814a1.211,1.211,0,0,0,.937,1.433,1.228,1.228,0,0,0,.249.026,1.211,1.211,0,0,0,1.184-.963l2.26-10.814A1.211,1.211,0,0,0,113.08,76.026Z" transform="translate(1373.106 2041.462)" fill="#00285c"/>
    <circle id="Ellipse_50" data-name="Ellipse 50" cx="1.211" cy="1.211" r="1.211" transform="translate(1481.609 2132.346)" fill="#00285c"/>
    <path id="Path_255" data-name="Path 255" d="M43.687,14.151a18.342,18.342,0,0,0-17.7-13.6h-.35L23.174,1.823,20.553.552h-.33a18.342,18.342,0,0,0-17.7,13.6L0,23.606l1.779,6.67a22.071,22.071,0,0,0,42.65,0l1.779-6.67ZM19.9,3.434l3.314,1.608,3.117-1.608A15.451,15.451,0,0,1,40.608,13.952a25.623,25.623,0,0,0-35-.013A15.455,15.455,0,0,1,19.9,3.434ZM23.1,43.778A19.2,19.2,0,0,1,4.823,30.367a25.673,25.673,0,0,0,36.307.257q.129-.128.257-.257A19.2,19.2,0,0,1,23.1,43.778Zm0-21.823a4.323,4.323,0,0,0,4.323-4.323v-.278a8.71,8.71,0,0,1,4.323,7.482v.144a7.209,7.209,0,0,0-1.441-.144H15.9a7.209,7.209,0,0,0-1.441.144v-.144a8.71,8.71,0,0,1,4.323-7.482v.278A4.323,4.323,0,0,0,23.1,21.955Zm-7.2,5.763H30.309A4.323,4.323,0,0,1,34.631,32a22.766,22.766,0,0,1-23.054,0A4.323,4.323,0,0,1,15.9,27.718Zm26.166-2.738a22.8,22.8,0,0,1-4.817,5.229,7.182,7.182,0,0,0-2.618-3.9V24.836A11.6,11.6,0,0,0,26.4,13.791l-1.853-.552v4.393a1.441,1.441,0,1,1-2.882,0V13.239l-1.853.552a11.6,11.6,0,0,0-8.233,11.046v1.441h.045a7.19,7.19,0,0,0-2.663,3.936,22.8,22.8,0,0,1-4.817-5.229L3.052,23.348,3.8,20.58l.356-.514a22.784,22.784,0,0,1,37.911-.01l.378.576.72,2.713Z" transform="translate(1525.707 2104.643)" fill="#00285c"/>
  </g>
</svg>
