<svg xmlns="http://www.w3.org/2000/svg" width="93.514" height="91.821" viewBox="0 0 93.514 91.821">
  <path id="visit_icon_009" d="M45.968,99.666a44.879,44.879,0,0,1-5.193-1.038l6.961-26.294a17.754,17.754,0,0,0,19.9-8.5L91.206,77.349l-.134.232A44.884,44.884,0,0,1,45.968,99.666ZM13.221,77.583a45,45,0,0,1,6.944-54.135L39.428,42.631a17.8,17.8,0,0,0-2.6,21.5L13.355,77.815Zm29.524-22.5A9.059,9.059,0,1,1,51.8,64.149,9.063,9.063,0,0,1,42.745,55.083Zm21.984-12.6a17.721,17.721,0,0,0-12.751-5.208l-.1-27.2h.267A44.965,44.965,0,0,1,95.5,43.172L69.279,50.283A17.7,17.7,0,0,0,64.729,42.488Z" transform="translate(-8.332 97.253) rotate(-90)" fill="none" stroke="#00285c" stroke-linecap="round" stroke-linejoin="round" stroke-width="3.5"/>
</svg>
