<svg xmlns="http://www.w3.org/2000/svg" width="104.488" height="81.302" viewBox="0 0 104.488 81.302">
  <g id="visit_icon_004" transform="translate(-371.338 -2079)">
    <path id="Path_236" data-name="Path 236" d="M-19598.1-15463.961s-.844-7.145,0-8.605,9.738-6.883,9.738-6.883l7.275,3.613,7.4-3.613s9.449,5.33,9.865,6.883,0,8.605,0,8.605" transform="translate(20028.994 17581.949)" fill="none" stroke="#00285c" stroke-linecap="round" stroke-linejoin="round" stroke-width="3"/>
    <path id="Path_238" data-name="Path 238" d="M-19623.328-15457.024h68.7" transform="translate(20028.953 17582.006)" fill="none" stroke="#00285c" stroke-linecap="round" stroke-width="3"/>
    <path id="Path_239" data-name="Path 239" d="M-19643.078-15450.17c9.359,0,17.191-1.572,18.309,2.6s-.322,7.295-4.8,24.02" transform="translate(20028.906 17582.02)" fill="none" stroke="#00285c" stroke-linecap="round" stroke-linejoin="round" stroke-width="3"/>
    <path id="Path_240" data-name="Path 240" d="M-19638.129-15439.893c-.234,0-.471,0-1.025.015-6.275.123-14.451,1.706-16.553-13.6-2.18-15.859,7.9-23.455,14.721-23.455s-1.854,10.355,0,17.279a20.4,20.4,0,0,0,8.443,1.352" transform="translate(20028.871 17581.957)" fill="none" stroke="#00285c" stroke-linecap="round" stroke-linejoin="round" stroke-width="3"/>
    <g id="Ellipse_48" data-name="Ellipse 48" transform="translate(391 2091)" fill="none" stroke="#00285c" stroke-linecap="round" stroke-linejoin="round" stroke-width="3">
      <circle cx="8" cy="8" r="8" stroke="none"/>
      <circle cx="8" cy="8" r="6.5" fill="none"/>
    </g>
    <g id="Ellipse_49" data-name="Ellipse 49" transform="translate(438 2079)" fill="none" stroke="#00285c" stroke-linecap="round" stroke-linejoin="round" stroke-width="3">
      <circle cx="10" cy="10" r="10" stroke="none"/>
      <circle cx="10" cy="10" r="8.5" fill="none"/>
    </g>
    <path id="Path_241" data-name="Path 241" d="M-19543.041-15489.668v7.77" transform="translate(19998.074 17598.711)" fill="none" stroke="#00285c" stroke-width="2"/>
    <path id="Path_242" data-name="Path 242" d="M0,0V7.769" transform="translate(458.918 2112.926) rotate(90)" fill="none" stroke="#00285c" stroke-width="2"/>
    <rect id="Rectangle_224" data-name="Rectangle 224" width="47" height="6" transform="translate(416 2152)" fill="#f2fdfe"/>
    <path id="Path_243" data-name="Path 243" d="M-18841.824-15466.621v31.3" transform="translate(19257 17592)" fill="none" stroke="#00285c" stroke-linecap="round" stroke-width="3"/>
    <path id="Path_244" data-name="Path 244" d="M-18841.824-15466.621v31.3" transform="translate(19308 17592)" fill="none" stroke="#00285c" stroke-linecap="round" stroke-width="3"/>
  </g>
</svg>
