<svg xmlns="http://www.w3.org/2000/svg" width="70.713" height="78.707" viewBox="0 0 70.713 78.707">
  <g id="visit_icon_008" transform="translate(-917.644 -2741.646)">
    <path id="Path_258" data-name="Path 258" d="M297.537,83a1.537,1.537,0,1,0,1.537,1.537A1.538,1.538,0,0,0,297.537,83Z" transform="translate(663.149 2671.406)" fill="#00285c"/>
    <path id="Path_259" data-name="Path 259" d="M197.537,83a1.537,1.537,0,1,0,1.537,1.537A1.538,1.538,0,0,0,197.537,83Z" transform="translate(747.776 2671.406)" fill="#00285c"/>
    <path id="visit_icon_008-2" data-name="visit_icon_008" d="M94.734,45.946a12.294,12.294,0,0,0,1.98-6.592,10.677,10.677,0,0,0-3.894-8.26,10.392,10.392,0,0,0,.82-4.038,11.458,11.458,0,0,0-6.214-10.134,9.213,9.213,0,0,0-7-10.054A11.075,11.075,0,0,0,70.58,0a10.8,10.8,0,0,0-9.223,5.537A10.8,10.8,0,0,0,52.133,0a11.074,11.074,0,0,0-9.847,6.868,9.212,9.212,0,0,0-7,10.054,11.458,11.458,0,0,0-6.214,10.134,10.392,10.392,0,0,0,.82,4.038A10.677,10.677,0,0,0,26,39.354a12.292,12.292,0,0,0,1.98,6.592,10.613,10.613,0,0,0,1.233,13.779C28.158,66.1,33.244,72.558,39.835,72.558l.14,0a12.119,12.119,0,0,0,21.381-.535,12.119,12.119,0,0,0,21.381.535l.141,0c5.833,0,10.761-5.139,10.761-11.222a9.842,9.842,0,0,0-.138-1.611,10.612,10.612,0,0,0,1.233-13.779ZM59.819,23.271a6.109,6.109,0,0,0-3.074-.827,1.537,1.537,0,1,0,0,3.074,3.078,3.078,0,0,1,3.074,3.074V57.826A12.27,12.27,0,0,0,50.6,53.65a1.537,1.537,0,0,0,0,3.074,9.234,9.234,0,0,1,9.223,9.223c0,5.25-4.224,9.685-9.223,9.685a9.249,9.249,0,0,1-8.347-5.362,1.538,1.538,0,0,0-1.568-.88c-.109.012-.217.027-.325.042-4.375.6-9.3-4.356-7.968-9.9a1.537,1.537,0,0,0-.511-1.541,7.653,7.653,0,0,1-2.8-5.88A7.565,7.565,0,0,1,30.2,48.157a10.372,10.372,0,0,0,6.558,2.418,1.537,1.537,0,1,0,0-3.074c-4.172,0-7.686-3.808-7.686-8.147a7.643,7.643,0,0,1,3.59-6.478,1.537,1.537,0,0,0,.515-2.057,7.565,7.565,0,0,1-1.03-3.763c0-4.149,3.382-8.147,7.686-8.147,4.095,0,7.686,3.807,7.686,8.147a1.537,1.537,0,0,0,3.074,0c0-6.083-4.928-11.222-10.761-11.222a9.968,9.968,0,0,0-1.533.121c0-.04,0-.08,0-.121a6.15,6.15,0,0,1,10.5-4.348A1.537,1.537,0,0,0,50.969,9.31a9.161,9.161,0,0,0-5.1-2.59,7.766,7.766,0,0,1,6.263-3.646c4.095,0,7.686,3.807,7.686,8.147Zm26.133,27.3a10.375,10.375,0,0,0,6.558-2.418,7.564,7.564,0,0,1,1.128,3.955,7.653,7.653,0,0,1-2.8,5.88,1.537,1.537,0,0,0-.511,1.541,7.585,7.585,0,0,1,.239,1.8c0,4.772-4.316,8.628-8.207,8.1-.108-.015-.216-.029-.325-.042a1.536,1.536,0,0,0-1.568.88,9.25,9.25,0,0,1-8.347,5.362c-5,0-9.223-4.435-9.223-9.685a9.234,9.234,0,0,1,9.223-9.223,1.537,1.537,0,1,0,0-3.074,12.27,12.27,0,0,0-9.223,4.177V28.593a3.078,3.078,0,0,1,3.074-3.074,1.537,1.537,0,0,0,0-3.074,6.109,6.109,0,0,0-3.074.827V11.222c0-4.34,3.592-8.147,7.686-8.147A7.766,7.766,0,0,1,76.843,6.72a9.162,9.162,0,0,0-5.1,2.59,1.537,1.537,0,1,0,2.173,2.175,6.15,6.15,0,0,1,10.5,4.348c0,.041,0,.08,0,.121a9.968,9.968,0,0,0-1.533-.121c-5.833,0-10.761,5.139-10.761,11.222a1.537,1.537,0,0,0,3.074,0c0-4.34,3.592-8.147,7.686-8.147,4.3,0,7.686,4,7.686,8.147a7.565,7.565,0,0,1-1.03,3.763,1.537,1.537,0,0,0,.515,2.057,7.644,7.644,0,0,1,3.59,6.478c0,4.355-3.527,8.147-7.686,8.147a1.537,1.537,0,1,0,0,3.074Z" transform="translate(891.643 2741.646)" fill="#00285c"/>
    <path id="Path_261" data-name="Path 261" d="M124.055,173.387a1.537,1.537,0,0,0-2.171-.121,7.7,7.7,0,0,1-12.81-5.729,1.537,1.537,0,1,0-3.074,0,10.777,10.777,0,0,0,9.008,10.616,4.62,4.62,0,0,1-4.4,3.219,1.537,1.537,0,1,0,0,3.074,7.7,7.7,0,0,0,7.548-6.242,10.743,10.743,0,0,0,5.775-2.648A1.537,1.537,0,0,0,124.055,173.387Z" transform="translate(823.941 2601.165)" fill="#00285c"/>
    <path id="Path_262" data-name="Path 262" d="M107.537,389a1.537,1.537,0,1,0,0,3.074c4.095,0,7.686,3.807,7.686,8.147a1.537,1.537,0,1,0,3.074,0C118.3,394.139,113.37,389,107.537,389Z" transform="translate(823.941 2412.445)" fill="#00285c"/>
    <path id="Path_263" data-name="Path 263" d="M128.635,309a13.806,13.806,0,0,0-12.037,7.011,1.537,1.537,0,1,0,2.675,1.516,10.737,10.737,0,0,1,9.362-5.453,1.537,1.537,0,1,0,0-3.074Z" transform="translate(815.142 2480.147)" fill="#00285c"/>
    <path id="Path_264" data-name="Path 264" d="M299.835,181.372a4.62,4.62,0,0,1-4.4-3.219,10.777,10.777,0,0,0,9.008-10.616,1.537,1.537,0,0,0-3.075,0,7.686,7.686,0,0,1-12.81,5.729,1.537,1.537,0,1,0-2.05,2.291,10.743,10.743,0,0,0,5.775,2.648,7.7,7.7,0,0,0,7.548,6.242,1.537,1.537,0,0,0,0-3.074Z" transform="translate(671.612 2601.165)" fill="#00285c"/>
    <path id="Path_265" data-name="Path 265" d="M336.761,389C330.928,389,326,394.139,326,400.222a1.537,1.537,0,1,0,3.074,0c0-4.34,3.592-8.147,7.686-8.147a1.537,1.537,0,1,0,0-3.074Z" transform="translate(637.761 2412.445)" fill="#00285c"/>
    <path id="Path_266" data-name="Path 266" d="M319.574,316.011A13.805,13.805,0,0,0,307.537,309a1.537,1.537,0,0,0,0,3.074,10.739,10.739,0,0,1,9.362,5.453,1.537,1.537,0,0,0,2.675-1.516Z" transform="translate(654.686 2480.147)" fill="#00285c"/>
  </g>
</svg>
