<svg id="Livello_1" data-name="Livello 1" xmlns="http://www.w3.org/2000/svg" viewBox="0 0 174.75 179.64"><defs><style>.cls-1{fill:#1f2e55;}</style></defs><title>webcam icon</title><path class="cls-1" d="M89.66,155a77.4,77.4,0,1,1,77.59-77.1A77.22,77.22,0,0,1,89.66,155Zm34.49-77.28a34.2,34.2,0,1,0-34.28,34.12A34.38,34.38,0,0,0,124.15,77.69ZM59.73,37.83a6.67,6.67,0,0,0-6.56-6.63,6.8,6.8,0,0,0-6.65,6.92,6.61,6.61,0,0,0,13.21-.29Z" transform="translate(-2.62 -0.18)"/><path class="cls-1" d="M91.75,179.82c-24.22-1.17-47.81-2.2-71.39-3.54-5.09-.28-10.14-1.61-15.16-2.67-1-.21-2.46-1.28-2.57-2.11a3.77,3.77,0,0,1,1.77-2.88c3.42-1.87,6.85-4,10.55-5.05,11.24-3.34,22.59-6.32,34-9.27a7.17,7.17,0,0,1,4.43.52c24.15,10.88,48.28,11,72.48.21a5.83,5.83,0,0,1,3.49-.66q20.8,5.9,41.51,12.08a17.56,17.56,0,0,1,4.43,2.37c2.88,1.9,2.92,4-.3,5-4.53,1.49-9.28,2.89-14,3.13C137.71,178.13,114.44,178.92,91.75,179.82Z" transform="translate(-2.62 -0.18)"/><path class="cls-1" d="M118.83,77.53a28.74,28.74,0,0,1-28.39,29C74.15,106.58,61,93.82,61,77.85S73.85,48.73,89.62,48.66A28.87,28.87,0,0,1,118.83,77.53Zm-14,.15a15,15,0,1,0-14.91,15A14.89,14.89,0,0,0,104.85,77.68Z" transform="translate(-2.62 -0.18)"/></svg>