<svg xmlns="http://www.w3.org/2000/svg" width="109.625" height="83.648" viewBox="0 0 109.625 83.648">
  <g id="visit_icon_010" transform="translate(2.02 9.477)">
    <path id="Path_274" data-name="Path 274" d="M39.839,24.314c3.952-1.328,6.866-5.506,6.866-10.5v-2.09a1.606,1.606,0,0,0-3.212,0v2.09c0,4.283-2.816,7.767-6.279,7.767H34.985a8.3,8.3,0,0,0-.5-1.14,3.057,3.057,0,0,1-.039-3.282C44.486,1.56,28.1-15.011,13.225-7.693a1.6,1.6,0,0,0-.732,2.15,1.6,1.6,0,0,0,2.15.731c11.9-5.853,25.44,7.316,17.107,20.234a6.244,6.244,0,0,0,0,6.706,5.477,5.477,0,0,1,0,5.636,6.279,6.279,0,0,0,.155,6.954,14.189,14.189,0,0,1,2.012,10.618c-2.464,11.826-17.95,14.675-24.6,4.7C-1.367,34-1.664,16.36,9.319-.138a1.606,1.606,0,0,0-.446-2.227,1.606,1.606,0,0,0-2.227.447C-4.722,15.156-5.095,34.2,6.652,51.821c8.215,12.322,27.371,8.783,30.414-5.829a17.44,17.44,0,0,0-2.6-13.232,3.078,3.078,0,0,1,.022-3.31,8.4,8.4,0,0,0,.941-2.171h1.984a9.923,9.923,0,0,1,9.912,9.912V72.565a1.606,1.606,0,0,0,3.212,0V37.192a13.128,13.128,0,0,0-10.7-12.877Zm0,0" transform="translate(0 0)" fill="#fff"/>
    <path id="Path_275" data-name="Path 275" d="M561.631-1.907a1.606,1.606,0,0,0-2.227-.447,1.606,1.606,0,0,0-.447,2.227c10.7,16.076,10.967,33.721-.005,50.177a13.631,13.631,0,0,1-11.367,6.078c-10.653,0-17.42-11.791-11.078-21.614a6.262,6.262,0,0,0,.014-6.738,5.478,5.478,0,0,1,0-5.636,6.245,6.245,0,0,0,0-6.708c-8.265-12.8,5.094-26.142,17.107-20.233a1.605,1.605,0,0,0,2.15-.731,1.6,1.6,0,0,0-.732-2.15C540.182-15,523.785,1.569,533.826,17.169a3.057,3.057,0,0,1-.037,3.283,8.293,8.293,0,0,0-.5,1.14h-2.229c-3.463,0-6.279-3.484-6.279-7.767v-2.09a1.606,1.606,0,0,0-3.212,0v2.09c0,4.993,2.916,9.171,6.867,10.5A13.128,13.128,0,0,0,517.74,37.2V72.576a1.606,1.606,0,0,0,3.212,0V37.2a9.923,9.923,0,0,1,9.911-9.912h1.984a8.4,8.4,0,0,0,.941,2.171,3.092,3.092,0,0,1-.105,3.506c-7.3,11.111.2,26.373,13.9,26.373a16.837,16.837,0,0,0,14.04-7.508c11.379-17.068,11.741-36.113.006-53.739Zm0,0" transform="translate(-462.692 -0.01)" fill="#fff"/>
  </g>
</svg>
