<svg xmlns="http://www.w3.org/2000/svg" width="67.928" height="73.085" viewBox="0 0 67.928 73.085">
  <g id="visit_icon_007" transform="translate(-389.756 -2753.859)">
    <path id="visit_icon_007-2" data-name="visit_icon_007" d="M69.1,14.224l-9.377-1.787h0a5.037,5.037,0,0,1-4.089-4.942V3.62A3.624,3.624,0,0,0,52.014,0H37.277a3.624,3.624,0,0,0-3.619,3.62V7.495a5.037,5.037,0,0,1-4.089,4.942l-9.377,1.787A11.692,11.692,0,0,0,10.715,26.6L14,69.74a3.636,3.636,0,0,0,3.609,3.345H71.685a3.635,3.635,0,0,0,3.609-3.345L78.576,26.6A11.692,11.692,0,0,0,69.1,14.224ZM74.966,26.33,71.685,69.465h-7.91L62.027,61.1l6.1-26.686a1.81,1.81,0,0,0-3.529-.806L58.409,60.68a1.81,1.81,0,0,0-.007.774l1.674,8.011H29.214l1.674-8.012a1.81,1.81,0,0,0-.007-.774L24.693,33.608a1.81,1.81,0,0,0-3.529.806l6.1,26.686-1.748,8.365H17.607L14.325,26.33a8.074,8.074,0,0,1,6.544-8.55l9.377-1.787a8.661,8.661,0,0,0,7.032-8.5V3.62H52.013V7.495a8.661,8.661,0,0,0,7.032,8.5l9.377,1.787A8.074,8.074,0,0,1,74.966,26.33Z" transform="translate(379.075 2753.86)" fill="#fff"/>
    <path id="Path_257" data-name="Path 257" d="M146.85,89.462A1.448,1.448,0,0,0,145.4,90.91v31.363a1.448,1.448,0,1,0,2.9,0V90.91A1.448,1.448,0,0,0,146.85,89.462Z" transform="translate(276.871 2685.99)" fill="#fff"/>
  </g>
</svg>
