<svg xmlns="http://www.w3.org/2000/svg" width="82.746" height="82.745" viewBox="0 0 82.746 82.745">
  <g id="visit_icon_003" transform="translate(-17098.5 15250.845)">
    <path id="_3" data-name="3" d="M81.143,23a3.231,3.231,0,0,1-4.421-1.161,47.469,47.469,0,0,0-5.654-7.788L71.025,14c-.235-.272-.541-.606-.639-.7-.041-.039-.084-.084-.123-.122-.094-.1-.428-.4-.7-.639l-.047-.042a47,47,0,0,0-8.4-5.955A3.232,3.232,0,1,1,64.3.92a53.42,53.42,0,0,1,9.515,6.751c.194.168.724.633,1.083,1s.832.888,1,1.083A53.951,53.951,0,0,1,82.3,18.582,3.231,3.231,0,0,1,81.143,23Zm-15.6,25.9a3.232,3.232,0,0,1-2.109,3.206c-.181.067-18.167,6.7-20.557,7.638a3.233,3.233,0,0,1-3.381-.639l-1.131-1.05c-.036-.034-.072-.069-.107-.1L26.816,46.3a28.98,28.98,0,0,1-2.077,2.76l-13.492,15.9-.021.024a4.869,4.869,0,0,0,.121,6.52,4.868,4.868,0,0,0,6.519.12l.024-.021L28.13,62.921a3.232,3.232,0,0,1,4.183,4.929L22.084,76.53a11.318,11.318,0,0,1-12.4,1.6L5.517,82.3a3.232,3.232,0,1,1-4.57-4.571l4.046-4.046A11.319,11.319,0,0,1,6.327,60.772l13.482-15.9a19.923,19.923,0,0,0,3.23-5.143c1.116-2.665,7.644-20.151,7.71-20.328a3.233,3.233,0,0,1,3.2-2.1,37.847,37.847,0,0,1,21.262,8.98c.152.132.464.407.7.65s.518.551.65.7A37.825,37.825,0,0,1,65.543,48.9Zm-6.77-1.966a31.183,31.183,0,0,0-7.04-15l-.042-.048c-.1-.118-.245-.276-.3-.33-.034-.034-.069-.067-.1-.1-.055-.054-.212-.2-.331-.3l-.047-.042a30.966,30.966,0,0,0-15.008-7.05C34.4,28.09,31.4,36.091,29.83,40.143L42.446,53c3.96-1.487,12.208-4.536,16.325-6.056Zm7.169-28.511c-.146-.168-.536-.612-.854-.925s-.757-.707-.925-.854A44.575,44.575,0,0,0,59,12.666a3.232,3.232,0,1,0-3.565,5.393,38.006,38.006,0,0,1,4.437,3.421l.047.042c.208.179.467.415.541.492.04.042.077.08.12.119.079.077.315.336.494.543l.042.048a38.58,38.58,0,0,1,4.277,5.787,3.232,3.232,0,1,0,5.53-3.349,45.121,45.121,0,0,0-4.977-6.735Zm0,0" transform="translate(17098.5 -15251.345)" fill="#fff"/>
    <path id="visit_icon_003-2" data-name="visit_icon_003" d="M81.143,23a3.231,3.231,0,0,1-4.421-1.161,47.469,47.469,0,0,0-5.654-7.788L71.025,14c-.235-.272-.541-.606-.639-.7-.041-.039-.084-.084-.123-.122-.094-.1-.428-.4-.7-.639l-.047-.042a47,47,0,0,0-8.4-5.955A3.232,3.232,0,1,1,64.3.92a53.42,53.42,0,0,1,9.515,6.751c.194.168.724.633,1.083,1s.832.888,1,1.083A53.951,53.951,0,0,1,82.3,18.582,3.231,3.231,0,0,1,81.143,23Zm-15.6,25.9a3.232,3.232,0,0,1-2.109,3.206c-.181.067-18.167,6.7-20.557,7.638a3.233,3.233,0,0,1-3.381-.639l-1.131-1.05c-.036-.034-.072-.069-.107-.1L26.816,46.3a28.98,28.98,0,0,1-2.077,2.76l-13.492,15.9-.021.024a4.869,4.869,0,0,0,.121,6.52,4.868,4.868,0,0,0,6.519.12l.024-.021L28.13,62.921a3.232,3.232,0,0,1,4.183,4.929L22.084,76.53a11.318,11.318,0,0,1-12.4,1.6L5.517,82.3a3.232,3.232,0,1,1-4.57-4.571l4.046-4.046A11.319,11.319,0,0,1,6.327,60.772l13.482-15.9a19.923,19.923,0,0,0,3.23-5.143c1.116-2.665,7.644-20.151,7.71-20.328a3.233,3.233,0,0,1,3.2-2.1,37.847,37.847,0,0,1,21.262,8.98c.152.132.464.407.7.65s.518.551.65.7A37.825,37.825,0,0,1,65.543,48.9Zm-6.77-1.966a31.183,31.183,0,0,0-7.04-15l-.042-.048c-.1-.118-.245-.276-.3-.33-.034-.034-.069-.067-.1-.1-.055-.054-.212-.2-.331-.3l-.047-.042a30.966,30.966,0,0,0-15.008-7.05C34.4,28.09,31.4,36.091,29.83,40.143L42.446,53c3.96-1.487,12.208-4.536,16.325-6.056Zm7.169-28.511c-.146-.168-.536-.612-.854-.925s-.757-.707-.925-.854A44.575,44.575,0,0,0,59,12.666a3.232,3.232,0,1,0-3.565,5.393,38.006,38.006,0,0,1,4.437,3.421l.047.042c.208.179.467.415.541.492.04.042.077.08.12.119.079.077.315.336.494.543l.042.048a38.58,38.58,0,0,1,4.277,5.787,3.232,3.232,0,1,0,5.53-3.349,45.121,45.121,0,0,0-4.977-6.735Zm0,0" transform="translate(17098.5 -15251.345)" fill="#fff"/>
  </g>
</svg>
