<svg xmlns="http://www.w3.org/2000/svg" width="51.48" height="91.541" viewBox="0 0 51.48 91.541">
  <path id="visit_icon_001" d="M35.93,74.514l-1.486-6.1a1.341,1.341,0,0,0-2.606.636l1.487,6.1a5.292,5.292,0,0,1-2.492,5.8c-13.743,7.923-27.1,7.923-40.846,0a5.291,5.291,0,0,1-2.493-5.8l3.789-15.562A13.543,13.543,0,0,1,.968,49.706L9.247,64.047a1.342,1.342,0,0,0,2.323,0l8.28-14.341a13.545,13.545,0,0,1,9.683,9.881l.789,3.234a1.341,1.341,0,0,0,2.606-.635l-.789-3.235a16.259,16.259,0,0,0-15.63-12.439v-3h4.448a9.635,9.635,0,0,0,9.6-8.693c.329-3.234.458-10.083.439-13.009A17.839,17.839,0,0,0,23.066,7.127l1.841-4.805A1.341,1.341,0,0,0,24.135.586,37.45,37.45,0,0,0-3.313.581,1.34,1.34,0,0,0-4.091,2.31l1.832,4.825A17.844,17.844,0,0,0-10.181,21.81c-.02,2.925.11,9.774.44,13.009a9.634,9.634,0,0,0,9.6,8.693H4.309v3a16.258,16.258,0,0,0-15.63,12.439l-3.792,15.563a7.986,7.986,0,0,0,3.758,8.76c14.438,8.326,29.084,8.326,43.526,0A7.986,7.986,0,0,0,35.93,74.514ZM21.915,2.635l-1.7,4.449-1.5,3.905A25.53,25.53,0,0,0,2.077,11L-1.1,2.633a34.652,34.652,0,0,1,23.014,0ZM-7.076,34.547c-.3-2.92-.444-9.376-.425-12.719A15.236,15.236,0,0,1-1.314,9.619C.139,13.093-.163,13.609.924,13.928a1.324,1.324,0,0,0,.367.113,1.333,1.333,0,0,0,.475-.088,23.24,23.24,0,0,1,17.252-.008,1.34,1.34,0,0,0,1.733-.772l1.368-3.567a15.234,15.234,0,0,1,6.2,12.222c.022,3.344-.128,9.8-.425,12.72A6.96,6.96,0,0,1,20.96,40.83H17.63A13.1,13.1,0,0,0,23.521,29.9V19.742a2.685,2.685,0,0,0-.291-.7,2.675,2.675,0,0,0-.541-.538,23.95,23.95,0,0,1-6.938-4.736,1.344,1.344,0,0,0-1.777-.132A28.04,28.04,0,0,1-1.375,18.4c-.184,0-.311.131-.469.2s-.349.074-.468.2a1.427,1.427,0,0,0-.2.475c-.067.162-.193.284-.193.467v3.81a1.342,1.342,0,0,0,.661,1.188,1.342,1.342,0,0,0,1.36,0A1.342,1.342,0,0,0-.02,23.552v-2.6a31.5,31.5,0,0,0,14.673-4.529,26.9,26.9,0,0,0,6.184,4.159v9.329a10.429,10.429,0,1,1-20.858,0,1.342,1.342,0,0,0-.661-1.188,1.342,1.342,0,0,0-1.36,0A1.342,1.342,0,0,0-2.7,29.907,13.1,13.1,0,0,0,3.189,40.83H-.14a6.96,6.96,0,0,1-6.936-6.283ZM4.514,49.193H5.646a1.341,1.341,0,0,0,1.342-1.341V43.113a11.773,11.773,0,0,0,6.836,0v4.739a1.342,1.342,0,0,0,1.342,1.341H16.3c.242,0,.472.047.711.061l-6.6,11.441L3.8,49.253c.238-.013.469-.061.711-.061Zm0,0" transform="translate(15.332 2.022)" fill="#fff"/>
</svg>
