<svg id="Livello_1" data-name="Livello 1" xmlns="http://www.w3.org/2000/svg" viewBox="0 0 144.6 145.47"><defs><style>.cls-1{fill:#00285c;}</style></defs><title>Fisioterapia Icon</title><path class="cls-1" d="M99.13,92.75l11.21.71c8.87.56,17.74,1.06,26.59,1.7a7.06,7.06,0,0,1,6.34,5.63,7.38,7.38,0,0,1-3.28,8,7.86,7.86,0,0,1-4.32,1.13q-35.08,0-70.16,0-10.11,0-20.22,0a11.67,11.67,0,0,1-5.64-1.27c-3.08-1.65-4.81-4.21-4.46-7.74a30.14,30.14,0,0,1,5.68-15.61,19.63,19.63,0,0,1,15.2-7.9c3.8-.21,7.62-.1,11.42-.08a2.15,2.15,0,0,0,2-.93c.6-.83,1.28-1.6,2-2.37a6.63,6.63,0,0,1,11.42,2.2,1.36,1.36,0,0,0,1.54,1.1A27.15,27.15,0,0,0,92.59,76a4.49,4.49,0,0,1,2.69,0c2,.65,4.07,1.21,6.11,2-3.75,1.22-7.48,2.35-11.29,3.21a26.66,26.66,0,0,1-6.84.51,1.78,1.78,0,0,0-1.86,1A79.43,79.43,0,0,1,73.66,93.5a20.55,20.55,0,0,1-6.5,5.16,10,10,0,0,1-2.06.75A2.18,2.18,0,0,1,62.44,98a2.14,2.14,0,0,1,1.37-2.71,15.52,15.52,0,0,0,7.61-6.13c2.24-3.26,4.49-6.52,6.8-9.72A1.86,1.86,0,0,0,78,76.57a2.21,2.21,0,0,0-3,.15c-.75.77-1.4,1.63-2.08,2.46-2.59,3.2-5.59,6-8.39,9a2.12,2.12,0,0,1-3.24.23A2.22,2.22,0,0,1,61.38,85a36.19,36.19,0,0,0,3-3c-5.13-.3-10.14-.86-14.8,1.58-4.47,2.34-7,6.22-8.59,10.84a36.56,36.56,0,0,0-1.37,5.83c-.41,2.45.45,3.94,2.78,4.77a8.79,8.79,0,0,0,3,.46h90.08c2.1,0,3.46-1.13,3.53-2.88s-1.16-3-3.18-3.09c-7.11-.48-14.22-.92-21.34-1.36s-14-.85-21-1.3A3,3,0,0,1,91.1,96c-.9-1.08-.68-2.29.59-3.42,6.68-5.92,14.14-10.24,23-12,5.63-1.13,11.13-2.88,16.69-4.36,2.73-.72,3.48-2.44,2.1-4.91-.19-.33-.29-.57-.05-.91a12.68,12.68,0,0,0,1.34-3.53A6.91,6.91,0,0,1,138.6,74a7.25,7.25,0,0,1-5.37,6.27q-11.58,3.12-23.17,6.15C105.85,87.51,102.43,90,99.13,92.75Z" transform="translate(-2.99 -2.55)"/><path class="cls-1" d="M37.36,110c-1.51,0-2.76,0-4,0a2.16,2.16,0,0,1-1.91-1.58c-1.2-2.87-2.61-3.79-5.71-3.79H13c-3.28,0-5.49,2.09-5.5,5.35,0,10.84,0,21.68,0,32.52,0,.88.23,1.2,1.14,1.16,2-.06,3.91,0,5.86,0,.77,0,1-.26,1-1,0-2,0-3.91,0-5.86,0-2.73.55-3.29,3.25-3.29H130.59c4.48,0,4.58.09,4.58,4.6,0,1.52,0,3,0,4.55,0,.73.2,1,1,1q3-.06,6,0c.77,0,1-.26,1-1q0-13.69,0-27.39a5.46,5.46,0,0,0-2.32-4.28,15.91,15.91,0,0,0,2.85-2.55c.52-.7.83-.1,1.14.21a9.16,9.16,0,0,1,2.76,6.58q.06,15.16,0,30.32A2.21,2.21,0,0,1,145,148c-3.91,0-7.81,0-11.72,0-1.78,0-2.56-.81-2.59-2.62,0-2-.1-4.11,0-6.15.08-1.34-.57-1.35-1.56-1.35q-21.31,0-42.63,0-32.52,0-65,0c-1.29,0-1.8.27-1.7,1.66.13,1.95.05,3.91,0,5.86s-.8,2.6-2.59,2.61q-5.87,0-11.72,0A2.21,2.21,0,0,1,3,145.47c0-12-.08-23.93,0-35.89a9.53,9.53,0,0,1,9.77-9.42c4.5,0,9,0,13.48,0a9.39,9.39,0,0,1,4.5,1.1,4.43,4.43,0,0,1,2.66,3.2C33.82,106.43,34.78,107.54,37.36,110Z" transform="translate(-2.99 -2.55)"/><path class="cls-1" d="M97.09,54.8a28,28,0,0,1-.47,3.75c-.37,1.42.23,1.79,1.48,2.12q5.09,1.32,10.11,2.91A6.56,6.56,0,0,1,112.78,70a6.67,6.67,0,0,1-8.61,6.22c-2.16-.62-4.36-1.11-6.46-1.87a9.25,9.25,0,0,0-6.39-.16c-1.08.37-1.76.28-1.26-1.1.26-.74-.08-.92-.71-1.08-2.77-.75-5.54-1.54-8.31-2.31-.32-.09-.66-.17-1-.29a2.18,2.18,0,0,1-1.54-2.74,2.14,2.14,0,0,1,2.78-1.45c4.41,1.21,8.82,2.46,13.22,3.7l10.13,2.85c.19,0,.37.14.56.18a2.39,2.39,0,0,0,3.06-1.52c.37-1.24-.32-2.37-1.84-2.83l-20.14-6.1c-.79-.24-1.58-.49-2.36-.75-2.49-.84-3-1.49-3.18-4.09a16.72,16.72,0,0,1,.67-5.49A2.17,2.17,0,0,1,84,49.56a2.24,2.24,0,0,1,1.7,2.66C85,56.64,85,56.64,89.28,58c2.88.91,2.88.91,3.24-2,.18-1.45.29-2.92.54-4.36.3-1.72,1.45-2.36,3.1-1.84a42.32,42.32,0,0,1,13.89,7c4.38,3.51,9,6.73,13.49,10.07.32.24.62.48.95.7a2.26,2.26,0,1,0,2.67-3.65c-11.28-8.53-22.51-17.15-35.53-23-4-1.81-8-3.48-12.59-3.35a10.87,10.87,0,0,0-9.72,5.72c-2,3.37-2.4,7.17-3.11,10.9q-1.86,9.84-3.67,19.69c-.16.91-.42,1.29-1.45,1.28-3.35,0-3.33,0-2.71-3.27q2.17-11.49,4.32-23a25.68,25.68,0,0,1,2.59-7.42C68.74,35,75,32.11,82.59,33.21c5.33.77,10,3.25,14.72,5.51,11,5.24,20.61,12.6,30.26,19.89.86.65,1.75,1.25,2.57,1.94a6.63,6.63,0,0,1,1,9.31A6.8,6.8,0,0,1,122,71.07c-5.59-4.1-11.14-8.25-16.7-12.38A25.29,25.29,0,0,0,97.09,54.8Z" transform="translate(-2.99 -2.55)"/><path class="cls-1" d="M21.47,73.25a17.43,17.43,0,0,1,12.7,5.37c4,4.22,4.25,9.89.43,14.16-4.55,5.08-10.37,7-17,5.4-6-1.46-9.66-7.14-9-13.46.71-6.65,5.31-11.15,11.72-11.47C20.69,73.23,21.08,73.25,21.47,73.25ZM22,94.33a12.88,12.88,0,0,0,9-4c2.54-2.71,2.53-5.89,0-8.62a12.72,12.72,0,0,0-8.39-4c-5.55-.56-9.4,2.65-9.61,7.91S16.16,94.31,22,94.33Z" transform="translate(-2.99 -2.55)"/><path class="cls-1" d="M71.76,15.39c0-6.31,3.69-11.18,9.42-12.46,6.31-1.41,12.19,1.13,14.76,6.4,3.27,6.69.12,16.88-6.37,20.55a10.12,10.12,0,0,1-11.84-1.17A17.73,17.73,0,0,1,71.76,15.39Zm4.41.82a12.63,12.63,0,0,0,4.16,8.87,5.77,5.77,0,0,0,8.08.23,13.06,13.06,0,0,0,4-12.83c-1.18-3.9-4.87-6-9.35-5.41C78.83,7.66,76.16,10.89,76.17,16.21Z" transform="translate(-2.99 -2.55)"/><path class="cls-1" d="M113.58,74.76a11.68,11.68,0,0,0,1.35-4.32c.08-1.13.94-1.08,1.67-.57,1.28.88,2.5,1.84,4,2.95Z" transform="translate(-2.99 -2.55)"/></svg>