<svg xmlns="http://www.w3.org/2000/svg" width="190" height="72" viewBox="0 0 190 72">
  <g id="visit_icon_006" transform="translate(-19136 15034)">
    <g id="Union_9" data-name="Union 9" transform="translate(19136 -15034)" fill="none">
      <path d="M123.965,54.373A36.008,36.008,0,0,1,64.049,57.4,35.293,35.293,0,0,1,35.5,72C15.894,72,0,55.882,0,36S15.894,0,35.5,0A35.293,35.293,0,0,1,64.049,14.6a36.008,36.008,0,0,1,59.916,3.028A35.392,35.392,0,0,1,154.5,0C174.106,0,190,16.118,190,36s-15.894,36-35.5,36A35.392,35.392,0,0,1,123.965,54.373Z" stroke="none"/>
      <path d="M 154.5002899169922 69 C 158.8837127685547 69 163.1348419189453 68.12989807128906 167.1356048583984 66.413818359375 C 171.0041961669922 64.75444793701172 174.4798736572266 62.37760543823242 177.4660797119141 59.34928894042969 C 180.4551696777344 56.31807708740234 182.8019866943359 52.78823852539063 184.4413299560547 48.85781478881836 C 186.1390533447266 44.78736877441406 186.9999084472656 40.46136856079102 186.9999084472656 36 C 186.9999084472656 31.53863143920898 186.1390533447266 27.21263122558594 184.4413299560547 23.14218330383301 C 182.8019866943359 19.21176338195801 180.4551696777344 15.68192100524902 177.4660797119141 12.650710105896 C 174.4798736572266 9.622394561767578 171.0041961669922 7.245552539825439 167.1356048583984 5.586184024810791 C 163.1348419189453 3.870105266571045 158.8837127685547 3 154.5002899169922 3 C 151.5881195068359 3 148.7017669677734 3.390657901763916 145.9214477539063 4.161131381988525 C 143.2255096435547 4.908184051513672 140.6298980712891 6.011394500732422 138.2066955566406 7.440078735351563 C 133.416748046875 10.26413154602051 129.3868713378906 14.31152629852295 126.5527191162109 19.14468383789063 L 123.9828720092773 23.52713203430176 L 121.3862991333008 19.16047286987305 C 118.5113754272461 14.32571029663086 114.421875 10.27605247497559 109.5599517822266 7.449289321899414 C 107.0980834960938 6.017973899841309 104.460693359375 4.912631511688232 101.7210311889648 4.163973808288574 C 98.89463806152344 3.391605377197266 95.96035003662109 3 92.99969482421875 3 C 90.32937622070313 3 87.67387390136719 3.319342136383057 85.10695648193359 3.949157953262329 C 82.61463928222656 4.560657978057861 80.19245147705078 5.467631816864014 77.90766143798828 6.644920825958252 C 73.42658233642578 8.953868865966797 69.46800994873047 12.32168388366699 66.45989990234375 16.38426399230957 L 64.031982421875 19.66326332092285 L 61.62600708007813 16.3681583404541 C 58.66153335571289 12.3081579208374 54.76171875 8.943183898925781 50.34813690185547 6.637026309967041 C 48.09953308105469 5.462079048156738 45.7159538269043 4.556973457336426 43.26358413696289 3.946815729141235 C 40.73847961425781 3.318552732467651 38.12629699707031 3 35.49961090087891 3 C 31.11619186401367 3 26.86505889892578 3.870105266571045 22.86429595947266 5.586184024810791 C 18.99571800231934 7.245552539825439 15.52003288269043 9.622394561767578 12.53382301330566 12.650710105896 C 9.544743537902832 15.68192100524902 7.197927951812744 19.21176338195801 5.558585643768311 23.14218330383301 C 3.860848903656006 27.21263122558594 3.000006914138794 31.53863143920898 3.000006914138794 36 C 3.000006914138794 40.46136856079102 3.860848903656006 44.78736877441406 5.558585643768311 48.85781478881836 C 7.197927951812744 52.78823852539063 9.544743537902832 56.31807708740234 12.53382301330566 59.34928894042969 C 15.52003288269043 62.37760543823242 18.99571800231934 64.75444793701172 22.86429595947266 66.413818359375 C 26.86505889892578 68.12989807128906 31.11619186401367 69 35.49961090087891 69 C 38.12629699707031 69 40.73847961425781 68.68144989013672 43.26358413696289 68.05318450927734 C 45.7159538269043 67.44302368164063 48.09953308105469 66.53789520263672 50.34813690185547 65.36297607421875 C 54.76171875 63.05678939819336 58.66153335571289 59.69181442260742 61.62600708007813 55.63181686401367 L 64.031982421875 52.33671188354492 L 66.45989990234375 55.6157112121582 C 69.46800994873047 59.67829132080078 73.42658233642578 63.0461311340332 77.90769195556641 65.35507965087891 C 80.19248199462891 66.53234100341797 82.61463928222656 67.43933868408203 85.10695648193359 68.05084228515625 C 87.67387390136719 68.68065643310547 90.32939910888672 69 92.99969482421875 69 C 95.96035003662109 69 98.89463806152344 68.6083984375 101.7210311889648 67.83602905273438 C 104.460693359375 67.08737182617188 107.0980834960938 65.98202514648438 109.5599517822266 64.55068206787109 C 114.421875 61.72394561767578 118.5113754272461 57.67428970336914 121.3862991333008 52.83952713012695 L 123.9828720092773 48.47286987304688 L 126.5527191162109 52.85531616210938 C 129.3868713378906 57.68844604492188 133.416748046875 61.73584365844727 138.2066955566406 64.55992126464844 C 140.6298980712891 65.98860168457031 143.2255096435547 67.09178924560547 145.9214477539063 67.8388671875 C 148.7017669677734 68.60934448242188 151.5881195068359 69 154.5002899169922 69 M 154.5002899169922 72 C 141.5126953125 72 130.1537475585938 64.92691802978516 123.9648513793945 54.37284088134766 C 117.6890106201172 64.92691802978516 106.1703491210938 72 92.99969482421875 72 C 81.13292694091797 72 70.60706329345703 66.25802612304688 64.04887390136719 57.40092086791992 C 57.58174514770508 66.25802612304688 47.20198059082031 72 35.49961090087891 72 C 15.89400672912598 72 6.855211722722743e-06 55.88189315795898 6.855211722722743e-06 36 C 6.855211722722743e-06 16.11810493469238 15.89400672912598 0 35.49961090087891 0 C 47.20198059082031 0 57.58174514770508 5.741947174072266 64.04887390136719 14.59905242919922 C 70.60706329345703 5.741947174072266 81.13292694091797 0 92.99969482421875 0 C 106.1703491210938 0 117.6890106201172 7.073052406311035 123.9648513793945 17.62715721130371 C 130.1537475585938 7.073052406311035 141.5126953125 0 154.5002899169922 0 C 174.1058959960938 0 189.9999084472656 16.11810493469238 189.9999084472656 36 C 189.9999084472656 55.88189315795898 174.1058959960938 72 154.5002899169922 72 Z" stroke="none" fill="#fff"/>
    </g>
    <path id="Path_245" data-name="Path 245" d="M94.181,0C86.2,0,79.7,7.181,79.7,16.007a1.409,1.409,0,1,0,2.8,0C82.5,8.89,87.743,3.1,94.181,3.1s11.677,5.791,11.677,12.908c0,4.653-1.639,6.423-3.915,8.879-2.478,2.676-5.562,6-5.562,13.187a4.833,4.833,0,1,1-9.617,0,1.409,1.409,0,1,0-2.8,0c0,4.639,3.415,8.414,7.612,8.414s7.613-3.775,7.613-8.414c0-5.876,2.4-8.465,4.725-10.978s4.752-5.126,4.752-11.087C108.661,7.181,102.166,0,94.181,0Z" transform="translate(19077.9 -15021.805)" fill="#fff"/>
    <path id="Path_246" data-name="Path 246" d="M152.494,207.367a6.876,6.876,0,0,0-2.886-4.26,5.775,5.775,0,0,0-3.869-.939,1.518,1.518,0,0,0-1.248,1.7,1.441,1.441,0,0,0,1.54,1.379,3.2,3.2,0,0,1,2.145.522,3.808,3.808,0,0,1,1.6,2.362,4.178,4.178,0,0,1-.38,2.927,3.526,3.526,0,0,1-2.14,1.773,3.189,3.189,0,0,1-2.647-.421,1.33,1.33,0,0,0-1.92.542,1.647,1.647,0,0,0,.491,2.124,5.816,5.816,0,0,0,3.2.978,5.709,5.709,0,0,0,1.566-.22,6.36,6.36,0,0,0,3.858-3.192A7.546,7.546,0,0,0,152.494,207.367Z" transform="translate(19020.266 -15205.584)" fill="#fff"/>
    <path id="Path_247" data-name="Path 247" d="M173.537,79.6c-4.509,0-8.178,4.057-8.178,9.042a1.409,1.409,0,1,0,2.8,0,5.4,5.4,0,1,1,10.747,0,1.409,1.409,0,1,0,2.8,0C181.713,83.656,178.045,79.6,173.537,79.6Z" transform="translate(18999.277 -15094.177)" fill="#fff"/>
    <path id="Path_248" data-name="Path 248" d="M167.862,157.359a1.467,1.467,0,0,0-1.448-1.5,1.493,1.493,0,0,0-1.354,1.6l.125,4.122a1.475,1.475,0,0,0,1.4,1.5c.015,0,.031,0,.048,0a1.493,1.493,0,0,0,1.354-1.6Z" transform="translate(18999.555 -15163.516)" fill="#fff"/>
    <path id="Path_249" data-name="Path 249" d="M51.717,25.368c-.9-2.074-2.929-11.283-4.5-19.644a6.275,6.275,0,0,0-12.5,0c-1.567,8.362-3.6,17.571-4.5,19.644a9.992,9.992,0,1,0,4.723,19.074,8.371,8.371,0,0,0,12.048,0,9.991,9.991,0,1,0,4.723-19.074Zm-.6,17.545a7.571,7.571,0,0,1-2.681-.495,8.434,8.434,0,0,0,.781-2.318,5.782,5.782,0,0,0,1.032.092c1.821,0,3.3-.813,3.3-1.816s-1.476-1.816-3.3-1.816c-1.686,0-3.074.7-3.27,1.6l-.066.005a5.977,5.977,0,0,1-.846,3.545l-.376.435c-.034.04-.069.08-.1.118a6.289,6.289,0,0,1-9.229,0c-.035-.038-.068-.077-.1-.116l-.376-.433a5.976,5.976,0,0,1-.849-3.549l-.066-.005c-.2-.9-1.584-1.6-3.27-1.6-1.821,0-3.3.813-3.3,1.816s1.476,1.816,3.3,1.816a5.782,5.782,0,0,0,1.032-.092,8.432,8.432,0,0,0,.781,2.318,7.57,7.57,0,1,1-2.681-14.648c1.14,0,1.64-1.079,2.48-4.119.48-1.737,1.055-4.15,1.711-7.173C36.126,11.353,37.1,6.16,37.11,6.109l.017-.13a3.854,3.854,0,0,1,7.685,0l.017.13c.01.052.984,5.245,2.1,10.371.656,3.023,1.231,5.436,1.711,7.173.839,3.04,1.34,4.119,2.48,4.119a7.571,7.571,0,1,1,0,15.142Z" transform="translate(19188.348 -15021.805)" fill="#fff"/>
    <path id="Path_250" data-name="Path 250" d="M113.08,76.026a1.212,1.212,0,0,0-1.433.937l-2.26,10.814a1.211,1.211,0,0,0,.937,1.433,1.228,1.228,0,0,0,.249.026,1.211,1.211,0,0,0,1.184-.963l2.26-10.814A1.211,1.211,0,0,0,113.08,76.026Z" transform="translate(19114.105 -15085.538)" fill="#fff"/>
    <circle id="Ellipse_50" data-name="Ellipse 50" cx="1.211" cy="1.211" r="1.211" transform="translate(19222.609 -14994.654)" fill="#fff"/>
    <path id="Path_255" data-name="Path 255" d="M43.687,14.151a18.342,18.342,0,0,0-17.7-13.6h-.35L23.174,1.823,20.553.552h-.33a18.342,18.342,0,0,0-17.7,13.6L0,23.606l1.779,6.67a22.071,22.071,0,0,0,42.65,0l1.779-6.67ZM19.9,3.434l3.314,1.608,3.117-1.608A15.451,15.451,0,0,1,40.608,13.952a25.623,25.623,0,0,0-35-.013A15.455,15.455,0,0,1,19.9,3.434ZM23.1,43.778A19.2,19.2,0,0,1,4.823,30.367a25.673,25.673,0,0,0,36.307.257q.129-.128.257-.257A19.2,19.2,0,0,1,23.1,43.778Zm0-21.823a4.323,4.323,0,0,0,4.323-4.323v-.278a8.71,8.71,0,0,1,4.323,7.482v.144a7.209,7.209,0,0,0-1.441-.144H15.9a7.209,7.209,0,0,0-1.441.144v-.144a8.71,8.71,0,0,1,4.323-7.482v.278A4.323,4.323,0,0,0,23.1,21.955Zm-7.2,5.763H30.309A4.323,4.323,0,0,1,34.631,32a22.766,22.766,0,0,1-23.054,0A4.323,4.323,0,0,1,15.9,27.718Zm26.166-2.738a22.8,22.8,0,0,1-4.817,5.229,7.182,7.182,0,0,0-2.618-3.9V24.836A11.6,11.6,0,0,0,26.4,13.791l-1.853-.552v4.393a1.441,1.441,0,1,1-2.882,0V13.239l-1.853.552a11.6,11.6,0,0,0-8.233,11.046v1.441h.045a7.19,7.19,0,0,0-2.663,3.936,22.8,22.8,0,0,1-4.817-5.229L3.052,23.348,3.8,20.58l.356-.514a22.784,22.784,0,0,1,37.911-.01l.378.576.72,2.713Z" transform="translate(19267.707 -15022.356)" fill="#fff"/>
    <g id="Path_291" data-name="Path 291" transform="translate(19193 -15034)" fill="none">
      <path d="M36,0A36,36,0,1,1,0,36,36,36,0,0,1,36,0Z" stroke="none"/>
      <path d="M 36 3 C 31.54370498657227 3 27.22230529785156 3.872093200683594 23.15583419799805 5.592071533203125 C 19.22657775878906 7.254013061523438 15.69710540771484 9.633846282958984 12.66548156738281 12.66548156738281 C 9.633846282958984 15.69710540771484 7.254013061523438 19.22657775878906 5.592071533203125 23.15583419799805 C 3.872093200683594 27.22230529785156 3 31.54370498657227 3 36 C 3 40.45629501342773 3.872093200683594 44.77769470214844 5.592071533203125 48.84416198730469 C 7.254013061523438 52.77342224121094 9.633846282958984 56.30289459228516 12.66548156738281 59.33451843261719 C 15.69710540771484 62.36615371704102 19.22657775878906 64.74598693847656 23.15583419799805 66.40792846679688 C 27.22230529785156 68.12790679931641 31.54370498657227 69 36 69 C 40.45629501342773 69 44.77769470214844 68.12790679931641 48.84416198730469 66.40792846679688 C 52.77342224121094 64.74598693847656 56.30289459228516 62.36615371704102 59.33451843261719 59.33451843261719 C 62.36615371704102 56.30289459228516 64.74598693847656 52.77342224121094 66.40792846679688 48.84416198730469 C 68.12790679931641 44.77769470214844 69 40.45629501342773 69 36 C 69 31.54370498657227 68.12790679931641 27.22230529785156 66.40792846679688 23.15583419799805 C 64.74598693847656 19.22657775878906 62.36615371704102 15.69710540771484 59.33451843261719 12.66548156738281 C 56.30289459228516 9.633846282958984 52.77342224121094 7.254013061523438 48.84416198730469 5.592071533203125 C 44.77769470214844 3.872093200683594 40.45629501342773 3 36 3 M 36 0 C 55.88224792480469 0 72 16.11775207519531 72 36 C 72 55.88224792480469 55.88224792480469 72 36 72 C 16.11775207519531 72 0 55.88224792480469 0 36 C 0 16.11775207519531 16.11775207519531 0 36 0 Z" stroke="none" fill="#fff"/>
    </g>
  </g>
</svg>
