<?xml version="1.0" encoding="utf-8"?>
<!-- Generator: Adobe Illustrator 23.0.3, SVG Export Plug-In . SVG Version: 6.00 Build 0)  -->
<svg version="1.1" id="Livello_1" xmlns="http://www.w3.org/2000/svg" xmlns:xlink="http://www.w3.org/1999/xlink" x="0px" y="0px"
	 viewBox="0 0 144.6 145.5" style="enable-background:new 0 0 144.6 145.5;" xml:space="preserve">
<style type="text/css">
	.st0{fill:url(#SVGID_1_);}
	.st1{fill:url(#SVGID_2_);}
	.st2{fill:url(#SVGID_3_);}
	.st3{fill:url(#SVGID_4_);}
	.st4{fill:url(#SVGID_5_);}
	.st5{fill:url(#SVGID_6_);}
</style>
<title>Fisioterapia Icon</title>
<g>
	<linearGradient id="SVGID_1_" gradientUnits="userSpaceOnUse" x1="32.1554" y1="85.8474" x2="140.4864" y2="85.8474">
		<stop  offset="4.926108e-03" style="stop-color:#FFFFFF"/>
		<stop  offset="1" style="stop-color:#FFFFFF"/>
	</linearGradient>
	<path class="st0" d="M96.1,90.2l11.2,0.7c8.9,0.6,17.7,1.1,26.6,1.7c3.1,0.3,5.7,2.6,6.3,5.6c0.7,3.1-0.6,6.3-3.3,8
		c-1.3,0.8-2.8,1.2-4.3,1.1c-23.4,0-46.8,0-70.2,0c-6.7,0-13.5,0-20.2,0c-2,0.1-3.9-0.4-5.6-1.3c-3.1-1.7-4.8-4.2-4.5-7.7
		c0.4-5.6,2.4-11,5.7-15.6c3.6-4.8,9.2-7.7,15.2-7.9c3.8-0.2,7.6-0.1,11.4-0.1c0.8,0.1,1.6-0.3,2-0.9c0.6-0.8,1.3-1.6,2-2.4
		c2.3-2.8,6.5-3.2,9.3-0.9c1,0.8,1.7,1.9,2.1,3.1c0.1,0.7,0.8,1.2,1.5,1.1c2.8,0,5.5-0.5,8.1-1.3c0.9-0.3,1.8-0.3,2.7,0
		c2,0.7,4.1,1.2,6.1,2c-3.8,1.2-7.5,2.3-11.3,3.2c-2.2,0.5-4.5,0.6-6.8,0.5c-0.8-0.1-1.5,0.3-1.9,1c-2.3,3.8-4.9,7.4-7.7,10.8
		c-1.8,2.1-4,3.9-6.5,5.2c-0.7,0.3-1.3,0.6-2.1,0.8c-1.1,0.3-2.3-0.3-2.7-1.4c-0.4-1.1,0.2-2.3,1.4-2.7c0,0,0,0,0,0
		c3.1-1.2,5.8-3.3,7.6-6.1c2.2-3.3,4.5-6.5,6.8-9.7c0.7-0.7,0.8-1.9,0.1-2.6c-0.1-0.1-0.2-0.2-0.3-0.2c-0.9-0.7-2.2-0.7-3,0.2
		c-0.8,0.8-1.4,1.6-2.1,2.5c-2.6,3.2-5.6,6-8.4,9c-0.7,0.9-2,1.2-3,0.5c-0.1-0.1-0.2-0.2-0.3-0.2c-0.9-0.8-1-2.2-0.2-3.1
		c0.1-0.1,0.2-0.2,0.3-0.3c1.1-0.9,2.1-1.9,3-3c-5.1-0.3-10.1-0.9-14.8,1.6c-4.5,2.3-7,6.2-8.6,10.8c-0.6,1.9-1.1,3.9-1.4,5.8
		c-0.4,2.4,0.5,3.9,2.8,4.8c1,0.3,2,0.5,3,0.5h90.1c2.1,0,3.5-1.1,3.5-2.9s-1.2-3-3.2-3.1c-7.1-0.5-14.2-0.9-21.3-1.4
		s-14-0.8-21-1.3c-0.9,0.1-1.8-0.2-2.4-0.8c-0.9-1.1-0.7-2.3,0.6-3.4c6.7-5.9,14.1-10.2,23-12c5.6-1.1,11.1-2.9,16.7-4.4
		c2.7-0.7,3.5-2.4,2.1-4.9c-0.2-0.3-0.3-0.6-0.1-0.9c0.6-1.1,1.1-2.3,1.3-3.5c2.7,1.3,4.2,4.2,3.8,7.1c-0.3,3-2.4,5.5-5.4,6.3
		c-7.7,2.1-15.4,4.1-23.2,6.2C102.9,85,99.4,87.4,96.1,90.2z"/>
	<linearGradient id="SVGID_2_" gradientUnits="userSpaceOnUse" x1="-2.555553e-02" y1="121.5474" x2="144.64" y2="121.5474">
		<stop  offset="4.926108e-03" style="stop-color:#FFFFFF"/>
		<stop  offset="1" style="stop-color:#FFFFFF"/>
	</linearGradient>
	<path class="st1" d="M34.4,107.4c-1.5,0-2.8,0-4,0c-0.9-0.1-1.7-0.7-1.9-1.6c-1.2-2.9-2.6-3.8-5.7-3.8H10c-3.3,0-5.5,2.1-5.5,5.3
		c0,10.8,0,21.7,0,32.5c0,0.9,0.2,1.2,1.1,1.2c2-0.1,3.9,0,5.9,0c0.8,0,1-0.3,1-1c0-2,0-3.9,0-5.9c0-2.7,0.5-3.3,3.3-3.3h111.8
		c4.5,0,4.6,0.1,4.6,4.6c0,1.5,0,3,0,4.6c0,0.7,0.2,1,1,1c2,0,4,0,6,0c0.8,0,1-0.3,1-1c0-9.1,0-18.3,0-27.4
		c-0.1-1.7-0.9-3.3-2.3-4.3c1-0.7,2-1.6,2.9-2.6c0.5-0.7,0.8-0.1,1.1,0.2c1.8,1.7,2.8,4.1,2.8,6.6c0,10.1,0,20.2,0,30.3
		c0.2,1.2-0.7,2.3-1.9,2.5c-0.2,0-0.5,0-0.7,0c-3.9,0-7.8,0-11.7,0c-1.8,0-2.6-0.8-2.6-2.6c0-2-0.1-4.1,0-6.1
		c0.1-1.3-0.6-1.4-1.6-1.4c-14.2,0-28.4,0-42.6,0c-21.7,0-43.3,0-65,0c-1.3,0-1.8,0.3-1.7,1.7c0.1,1.9,0,3.9,0,5.9s-0.8,2.6-2.6,2.6
		c-3.9,0-7.8,0-11.7,0c-1.2,0.2-2.3-0.7-2.5-1.9c0-0.2,0-0.4,0-0.7c0-12-0.1-23.9,0-35.9c0.1-5.3,4.4-9.5,9.6-9.4c0,0,0.1,0,0.1,0
		c4.5,0,9,0,13.5,0c1.6,0,3.1,0.4,4.5,1.1c1.4,0.6,2.4,1.8,2.7,3.2C30.8,103.9,31.8,105,34.4,107.4z"/>
	<linearGradient id="SVGID_3_" gradientUnits="userSpaceOnUse" x1="55.0687" y1="52.1952" x2="129.6126" y2="52.1952">
		<stop  offset="4.926108e-03" style="stop-color:#FFFFFF"/>
		<stop  offset="1" style="stop-color:#FFFFFF"/>
	</linearGradient>
	<path class="st2" d="M94.1,52.3c-0.1,1.3-0.2,2.5-0.5,3.8c-0.4,1.4,0.2,1.8,1.5,2.1c3.4,0.9,6.8,1.9,10.1,2.9
		c2.8,0.9,4.6,3.5,4.6,6.4c-0.1,3.7-3.1,6.6-6.8,6.5c-0.6,0-1.2-0.1-1.8-0.3c-2.2-0.6-4.4-1.1-6.5-1.9c-2-0.8-4.3-0.9-6.4-0.2
		c-1.1,0.4-1.8,0.3-1.3-1.1c0.3-0.7-0.1-0.9-0.7-1.1c-2.8-0.8-5.5-1.5-8.3-2.3c-0.3-0.1-0.7-0.2-1-0.3c-1.2-0.3-1.9-1.5-1.6-2.7
		c0,0,0-0.1,0-0.1c0.3-1.1,1.5-1.8,2.6-1.5c0.1,0,0.1,0,0.1,0c4.4,1.2,8.8,2.5,13.2,3.7l10.1,2.8c0.2,0,0.4,0.1,0.6,0.2
		c1.2,0.4,2.6-0.2,3-1.5c0,0,0,0,0,0c0.4-1.2-0.3-2.4-1.8-2.8L83.3,59c-0.8-0.2-1.6-0.5-2.4-0.8c-2.5-0.8-3-1.5-3.2-4.1
		c-0.1-1.9,0.1-3.7,0.7-5.5c0.3-1.2,1.4-1.9,2.6-1.6c1.2,0.3,2,1.5,1.7,2.7c-0.7,4.4-0.7,4.4,3.6,5.8c2.9,0.9,2.9,0.9,3.2-2
		c0.2-1.5,0.3-2.9,0.5-4.4c0.3-1.7,1.4-2.4,3.1-1.8c5,1.5,9.7,3.8,13.9,7c4.4,3.5,9,6.7,13.5,10.1c0.3,0.2,0.6,0.5,0.9,0.7
		c1,0.7,2.4,0.5,3.2-0.5c0.7-1,0.5-2.4-0.5-3.2c-11.3-8.5-22.5-17.2-35.5-23c-4-1.8-8-3.5-12.6-3.3c-4.1-0.1-7.8,2.2-9.7,5.7
		c-2,3.4-2.4,7.2-3.1,10.9c-1.2,6.6-2.5,13.1-3.7,19.7c-0.2,0.9-0.4,1.3-1.5,1.3c-3.3,0-3.3,0-2.7-3.3c1.4-7.7,2.9-15.3,4.3-23
		c0.5-2.6,1.4-5.1,2.6-7.4c3.5-6.5,9.7-9.4,17.3-8.3c5.3,0.8,10,3.3,14.7,5.5c11,5.2,20.6,12.6,30.3,19.9c0.9,0.7,1.8,1.3,2.6,1.9
		c2.8,2.3,3.3,6.5,1,9.3c-2.3,2.7-6.2,3.2-9.1,1.2c-5.6-4.1-11.1-8.2-16.7-12.4C99.8,54.4,97,53,94.1,52.3z"/>
	<linearGradient id="SVGID_4_" gradientUnits="userSpaceOnUse" x1="5.5335" y1="83.4354" x2="34.333" y2="83.4354">
		<stop  offset="4.926108e-03" style="stop-color:#FFFFFF"/>
		<stop  offset="1" style="stop-color:#FFFFFF"/>
	</linearGradient>
	<path class="st3" d="M18.5,70.7c4.8,0,9.4,1.9,12.7,5.4c4,4.2,4.2,9.9,0.4,14.2c-4.5,5.1-10.4,7-17,5.4c-6-1.5-9.7-7.1-9-13.5
		c0.7-6.7,5.3-11.2,11.7-11.5C17.7,70.7,18.1,70.7,18.5,70.7z M19,91.8c3.4-0.1,6.6-1.5,9-4c2.5-2.7,2.5-5.9,0-8.6
		c-2.2-2.3-5.2-3.8-8.4-4c-5.5-0.6-9.4,2.7-9.6,7.9S13.2,91.8,19,91.8z"/>
	<linearGradient id="SVGID_5_" gradientUnits="userSpaceOnUse" x1="68.7699" y1="14.3566" x2="94.2554" y2="14.3566">
		<stop  offset="4.926108e-03" style="stop-color:#FFFFFF"/>
		<stop  offset="1" style="stop-color:#FFFFFF"/>
	</linearGradient>
	<path class="st4" d="M68.8,12.8c0-6.3,3.7-11.2,9.4-12.5C84.5-1,90.4,1.5,93,6.8c3.3,6.7,0.1,16.9-6.4,20.5
		c-3.8,2.2-8.6,1.7-11.8-1.2C70.9,22.8,68.8,17.9,68.8,12.8z M73.2,13.7c0.1,3.4,1.6,6.6,4.2,8.9c2.2,2.3,5.8,2.4,8.1,0.2
		c3.6-3.2,5.1-8.1,4-12.8c-1.2-3.9-4.9-6-9.3-5.4C75.8,5.1,73.2,8.3,73.2,13.7z"/>
	<linearGradient id="SVGID_6_" gradientUnits="userSpaceOnUse" x1="110.59" y1="69.5921" x2="117.61" y2="69.5921">
		<stop  offset="4.926108e-03" style="stop-color:#FFFFFF"/>
		<stop  offset="1" style="stop-color:#FFFFFF"/>
	</linearGradient>
	<path class="st5" d="M110.6,72.2c0.7-1.3,1.2-2.8,1.3-4.3c0.1-1.1,0.9-1.1,1.7-0.6c1.3,0.9,2.5,1.8,4,2.9L110.6,72.2z"/>
</g>
</svg>
