<svg xmlns="http://www.w3.org/2000/svg" width="51.323" height="70.077" viewBox="0 0 51.323 70.077">
  <path id="_4" data-name="4" d="M57.518,56.769,43.742,39.929,52.869,28.1a1.2,1.2,0,0,0,.094-.141C57.1,20.755,47.8,4.812,46.719,3.017l0,0a1.219,1.219,0,0,0-.263-.308,1.218,1.218,0,0,0-.117-.07,1.2,1.2,0,0,0-.222-.133l-.01,0h0a34.658,34.658,0,0,0-25.823,0h-.014a1.216,1.216,0,0,0-.182.11,1.362,1.362,0,0,0-.158.1,1.256,1.256,0,0,0-.262.306.032.032,0,0,0,0,.006c-1.076,1.795-10.383,17.738-6.244,24.94a1.2,1.2,0,0,0,.094.141l9.127,11.828L8.856,56.769A5.844,5.844,0,0,0,9.5,64.861L13.7,68.6a5.879,5.879,0,0,0,3.9,1.479q.271,0,.542-.026A5.882,5.882,0,0,0,22.238,67.8L33.188,53.61,44.134,67.8a5.887,5.887,0,0,0,4.093,2.253q.271.026.542.026a5.887,5.887,0,0,0,3.9-1.479l4.207-3.74a5.848,5.848,0,0,0,.643-8.092ZM26.779,19.2a19.2,19.2,0,0,1,12.814,0l-6.407,7.831Zm24.06,7.449-8.72,11.3L34.8,29l6.835-8.354a26.957,26.957,0,0,0,5.05-12.493C49.575,13.9,53.042,22.646,50.84,26.647ZM44.329,4.486l-.413,4.942-.026.136c-.063.294-.131.581-.2.864-.037.149-.07.3-.113.441-.066.248-.136.493-.211.728-.056.183-.112.364-.171.542s-.125.38-.188.563q-.129.365-.262.71c-.041.108-.082.22-.125.328a25.927,25.927,0,0,1-1.6,3.309,21.7,21.7,0,0,0-15.668,0,26,26,0,0,1-1.63-3.375c-.026-.066-.052-.136-.079-.2-.1-.269-.207-.548-.306-.835-.051-.147-.1-.3-.151-.45-.07-.211-.141-.435-.206-.658q-.092-.306-.178-.624c-.05-.181-.1-.368-.141-.553-.061-.251-.122-.5-.177-.759-.013-.055-.021-.113-.032-.17l-.41-4.934a32.175,32.175,0,0,1,22.29,0ZM20.267,66.278a3.369,3.369,0,0,1-4.905.46L11.154,63a3.358,3.358,0,0,1-.369-4.647L24.194,41.957l2.6,3.367,4.819,6.248ZM55.221,63l-4.208,3.741a3.369,3.369,0,0,1-4.905-.46L34.175,50.809h0L25.213,39.193h0L15.534,26.648c-2.2-4,1.267-12.748,4.157-18.493a26.941,26.941,0,0,0,5.05,12.491s0,0,0,0l7.482,9.139h0l8.96,10.954h0l14.4,17.6A3.359,3.359,0,0,1,55.22,63Z" transform="translate(-7.525 -0.003)" fill="#00295d"/>
</svg>
