<svg id="_5" data-name="5" xmlns="http://www.w3.org/2000/svg" width="71.961" height="71.987" viewBox="0 0 71.961 71.987">
  <path id="Shape" d="M2.767,45.86a8.715,8.715,0,0,0,1.244.72c.52.267,1.389.71,1.449,1.021a2.075,2.075,0,0,1-.141,1.213c-.179.384-.367.714-.528,1-.441.776-1.175,2.076-.066,2.981.257.24.706.586,1.115.9a3.021,3.021,0,0,0-.391,1.731,1.732,1.732,0,0,0,.712,1.181c.267.187.55.352.832.51.709.4.986.592,1.079.968a3.3,3.3,0,0,1-.12,1.439c-.069.321-.139.643-.179.96a7.146,7.146,0,0,0,.394,3.232,4.491,4.491,0,0,0,4.242,3.269,4.76,4.76,0,0,0,.985-.1,90.559,90.559,0,0,0,10.116-3.025c2.7,1.585,4.41,6.409,4.855,8.218a1.2,1.2,0,0,0,1.165.91L59.642,72.9a1.2,1.2,0,0,0,1.142-1.559,9.259,9.259,0,0,0-1.216-2.28,11.5,11.5,0,0,1-.778-1.3,22.891,22.891,0,0,1-1.355-3.416,40.267,40.267,0,0,1-1.418-7.094,19.618,19.618,0,0,1-.066-3.479c.078,0,.153.012.231.012A16.8,16.8,0,0,0,65.6,23.092a33.356,33.356,0,0,0-.917-4.6A19.991,19.991,0,0,0,57.51,8.168a34.872,34.872,0,0,0-9.995-5.68,1.019,1.019,0,0,0-.1-.027A16.676,16.676,0,0,0,40.591,1c-.24,0-.472.027-.709.036-.017,0-.03-.011-.047-.011-.98-.041-1.9-.035-2.823.012A79.858,79.858,0,0,0,25.409,2.7C20,3.783,16.064,5.678,13.384,8.516a23.005,23.005,0,0,0-4.812,7.851A32.321,32.321,0,0,0,7.509,20.2l-.12.5A15.432,15.432,0,0,1,6.36,23.435c-.24.546-.487,1.091-.7,1.661a4.046,4.046,0,0,0-.315,2,4.583,4.583,0,0,0,1.745,2.681c.586.538.972.918.976,1.247a2.092,2.092,0,0,1-.2.522,46.362,46.362,0,0,1-5.248,8.534c-.868,1.058-1.778,2.292-1.587,3.524A3.686,3.686,0,0,0,2.767,45.86ZM70.58,36.992a14.412,14.412,0,0,1-14.393,14.4c-.408,0-.808-.027-1.208-.061h-.019A14.261,14.261,0,0,1,42.031,34.52,16.62,16.62,0,0,0,46.6,33.465a3.6,3.6,0,1,0,5.257-3.239,16.8,16.8,0,0,0,4.819-7.6A14.4,14.4,0,0,1,70.584,36.991ZM40.591,3.4a14.4,14.4,0,1,1-14.4,14.4,14.4,14.4,0,0,1,14.4-14.4Zm10.8,29.992a1.2,1.2,0,1,1-1.2-1.2A1.2,1.2,0,0,1,51.388,33.392Zm10.987-14.25c.222.782.409,1.617.574,2.486a16.689,16.689,0,0,0-5.759-1.382A16.305,16.305,0,0,0,55.072,9.329c.321.24.642.48.96.73a17.408,17.408,0,0,1,6.343,9.083ZM4.509,41.55A48.383,48.383,0,0,0,10,32.634a3.555,3.555,0,0,0,.463-1.619,4.191,4.191,0,0,0-1.753-3c-.48-.445-.943-.865-1-1.253a2.238,2.238,0,0,1,.186-.823c.2-.514.421-1.018.648-1.521a17.541,17.541,0,0,0,1.175-3.165l.12-.51a30.031,30.031,0,0,1,.982-3.545,20.583,20.583,0,0,1,4.3-7.03c2.3-2.43,5.908-4.148,10.754-5.11,1.543-.315,3.225-.634,4.963-.913a16.765,16.765,0,0,0,8.745,30.4,17.042,17.042,0,0,0-.2,2.45A16.8,16.8,0,0,0,53.534,53.559a21.911,21.911,0,0,0,.1,3.986,42.618,42.618,0,0,0,1.509,7.522,25.054,25.054,0,0,0,1.492,3.755,13.149,13.149,0,0,0,.931,1.568l.079.12-27.212.075a19.127,19.127,0,0,0-4.223-7.662l1.127-.394c.782-.273,1.372-.48,1.679-.577,5.144-1.623,7.711-3.959,7.641-6.958a1.2,1.2,0,0,0-2.4.057c.029,1.235-.982,3.035-5.972,4.611-.321.1-.928.315-1.737.6-.9.315-2.048.72-3.32,1.148a93.232,93.232,0,0,1-10.316,3.116,2.133,2.133,0,0,1-2.476-1.6,4.789,4.789,0,0,1-.282-2.143c.033-.252.086-.5.144-.754a5.253,5.253,0,0,0,.1-2.553,3.982,3.982,0,0,0-2.22-2.452c-.086-.047-.167-.1-.249-.143A4.488,4.488,0,0,1,8.4,54.14a1.2,1.2,0,0,0-.231-1.7c-.288-.213-.967-.72-1.463-1.121.057-.1.12-.219.18-.322.189-.331.4-.72.613-1.159a4.488,4.488,0,0,0,.321-2.685C7.53,45.686,6.127,44.969,5.1,44.446a6.722,6.722,0,0,1-.988-.574,5.1,5.1,0,0,1-.72-.582C3.4,43.11,3.594,42.665,4.509,41.55Z" transform="translate(-0.998 -0.997)" fill="#00295d"/>
  <path id="Shape-2" data-name="Shape" d="M11.12,22.066a1.2,1.2,0,0,0,1.439-.9l.12-.525a26.8,26.8,0,0,1,.8-2.959,15.818,15.818,0,0,1,3.292-5.4A12.546,12.546,0,0,1,22.3,9.25a1.2,1.2,0,0,0-.7-2.293,14.868,14.868,0,0,0-6.575,3.686,18.2,18.2,0,0,0-3.8,6.219,28.389,28.389,0,0,0-.885,3.243l-.12.52a1.2,1.2,0,0,0,.894,1.442Z" transform="translate(0.84 0.179)" fill="#00295d"/>
  <circle id="Oval" cx="1.199" cy="1.199" r="1.199" transform="translate(9.6 23.997)" fill="#00295d"/>
  <path id="Shape-3" data-name="Shape" d="M29.6,16.2A3.6,3.6,0,1,0,26,12.6a3.6,3.6,0,0,0,3.6,3.6Zm0-4.8a1.2,1.2,0,1,1-1.2,1.2,1.2,1.2,0,0,1,1.2-1.2Z" transform="translate(3.996 0.6)" fill="#00295d"/>
  <path id="Shape-4" data-name="Shape" d="M39.6,16.2A3.6,3.6,0,1,0,36,12.6a3.6,3.6,0,0,0,3.6,3.6Zm0-4.8a1.2,1.2,0,1,1-1.2,1.2,1.2,1.2,0,0,1,1.2-1.2Z" transform="translate(5.993 0.6)" fill="#00295d"/>
  <path id="Shape-5" data-name="Shape" d="M30.4,18.2a1.2,1.2,0,1,0-2.4,0,7.2,7.2,0,1,0,14.4,0,1.2,1.2,0,0,0-2.4,0,4.8,4.8,0,1,1-9.6,0Z" transform="translate(4.396 2.199)" fill="#00295d"/>
  <path id="Shape-6" data-name="Shape" d="M52.6,32.2A3.6,3.6,0,1,0,49,28.6a3.6,3.6,0,0,0,3.6,3.6Zm0-4.8a1.2,1.2,0,1,1-1.2,1.2A1.2,1.2,0,0,1,52.6,27.4Z" transform="translate(8.589 3.796)" fill="#00295d"/>
  <path id="Shape-7" data-name="Shape" d="M48.2,33A7.2,7.2,0,0,0,41,40.2a1.2,1.2,0,0,0,2.4,0,4.8,4.8,0,0,1,9.6,0,1.2,1.2,0,1,0,2.4,0A7.2,7.2,0,0,0,48.2,33Z" transform="translate(6.991 5.394)" fill="#00295d"/>
</svg>
