<svg xmlns="http://www.w3.org/2000/svg" width="79.299" height="79.146" viewBox="0 0 79.299 79.146">
  <path id="_7" data-name="7" d="M.34,79.3a1.163,1.163,0,0,0,1.644,0L15.6,65.689l.68.68a2.866,2.866,0,0,0,2.941.68l3.905-1.343a5.2,5.2,0,0,0,6.679-.577L61.488,33.447l.45.45a2.987,2.987,0,0,0,4.219,0l1.037-1.037a2.986,2.986,0,0,0,0-4.219l-3.219-3.218,2.509-2.51a1.161,1.161,0,0,0-1.638-1.638l-2.509,2.509-6.307-6.31L64.57,8.931l6.3,6.3-2.2,2.2a1.161,1.161,0,0,0,1.638,1.638l2.2-2.2.66.66a2.982,2.982,0,0,0,4.219,0L78.428,16.5a2.986,2.986,0,0,0,0-4.219L75.115,8.966a1.161,1.161,0,0,0-1.638,1.644l3.313,3.312a.661.661,0,0,1,0,.933l-1.038,1.039a.659.659,0,0,1-.932,0L63.91,4.985a.661.661,0,0,1,0-.932l1.037-1.037a.659.659,0,0,1,.932,0L69.643,6.78a1.161,1.161,0,0,0,1.638-1.644L67.522,1.373a2.981,2.981,0,0,0-4.219,0L62.267,2.411a2.986,2.986,0,0,0,0,4.219l.66.66-8.543,8.543-3.218-3.219a2.982,2.982,0,0,0-4.219,0L45.911,13.65a2.981,2.981,0,0,0,0,4.219l.449.45L14.677,50a5.209,5.209,0,0,0-.493,6.8l-1.335,3.881a2.868,2.868,0,0,0,.68,2.942l.429.428L.34,77.661a1.163,1.163,0,0,0,0,1.644ZM47.553,15.292l1.037-1.037a.659.659,0,0,1,.932,0L65.55,30.283a.661.661,0,0,1,0,.932l-1.037,1.037a.66.66,0,0,1-.932,0L47.553,16.224a.658.658,0,0,1,0-.932ZM48,19.96,59.845,31.8l-1.97,1.969L46.034,21.929ZM16.32,51.643,44.392,23.572,56.233,35.414l-2.67,2.67-2.057-2.057a1.161,1.161,0,1,0-1.644,1.638l2.057,2.057L49.148,42.5l-2.057-2.057a1.161,1.161,0,0,0-1.644,1.638L47.5,44.138l-2.771,2.78L42.676,44.86A1.161,1.161,0,1,0,41.032,46.5l2.057,2.057-2.77,2.773-2.057-2.057a1.161,1.161,0,1,0-1.638,1.638l2.057,2.057L35.9,55.746l-2.057-2.057a1.161,1.161,0,1,0-1.638,1.638l2.051,2.057-2.768,2.775L29.434,58.1A1.161,1.161,0,0,0,27.8,59.746L29.853,61.8l-1.692,1.679a2.883,2.883,0,0,1-4.078,0L16.32,55.719a2.883,2.883,0,0,1,0-4.08Zm-1.274,9.79.947-2.751,5.224,5.224-2.752.942a.529.529,0,0,1-.546-.126L15.167,61.97a.531.531,0,0,1-.126-.546Zm0,0" transform="translate(0 -0.498)" fill="#00295d"/>
</svg>
