<svg xmlns="http://www.w3.org/2000/svg" width="75.47" height="84.564" viewBox="0 0 75.47 84.564">
  <g id="_9" data-name="9" transform="translate(0.64 0.5)">
    <path id="Path_1096" data-name="Path 1096" d="M84.531,3.85A36.117,36.117,0,0,0,68.046,0C49.966,0,32.267,12.528,37.09,33.314l-3.174,3.845L28.3,47.439l5.463,4.343-.229,7.3,2.183,3.129s-2.6,9.766,1.375,11.15a34.056,34.056,0,0,0,10.922,1.628,39.916,39.916,0,0,0,5.218-.313l.435,8.885H90.536s-3.647-18.416,1.892-26.237S116.047,20.074,84.531,3.85Zm-16.2,76.227H56.981l-.273-5.572-.182-3.825-3.793.553a37.262,37.262,0,0,1-4.72.278,31.364,31.364,0,0,1-9.434-1.318,9.411,9.411,0,0,1-.113-3.629,26.071,26.071,0,0,1,.616-3.456l.116-.436H59.6l-.9.375L62.215,65.4l-1.84,1.838,4.151.828-1,2.4,4.151-.821v2.6l.658-.441ZM64.856,60.929a5.223,5.223,0,1,1,5.223,5.222,5.223,5.223,0,0,1-5.223-5.222Zm21.07,12.582c.1,2.471.321,4.75.551,6.566H71.819V71.4l.375.9,2.354-3.514,1.841,1.838.826-4.151,2.4.995L78.8,63.324h2.6l-2.349-3.515,2.4-.995-3.517-2.36,1.838-1.838-4.147-.821.995-2.4-4.151.821v-2.6L68.96,51.955l-1-2.4L65.61,53.066l-1.84-1.841-.83,4.151-2.4-.995.821,4.151h-2.6l.439.658H37.854l-.8-1.15.19-6.149.055-1.747-1.368-1.086-3.168-2.523,4.05-7.416,2.966-3.587,1.1-1.329-.389-1.676a23.881,23.881,0,0,1-.227-10.562,19.977,19.977,0,0,1,3.919-8.191A26.194,26.194,0,0,1,54.446,6.206a34.882,34.882,0,0,1,13.6-2.726A32.635,32.635,0,0,1,82.94,6.946a35.158,35.158,0,0,1,10.924,8.3,21.964,21.964,0,0,1,4.626,8.976c1.3,5.348.658,11.475-1.926,18.213A60.821,60.821,0,0,1,89.59,55.308C86.836,59.195,85.605,65.317,85.926,73.511Z" transform="translate(-28.3 0.001)" fill="#00295d" stroke="#ddfbfd" stroke-width="1"/>
  </g>
</svg>
