<svg xmlns="http://www.w3.org/2000/svg" width="14.331" height="10.748" viewBox="0 0 14.331 10.748">
  <path id="envelope-solid_1_" data-name="envelope-solid (1)" d="M14.059,67.549a.169.169,0,0,1,.272.132V73.4a1.344,1.344,0,0,1-1.344,1.344H1.344A1.344,1.344,0,0,1,0,73.4V67.683a.167.167,0,0,1,.272-.132c.627.487,1.458,1.106,4.313,3.18a5.007,5.007,0,0,0,2.581,1.332c1,.008,2.015-.918,2.583-1.332C12.6,68.658,13.432,68.036,14.059,67.549ZM7.165,71.165c.649.011,1.584-.817,2.054-1.159,3.714-2.7,4-2.931,4.853-3.6a.67.67,0,0,0,.258-.529v-.532A1.344,1.344,0,0,0,12.987,64H1.344A1.344,1.344,0,0,0,0,65.344v.532a.674.674,0,0,0,.258.529c.856.669,1.139.907,4.853,3.6C5.581,70.348,6.516,71.177,7.165,71.165Z" transform="translate(0 -64)" fill="#fff" opacity="0.8"/>
</svg>
