<svg xmlns="http://www.w3.org/2000/svg" width="60" height="60" viewBox="0 0 60 60">
  <g id="Group_558" data-name="Group 558" transform="translate(-916 -723)">
    <g id="Group_301" data-name="Group 301" transform="translate(908.415 722.867)">
      <rect id="Rectangle_107" data-name="Rectangle 107" width="60" height="60" rx="30" transform="translate(7.585 0.133)" fill="#d3fbff"/>
    </g>
    <path id="edit-regular" d="M15.357,13.094l1.222-1.222a.307.307,0,0,1,.523.218v5.55a1.833,1.833,0,0,1-1.832,1.832H1.832A1.833,1.833,0,0,1,0,17.64V4.2A1.833,1.833,0,0,1,1.832,2.371h10.44a.307.307,0,0,1,.218.523L11.268,4.115a.3.3,0,0,1-.218.088H1.832V17.64H15.269V13.307A.3.3,0,0,1,15.357,13.094Zm5.978-7.7L11.31,15.414,7.86,15.8a1.577,1.577,0,0,1-1.741-1.741L6.5,10.6,16.525.581a2.228,2.228,0,0,1,3.157,0L21.331,2.23a2.236,2.236,0,0,1,0,3.161ZM17.563,6.57,15.345,4.352l-7.092,7.1-.279,2.493,2.493-.279Zm2.474-3.042L18.388,1.878a.4.4,0,0,0-.565,0l-1.18,1.18,2.218,2.218L20.04,4.1A.407.407,0,0,0,20.037,3.528Z" transform="translate(937 743.075)" fill="#00285c"/>
  </g>
</svg>
