<svg xmlns="http://www.w3.org/2000/svg" width="30.506" height="40.674" viewBox="0 0 30.506 40.674">
  <path id="icon" d="M29.385,7.784,22.722,1.12A3.813,3.813,0,0,0,20.03,0H3.812A3.826,3.826,0,0,0,0,3.82V36.862a3.814,3.814,0,0,0,3.812,3.812H26.693a3.814,3.814,0,0,0,3.812-3.812V10.484a3.831,3.831,0,0,0-1.12-2.7ZM20.339,2.589a1.25,1.25,0,0,1,.588.334l6.664,6.664a1.25,1.25,0,0,1,.334.588H20.339Zm1.269,35.544H8.9V35.658a2.527,2.527,0,0,1,2.641-2.61c.989,0,1.652.555,3.714.555,2.026,0,2.746-.555,3.714-.555a2.527,2.527,0,0,1,2.641,2.61v2.475Zm6.356-1.271a1.275,1.275,0,0,1-1.271,1.271H24.15V35.658a5.318,5.318,0,0,0-.906-2.977,5.1,5.1,0,0,0-4.277-2.175c-1.546,0-1.935.555-3.714.555s-2.166-.555-3.714-.555a5.1,5.1,0,0,0-4.276,2.175,5.311,5.311,0,0,0-.907,2.977v2.475H3.812a1.275,1.275,0,0,1-1.271-1.271V3.82A1.281,1.281,0,0,1,3.812,2.542H17.8V10.81a1.9,1.9,0,0,0,1.907,1.9h8.26ZM8.9,22.879a6.355,6.355,0,1,0,6.355-6.355A6.356,6.356,0,0,0,8.9,22.879Zm10.169,0a3.813,3.813,0,1,1-3.813-3.813A3.817,3.817,0,0,1,19.066,22.879Z" fill="#fff"/>
</svg>
