<svg xmlns="http://www.w3.org/2000/svg" width="403.035" height="176.767" viewBox="0 0 403.035 176.767">
  <g id="logo" transform="translate(-12333 -415.6)">
    <g id="Group_528" data-name="Group 528" transform="translate(0 146)">
      <g id="Group_526" data-name="Group 526" transform="translate(12274.347 153.941)">
        <path id="Path_149" data-name="Path 149" d="M93.456,257.669l-.433-23.68L85.8,250.505l-6.595-.052L71.381,233.82l.424,23.68-12.328-.1-.824-44.931,13.479.1,10.129,21.207,9.319-21.055,13.417.1.787,44.93Z" transform="translate(0 -0.414)" fill="#fff"/>
        <path id="Path_150" data-name="Path 150" d="M133.78,258.379a21.931,21.931,0,0,1-9.342-2.132,23.832,23.832,0,0,1-7.153-5.132,24.415,24.415,0,0,1-4.759-7.354,23.447,23.447,0,0,1-1.786-8.482,21.716,21.716,0,0,1,1.55-8.534,22.307,22.307,0,0,1,4.659-7.222,22.874,22.874,0,0,1,7.192-4.934,22.157,22.157,0,0,1,9.18-1.8,21.9,21.9,0,0,1,9.34,2.122,23.231,23.231,0,0,1,7.132,5.266,24.4,24.4,0,0,1,4.676,7.266,23.768,23.768,0,0,1,1.76,8.443,22.953,22.953,0,0,1-6.057,15.677,21.989,21.989,0,0,1-7.149,4.978,21.569,21.569,0,0,1-9.232,1.84Zm-10.6-22.884a15.83,15.83,0,0,0,.713,4.417,11.946,11.946,0,0,0,2.026,3.763,9.385,9.385,0,0,0,3.247,2.68,9.739,9.739,0,0,0,4.592,1.07,9.454,9.454,0,0,0,4.619-1.015,9.031,9.031,0,0,0,3.158-2.7A11.248,11.248,0,0,0,143.3,239.9a17.281,17.281,0,0,0,.532-4.361,15.79,15.79,0,0,0-.722-4.394,10.958,10.958,0,0,0-2.037-3.756,10.252,10.252,0,0,0-3.276-2.622,9.816,9.816,0,0,0-4.542-1.015,9.39,9.39,0,0,0-4.569.974,8.919,8.919,0,0,0-3.148,2.654,10.709,10.709,0,0,0-1.8,3.8,15.663,15.663,0,0,0-.558,4.331Z" transform="translate(-0.082 -1.724)" fill="#fff"/>
        <path id="Path_151" data-name="Path 151" d="M199.966,246.994a9.619,9.619,0,0,1-4.605,8.757,16.278,16.278,0,0,1-5.113,2.014,29.015,29.015,0,0,1-6.17.61l-22.139-.173-.8-44.937,26.086.2a8.869,8.869,0,0,1,4.246,1.045,10.8,10.8,0,0,1,3.284,2.664,12.881,12.881,0,0,1,2.9,7.889,11.885,11.885,0,0,1-1.509,6.027,9.668,9.668,0,0,1-4.744,4.3,12.261,12.261,0,0,1,6.141,4.016,12.11,12.11,0,0,1,2.423,7.582M173.68,223.87l.11,6.879,8.419.066a4.026,4.026,0,0,0,2.282-.656,3.079,3.079,0,0,0,1.017-2.792,3.506,3.506,0,0,0-.945-2.637,3.115,3.115,0,0,0-2.049-.791Zm13.708,20.474a4.515,4.515,0,0,0-.937-2.768,2.9,2.9,0,0,0-2.3-1.1l-10.289-.08.158,7.52,9.737.076a3.5,3.5,0,0,0,2.612-.811,3.453,3.453,0,0,0,1-2.827Z" transform="translate(-0.481 -1.206)" fill="#fff"/>
        <path id="Path_152" data-name="Path 152" d="M205.611,258.542l-.8-44.93,12.333.1.8,44.93Z" transform="translate(-0.156 -1.553)" fill="#fff"/>
        <path id="Path_153" data-name="Path 153" d="M227.106,258.717l-.77-44.948,17.264.134a25.406,25.406,0,0,1,9.839,1.849,20.548,20.548,0,0,1,11.616,12.014,26.114,26.114,0,0,1,1.616,8.723,25.134,25.134,0,0,1-1.347,9.238,19.124,19.124,0,0,1-11.537,11.545,24.786,24.786,0,0,1-9.282,1.554Zm27.029-22.4a15.486,15.486,0,0,0-.791-4.767,11.037,11.037,0,0,0-2.022-3.689,9.557,9.557,0,0,0-3.252-2.39,10.388,10.388,0,0,0-4.255-.9l-4.921-.038.4,23.441,4.931.039a9.939,9.939,0,0,0,4.287-.881,8.336,8.336,0,0,0,3.165-2.436,10.725,10.725,0,0,0,1.885-3.71,15.988,15.988,0,0,0,.57-4.6Z" transform="translate(-3.683 -1.71)" fill="#fff"/>
        <path id="Path_154" data-name="Path 154" d="M292.7,259.617a21.905,21.905,0,0,1-9.338-2.132,23.731,23.731,0,0,1-7.243-5.219,24.157,24.157,0,0,1-4.747-7.352,23.16,23.16,0,0,1-1.884-8.4,22.325,22.325,0,0,1,6.3-15.751,22.844,22.844,0,0,1,7.191-4.944,22.32,22.32,0,0,1,9.179-1.792,21.883,21.883,0,0,1,9.336,2.122,23.786,23.786,0,0,1,7.18,5.254,24.56,24.56,0,0,1,4.707,7.374,23.2,23.2,0,0,1,1.761,8.444,20.778,20.778,0,0,1-1.568,8.5,22.161,22.161,0,0,1-11.762,12.157,21.689,21.689,0,0,1-9.121,1.743Zm-10.6-22.884a15.281,15.281,0,0,0,.725,4.417,11.5,11.5,0,0,0,2.022,3.763,9.341,9.341,0,0,0,3.23,2.681,9.994,9.994,0,0,0,4.608,1.069,9.4,9.4,0,0,0,4.6-1.024,9.225,9.225,0,0,0,3.169-2.708,11.885,11.885,0,0,0,1.756-3.807,15.886,15.886,0,0,0,.52-4.354,15.717,15.717,0,0,0-.706-4.4A11.346,11.346,0,0,0,300,228.6a10.307,10.307,0,0,0-3.27-2.611,10.022,10.022,0,0,0-4.536-1.028,9.661,9.661,0,0,0-4.573.978,9.373,9.373,0,0,0-3.147,2.672,11.676,11.676,0,0,0-1.81,3.779,15.735,15.735,0,0,0-.573,4.338Z" transform="translate(-1.832 -2.961)" fill="#fff"/>
        <path id="Path_155" data-name="Path 155" d="M317.988,236.573a21.843,21.843,0,0,1,5.8-15.213,22.123,22.123,0,0,1,16.785-6.961,23.159,23.159,0,0,1,11.31,2.782,18.192,18.192,0,0,1,7.248,7.187L349.824,231a8.223,8.223,0,0,0-1.73-2.727,8.974,8.974,0,0,0-2.348-1.745,11.2,11.2,0,0,0-2.636-.9,14.651,14.651,0,0,0-2.635-.265,9.435,9.435,0,0,0-4.574,1,8.966,8.966,0,0,0-3.1,2.694,11.444,11.444,0,0,0-1.787,3.788,15.05,15.05,0,0,0,.238,8.695,12.2,12.2,0,0,0,2.034,3.824,10.039,10.039,0,0,0,3.309,2.646,9.479,9.479,0,0,0,4.353,1.024,12.686,12.686,0,0,0,2.584-.264,9.661,9.661,0,0,0,2.547-.929,8.875,8.875,0,0,0,2.185-1.685,7.191,7.191,0,0,0,1.494-2.561l10.251,6.079a12.5,12.5,0,0,1-3.008,4.417,18.6,18.6,0,0,1-4.593,3.257,25.247,25.247,0,0,1-11.45,2.66,20.788,20.788,0,0,1-9.184-2.129,23.337,23.337,0,0,1-7.251-5.332,24.891,24.891,0,0,1-4.8-7.5A23.242,23.242,0,0,1,318,236.573Z" transform="translate(-0.331 -3.329)" fill="#fff"/>
      </g>
      <g id="Group_530" data-name="Group 530" transform="translate(0 -30)">
        <path id="Subtraction_17" data-name="Subtraction 17" d="M25.348,48.063a3.338,3.338,0,0,1-1.713-.473L2.553,38.6a4.306,4.306,0,0,1-2.4-2.274A2.1,2.1,0,0,1,.2,34.637L14.217,1.5A3.366,3.366,0,0,1,18.758.485L39.849,9.461a4.4,4.4,0,0,1,2.31,2.31,2.122,2.122,0,0,1,.02,1.655L28.133,46.571A3.325,3.325,0,0,1,25.348,48.063ZM13.938,17.482a1.138,1.138,0,0,0-1.06.716L11.2,22.1a1.235,1.235,0,0,0,.652,1.616L16.741,25.8,14.513,31.06a.868.868,0,0,0,.466,1.148l4.51,1.894a.842.842,0,0,0,.352.077.832.832,0,0,0,.785-.532l2.236-5.241,5,2.132a1.247,1.247,0,0,0,.43.076,1.332,1.332,0,0,0,1.191-.785l1.632-3.846a.1.1,0,0,0,.039-.1,1.188,1.188,0,0,0-.691-1.526l-4.982-2.1,2.238-5.251a.907.907,0,0,0-.494-1.163l-4.488-1.879a.911.911,0,0,0-.372-.081.893.893,0,0,0-.807.535l-2.223,5.247L14.447,17.6a.071.071,0,0,0-.032-.015.244.244,0,0,1-.065-.028A1.1,1.1,0,0,0,13.938,17.482Z" transform="translate(12619.887 299.599) rotate(7)" fill="#fff"/>
        <path id="Path_159" data-name="Path 159" d="M375.319,185.289c-11.538,26.919,2.051,90.5-9.335,98.641-.428.355-1.22.683-.4.793,29.245-3.845,36.13-16.586,47.437-32.677,7.806-11.105,28.63-15.3,41.551-10.178-16.9-22.347-31.2-22.327-50.326-24.5-13.6-1.524-27.487-18.184-28.922-32.074" transform="translate(12281.468 156.477)" fill="#fff"/>
        <path id="Path_160" data-name="Path 160" d="M424.262,198.826a13.345,13.345,0,1,1-5.747-8.477,13.35,13.35,0,0,1,5.747,8.477" transform="translate(12279.039 150.743)" fill="#fff"/>
        <path id="Path_161" data-name="Path 161" d="M421.412,245.878a39.256,39.256,0,0,0-12.349,9.906c-3.342,4.124-5.817,8.424-8.7,12.3,13.893-2.691,31.388,1.7,40.848,10.541.506.424,1.094,1.288,1.019.313-5.714-16.624-12.661-26.44-20.817-33.061" transform="translate(12288.833 162.12)" fill="#fff"/>
      </g>
      <path id="Path_162" data-name="Path 162" d="M-139.052,5.367a11.06,11.06,0,0,1-5.4-1.314A9.713,9.713,0,0,1-148.223.421a9.967,9.967,0,0,1-1.371-5.172,9.967,9.967,0,0,1,1.371-5.172,9.713,9.713,0,0,1,3.773-3.631,11.06,11.06,0,0,1,5.4-1.314,11,11,0,0,1,5.37,1.314,9.643,9.643,0,0,1,3.759,3.617,10.025,10.025,0,0,1,1.357,5.186A10.025,10.025,0,0,1-129.924.435a9.643,9.643,0,0,1-3.759,3.617A11,11,0,0,1-139.052,5.367Zm0-2.515a7.772,7.772,0,0,0,3.914-.989A7.257,7.257,0,0,0-132.4-.865a7.631,7.631,0,0,0,1-3.886,7.631,7.631,0,0,0-1-3.886,7.257,7.257,0,0,0-2.741-2.727,7.772,7.772,0,0,0-3.914-.989,7.929,7.929,0,0,0-3.942.989,7.2,7.2,0,0,0-2.77,2.727,7.631,7.631,0,0,0-1,3.886,7.631,7.631,0,0,0,1,3.886,7.2,7.2,0,0,0,2.77,2.727A7.929,7.929,0,0,0-139.052,2.851Zm23.117,2.515a13.539,13.539,0,0,1-4.31-.692,8.85,8.85,0,0,1-3.264-1.795l1.046-2.2a8.659,8.659,0,0,0,2.9,1.653,10.643,10.643,0,0,0,3.631.636,6.541,6.541,0,0,0,3.674-.834,2.57,2.57,0,0,0,1.215-2.218,2.186,2.186,0,0,0-.664-1.653,4.441,4.441,0,0,0-1.639-.975q-.975-.339-2.755-.763a28.4,28.4,0,0,1-3.6-1.074,5.957,5.957,0,0,1-2.346-1.653,4.415,4.415,0,0,1-.975-3.01,5.093,5.093,0,0,1,.834-2.854,5.727,5.727,0,0,1,2.529-2.035,10.26,10.26,0,0,1,4.211-.763,13.325,13.325,0,0,1,3.448.452,9.173,9.173,0,0,1,2.911,1.3l-.933,2.261a10.232,10.232,0,0,0-2.656-1.2,9.915,9.915,0,0,0-2.77-.41,6.1,6.1,0,0,0-3.6.876,2.683,2.683,0,0,0-1.2,2.261,2.163,2.163,0,0,0,.678,1.653,4.705,4.705,0,0,0,1.682.989,26.274,26.274,0,0,0,2.727.749,27.625,27.625,0,0,1,3.589,1.074,6.042,6.042,0,0,1,2.331,1.639,4.317,4.317,0,0,1,.975,2.967,5.051,5.051,0,0,1-.848,2.84A5.679,5.679,0,0,1-111.7,4.618,10.638,10.638,0,0,1-115.935,5.367Zm22.043-20.008A9.164,9.164,0,0,1-87.844-12.8a6.23,6.23,0,0,1,2.2,5.059,6.23,6.23,0,0,1-2.2,5.059A9.164,9.164,0,0,1-93.892-.851h-4.889V5.14h-2.826V-14.642Zm-.085,11.332a6.378,6.378,0,0,0,4.1-1.145,3.991,3.991,0,0,0,1.413-3.292,3.991,3.991,0,0,0-1.413-3.292,6.378,6.378,0,0,0-4.1-1.145h-4.8v8.874Zm29.391,5.991V5.14H-78.942V-14.642h13.961v2.459H-76.116v6.076H-66.2v2.4h-9.919V2.682Zm7.122-17.324h8.337A12.053,12.053,0,0,1-43.56-13.4a9.136,9.136,0,0,1,3.773,3.49,9.86,9.86,0,0,1,1.342,5.158A9.86,9.86,0,0,1-39.787.407,9.136,9.136,0,0,1-43.56,3.9,12.053,12.053,0,0,1-49.127,5.14h-8.337ZM-49.3,2.682a9.152,9.152,0,0,0,4.225-.933A6.742,6.742,0,0,0-42.26-.865a7.52,7.52,0,0,0,.989-3.886,7.52,7.52,0,0,0-.989-3.886,6.742,6.742,0,0,0-2.812-2.614,9.153,9.153,0,0,0-4.225-.933h-5.341V2.682ZM-19.256.195H-29.769L-31.945,5.14h-2.911L-25.9-14.642h2.8L-14.112,5.14H-17.08Zm-.989-2.261-4.267-9.693-4.267,9.693ZM-8.63-14.642H-5.8V2.682H4.907V5.14H-8.63ZM25.057,2.682V5.14H10.7V-14.642H24.661v2.459H13.527v6.076h9.919v2.4H13.527V2.682ZM54.928.195H44.415L42.239,5.14H39.329l8.959-19.782h2.8L60.072,5.14H57.1Zm-.989-2.261-4.267-9.693L45.4-2.066ZM75.7-14.642h8.337A12.053,12.053,0,0,1,89.6-13.4a9.136,9.136,0,0,1,3.773,3.49,9.86,9.86,0,0,1,1.342,5.158A9.86,9.86,0,0,1,93.377.407,9.136,9.136,0,0,1,89.6,3.9,12.053,12.053,0,0,1,84.037,5.14H75.7ZM83.867,2.682a9.153,9.153,0,0,0,4.225-.933A6.742,6.742,0,0,0,90.9-.865a7.52,7.52,0,0,0,.989-3.886A7.52,7.52,0,0,0,90.9-8.637a6.742,6.742,0,0,0-2.812-2.614,9.153,9.153,0,0,0-4.225-.933H78.526V2.682Zm26.65,2.685a11.06,11.06,0,0,1-5.4-1.314A9.713,9.713,0,0,1,101.346.421a9.967,9.967,0,0,1-1.371-5.172,9.967,9.967,0,0,1,1.371-5.172,9.713,9.713,0,0,1,3.773-3.631,11.06,11.06,0,0,1,5.4-1.314,11,11,0,0,1,5.37,1.314,9.643,9.643,0,0,1,3.759,3.617A10.025,10.025,0,0,1,121-4.751,10.025,10.025,0,0,1,119.645.435a9.643,9.643,0,0,1-3.759,3.617A11,11,0,0,1,110.517,5.367Zm0-2.515a7.772,7.772,0,0,0,3.914-.989,7.257,7.257,0,0,0,2.741-2.727,7.631,7.631,0,0,0,1-3.886,7.631,7.631,0,0,0-1-3.886,7.257,7.257,0,0,0-2.741-2.727,7.772,7.772,0,0,0-3.914-.989,7.929,7.929,0,0,0-3.942.989,7.2,7.2,0,0,0-2.77,2.727,7.631,7.631,0,0,0-1,3.886,7.631,7.631,0,0,0,1,3.886,7.2,7.2,0,0,0,2.77,2.727A7.929,7.929,0,0,0,110.517,2.851ZM146.21,5.14l-.028-14.413-7.15,12.011h-1.3l-7.15-11.926V5.14h-2.713V-14.642h2.317l8.252,13.9,8.139-13.9h2.317l.028,19.782ZM157.4-14.642h2.826V5.14H157.4Zm20.15,20.008A10.921,10.921,0,0,1,172.2,4.052,9.669,9.669,0,0,1,168.451.435a10.026,10.026,0,0,1-1.356-5.186,10.026,10.026,0,0,1,1.356-5.186,9.643,9.643,0,0,1,3.759-3.617,11,11,0,0,1,5.37-1.314,11.207,11.207,0,0,1,4.239.777,8.676,8.676,0,0,1,3.278,2.3l-1.837,1.78a7.37,7.37,0,0,0-5.567-2.346,8.065,8.065,0,0,0-3.985.989,7.173,7.173,0,0,0-2.784,2.727,7.631,7.631,0,0,0-1,3.886,7.631,7.631,0,0,0,1,3.886,7.173,7.173,0,0,0,2.784,2.727,8.065,8.065,0,0,0,3.985.989A7.385,7.385,0,0,0,183.26.478l1.837,1.78A8.791,8.791,0,0,1,181.8,4.575,11.137,11.137,0,0,1,177.551,5.367Zm14.13-20.008h2.826V5.14h-2.826Zm11.3,0h2.826V2.682h10.711V5.14H202.986Zm19.33,0h2.826V5.14h-2.826ZM242.55,5.367a11.06,11.06,0,0,1-5.4-1.314A9.713,9.713,0,0,1,233.38.421a9.967,9.967,0,0,1-1.371-5.172,9.967,9.967,0,0,1,1.371-5.172,9.713,9.713,0,0,1,3.773-3.631,11.06,11.06,0,0,1,5.4-1.314,11,11,0,0,1,5.37,1.314,9.643,9.643,0,0,1,3.759,3.617,10.025,10.025,0,0,1,1.357,5.186A10.025,10.025,0,0,1,251.679.435a9.643,9.643,0,0,1-3.759,3.617A11,11,0,0,1,242.55,5.367Zm0-2.515a7.772,7.772,0,0,0,3.914-.989,7.257,7.257,0,0,0,2.741-2.727,7.631,7.631,0,0,0,1-3.886,7.631,7.631,0,0,0-1-3.886,7.257,7.257,0,0,0-2.741-2.727,7.772,7.772,0,0,0-3.914-.989,7.929,7.929,0,0,0-3.942.989,7.2,7.2,0,0,0-2.77,2.727,7.631,7.631,0,0,0-1,3.886,7.631,7.631,0,0,0,1,3.886,7.2,7.2,0,0,0,2.77,2.727A7.929,7.929,0,0,0,242.55,2.851Z" transform="translate(12483 441)" fill="#fff"/>
    </g>
  </g>
</svg>
