<svg xmlns="http://www.w3.org/2000/svg" width="63" height="200" viewBox="0 0 63 200">
  <g id="members_area_tab" data-name="members area tab" transform="translate(-1857.5 -670.5)">
    <g id="Rectangle_193" data-name="Rectangle 193" transform="translate(1920.5 670.5) rotate(90)" fill="#fff" stroke="#fff" stroke-width="1" opacity="0.18">
      <path d="M0,0H200a0,0,0,0,1,0,0V41a22,22,0,0,1-22,22H22A22,22,0,0,1,0,41V0A0,0,0,0,1,0,0Z" stroke="none"/>
      <path d="M1,.5H199a.5.5,0,0,1,.5.5V41A21.5,21.5,0,0,1,178,62.5H22A21.5,21.5,0,0,1,.5,41V1A.5.5,0,0,1,1,.5Z" fill="none"/>
    </g>
    <path id="Path_183" data-name="Path 183" d="M-49.224-8.376V0H-50.9V-5.844L-53.052,0h-1.464l-2.148-5.82V0h-1.692V-8.376H-56.3l2.544,6.3,2.5-6.3Zm5.868,1.248v2.2h3v1.3h-3v2.28H-40V0h-5.052V-8.472H-40v1.344Zm16.38-1.248V0h-1.68V-5.844L-30.8,0h-1.464l-2.148-5.82V0h-1.692V-8.376h2.052l2.544,6.3,2.5-6.3Zm8.9,4.008a2.055,2.055,0,0,1,1.23.726A2.061,2.061,0,0,1-16.38-2.3a2.114,2.114,0,0,1-.714,1.686A3.076,3.076,0,0,1-19.164,0H-22.8V-8.472h3.564a3.046,3.046,0,0,1,1.974.564,1.931,1.931,0,0,1,.69,1.584,1.975,1.975,0,0,1-.414,1.3A1.925,1.925,0,0,1-18.072-4.368Zm-3.036-.552h1.524a1.45,1.45,0,0,0,.966-.282,1.007,1.007,0,0,0,.33-.81,1.035,1.035,0,0,0-.324-.816,1.466,1.466,0,0,0-1-.288h-1.5ZM-19.5-1.38a1.594,1.594,0,0,0,1.032-.294,1.043,1.043,0,0,0,.36-.858,1.071,1.071,0,0,0-.366-.87,1.575,1.575,0,0,0-1.038-.306h-1.6V-1.38Zm8.64-5.748v2.2h3v1.3h-3v2.28H-7.5V0h-5.052V-8.472H-7.5v1.344ZM.8,0l-1.98-3.3H-1.92V0H-3.612V-8.472H-.384a3.188,3.188,0,0,1,2.25.72,2.468,2.468,0,0,1,.774,1.9,2.445,2.445,0,0,1-.534,1.608,2.635,2.635,0,0,1-1.542.864L2.676,0ZM-1.92-4.464H-.528q1.452,0,1.452-1.284A1.265,1.265,0,0,0,.57-6.7a1.531,1.531,0,0,0-1.1-.342H-1.92ZM12.24-2.316a2.3,2.3,0,0,1-.324,1.194,2.327,2.327,0,0,1-.96.876,3.328,3.328,0,0,1-1.548.33A4.017,4.017,0,0,1,7.8-.222,2.719,2.719,0,0,1,6.666-1.1,2.544,2.544,0,0,1,6.18-2.448h1.8a1.375,1.375,0,0,0,.414.858,1.3,1.3,0,0,0,.942.342,1.1,1.1,0,0,0,.81-.282.983.983,0,0,0,.282-.726A.951.951,0,0,0,10.2-2.91a1.664,1.664,0,0,0-.576-.414q-.348-.156-.96-.36a9.49,9.49,0,0,1-1.3-.522,2.4,2.4,0,0,1-.858-.75A2.149,2.149,0,0,1,6.156-6.24a2.088,2.088,0,0,1,.786-1.722,3.231,3.231,0,0,1,2.082-.63,3.3,3.3,0,0,1,2.142.648,2.446,2.446,0,0,1,.906,1.728H10.248a1.27,1.27,0,0,0-.384-.75,1.192,1.192,0,0,0-.852-.294,1.124,1.124,0,0,0-.756.246.887.887,0,0,0-.288.714.888.888,0,0,0,.222.618,1.694,1.694,0,0,0,.564.4,9.257,9.257,0,0,0,.93.348,12.365,12.365,0,0,1,1.326.54,2.336,2.336,0,0,1,.87.756A2.222,2.222,0,0,1,12.24-2.316Zm14.3.612h-3.4l-.6,1.7H20.76l3.12-8.376h1.932L28.92,0H27.132Zm-.456-1.284L24.84-6.564,23.592-2.988ZM36.888,0l-1.98-3.3h-.744V0H32.472V-8.472H35.7a3.188,3.188,0,0,1,2.25.72,2.468,2.468,0,0,1,.774,1.9,2.445,2.445,0,0,1-.534,1.608,2.635,2.635,0,0,1-1.542.864L38.76,0ZM34.164-4.464h1.392q1.452,0,1.452-1.284a1.265,1.265,0,0,0-.354-.954,1.531,1.531,0,0,0-1.1-.342H34.164ZM44.2-7.128v2.2h3v1.3h-3v2.28h3.36V0H42.5V-8.472h5.052v1.344ZM56.6-1.7h-3.4l-.6,1.7H50.82l3.12-8.376h1.932L58.98,0H57.192Zm-.456-1.284L54.9-6.564,53.652-2.988Z" transform="translate(1894 770) rotate(-90)" fill="#fff"/>
  </g>
</svg>
