<svg xmlns="http://www.w3.org/2000/svg" width="11.325" height="18.402" viewBox="0 0 11.325 18.402">
  <path id="Subtraction_3" data-name="Subtraction 3" d="M5.662,18.4h0c-.014-.024-1.439-2.45-2.831-5.2C2.009,11.583,1.354,10.159.885,8.972A10.289,10.289,0,0,1,0,5.662a5.662,5.662,0,0,1,9.666-4,5.625,5.625,0,0,1,1.658,4,10.289,10.289,0,0,1-.885,3.31c-.47,1.186-1.125,2.61-1.946,4.233C7.1,15.952,5.677,18.378,5.663,18.4Zm0-15.807A2.831,2.831,0,1,0,8.493,5.426,2.834,2.834,0,0,0,5.662,2.6Z" transform="translate(0 0)" fill="#fff" opacity="0.8"/>
</svg>
