<svg xmlns="http://www.w3.org/2000/svg" width="26.254" height="24" viewBox="0 0 26.254 24">
  <g id="warning" transform="translate(0 -20.882)">
    <g id="Group_729" data-name="Group 729" transform="translate(0 20.882)">
      <path id="Path_211" data-name="Path 211" d="M219.574,333.382a1.349,1.349,0,1,0,0,2.7,1.35,1.35,0,0,0,0-2.7Z" transform="translate(-206.448 -316.517)" fill="#00285c"/>
      <path id="Path_212" data-name="Path 212" d="M25.615,42.529a4.607,4.607,0,0,0,.011-4.663L17.174,23.23a4.657,4.657,0,0,0-8.085-.005L.627,37.877a4.674,4.674,0,0,0,4.048,7.005H21.556A4.648,4.648,0,0,0,25.615,42.529ZM23.78,41.471a2.55,2.55,0,0,1-2.229,1.29H4.669a2.516,2.516,0,0,1-2.2-1.263,2.554,2.554,0,0,1-.005-2.574l8.462-14.647a2.542,2.542,0,0,1,4.415.005L23.8,38.929A2.52,2.52,0,0,1,23.78,41.471Z" transform="translate(0 -20.882)" fill="#00285c"/>
      <path id="Path_213" data-name="Path 213" d="M218.767,157.214a1.467,1.467,0,0,0-1.042,1.473c.032.426.059.858.092,1.284.092,1.624.183,3.217.275,4.841a.989.989,0,0,0,1.009.95,1.009,1.009,0,0,0,1.009-.982c0-.335,0-.642.032-.982.059-1.042.124-2.083.183-3.125.032-.675.092-1.349.124-2.024a1.667,1.667,0,0,0-.124-.675A1.353,1.353,0,0,0,218.767,157.214Z" transform="translate(-205.975 -149.821)" fill="#00285c"/>
    </g>
  </g>
</svg>
