<svg xmlns="http://www.w3.org/2000/svg" width="95.331" height="92.918" viewBox="0 0 95.331 92.918">
  <g id="_2" data-name="2" transform="translate(-5.388)">
    <g id="Group_218" data-name="Group 218" transform="translate(19.502)">
      <g id="Path_1058" data-name="Path 1058" transform="translate(0 9.317) rotate(-13.008)">
        <path id="Path_6" data-name="Path 6" d="M19.4,30.7a23.667,23.667,0,0,1-7.64-1.239,20.19,20.19,0,0,1-6.185-3.351,15.628,15.628,0,0,1-4.1-4.885,12.425,12.425,0,0,1,.3-12.287,16.538,16.538,0,0,1,4.959-5.2,20.979,20.979,0,0,1,5.232-2.569,24.181,24.181,0,0,1,15.071.07A20.189,20.189,0,0,1,33.228,4.59a15.628,15.628,0,0,1,4.1,4.885,12.518,12.518,0,0,1,1.478,5.877C38.806,23.818,30.1,30.7,19.4,30.7Z" transform="translate(1.301 1.301)" fill="#e6fbfd"/>
        <path id="Path_7" data-name="Path 7" d="M20.7,2.6a22.5,22.5,0,0,0-7.02,1.1,19.663,19.663,0,0,0-4.9,2.405A15.251,15.251,0,0,0,4.2,10.9a11.247,11.247,0,0,0-1.6,5.752A12.559,12.559,0,0,0,7.695,26.4a18.9,18.9,0,0,0,5.788,3.133,22.867,22.867,0,0,0,14.442,0A18.894,18.894,0,0,0,33.713,26.4a12.559,12.559,0,0,0,5.093-9.748A12.559,12.559,0,0,0,33.713,6.9a18.894,18.894,0,0,0-5.788-3.133A22.368,22.368,0,0,0,20.7,2.6m0-2.6c11.435,0,20.7,7.456,20.7,16.653s-9.27,16.653-20.7,16.653S0,25.851,0,16.653C0,11.605,2.793,7.082,7.3,3.968a22.18,22.18,0,0,1,5.56-2.733A24.963,24.963,0,0,1,20.7,0Z" fill="#00295d"/>
      </g>
      <path id="Path_1059" data-name="Path 1059" d="M13140.4-11434.85c2.814,1.755,16.53,4.453,23.916-5.862" transform="translate(-13128.496 11456.495)" fill="none" stroke="#00295d" stroke-linecap="round" stroke-width="3"/>
      <path id="Path_1060" data-name="Path 1060" d="M13493.6-12107.128s1.989-1.073,1.769,1.295,4.415.17,4.415-1.592.776-2.453-.762-2.138-1.566-.747-1.446-1.487-.455-1.154-.3-2.03C13497.7-12115.453,13493.6-12107.128,13493.6-12107.128Z" transform="translate(-13486.763 12120.047)" fill="#ddfbfd"/>
    </g>
    <g id="Group_219" data-name="Group 219" transform="translate(46.117 38.709) rotate(-15.009)">
      <g id="Path_1058-2" data-name="Path 1058" transform="translate(0 9.317) rotate(-13.008)">
        <path id="Path_8" data-name="Path 8" d="M19.4,30.7a23.667,23.667,0,0,1-7.64-1.239,20.19,20.19,0,0,1-6.185-3.351,15.628,15.628,0,0,1-4.1-4.885,12.425,12.425,0,0,1,.3-12.287,16.539,16.539,0,0,1,4.959-5.2,20.978,20.978,0,0,1,5.232-2.569,24.181,24.181,0,0,1,15.071.07A20.19,20.19,0,0,1,33.228,4.59a15.628,15.628,0,0,1,4.1,4.885,12.519,12.519,0,0,1,1.478,5.877C38.806,23.818,30.1,30.7,19.4,30.7Z" transform="translate(1.301 1.301)" fill="#e6fbfd"/>
        <path id="Path_9" data-name="Path 9" d="M20.7,2.6a22.5,22.5,0,0,0-7.02,1.1,19.661,19.661,0,0,0-4.9,2.405A15.25,15.25,0,0,0,4.2,10.9a11.247,11.247,0,0,0-1.6,5.752A12.559,12.559,0,0,0,7.695,26.4a18.9,18.9,0,0,0,5.788,3.133,22.867,22.867,0,0,0,14.442,0A18.894,18.894,0,0,0,33.713,26.4a12.559,12.559,0,0,0,5.093-9.748A12.559,12.559,0,0,0,33.713,6.9a18.9,18.9,0,0,0-5.788-3.133A22.368,22.368,0,0,0,20.7,2.6m0-2.6c11.435,0,20.7,7.456,20.7,16.653s-9.27,16.653-20.7,16.653S0,25.851,0,16.653C0,11.605,2.793,7.082,7.3,3.968a22.18,22.18,0,0,1,5.56-2.733A24.963,24.963,0,0,1,20.7,0Z" transform="translate(0 0)" fill="#00295d"/>
      </g>
      <path id="Path_1059-2" data-name="Path 1059" d="M0,5.861C2.813,7.62,16.529,10.316,23.915,0" transform="translate(11.881 15.794)" fill="none" stroke="#00295d" stroke-linecap="round" stroke-width="3"/>
      <path id="Path_1060-2" data-name="Path 1060" d="M0,6.387S1.989,5.314,1.768,7.682s4.415.169,4.415-1.592.777-2.454-.762-2.138S3.855,3.2,3.976,2.464,3.52,1.31,3.676.433C4.1-1.967,0,6.387,0,6.387Z" transform="matrix(0.515, 0.857, -0.857, 0.515, 33.41, 0.761)" fill="#ddfbfd"/>
    </g>
    <g id="Group_220" data-name="Group 220" transform="matrix(0.719, 0.695, -0.695, 0.719, 29.021, 36.355)">
      <g id="Path_1058-3" data-name="Path 1058" transform="translate(0 9.317) rotate(-13.008)">
        <path id="Path_10" data-name="Path 10" d="M19.4,30.7h0A22.689,22.689,0,0,1,6.472,26.789,14.069,14.069,0,0,1,0,15.352a12.531,12.531,0,0,1,1.781-6.41,16.538,16.538,0,0,1,4.959-5.2,20.979,20.979,0,0,1,5.232-2.569A23.814,23.814,0,0,1,19.4,0c10.7,0,19.4,6.887,19.4,15.352a12.517,12.517,0,0,1-1.478,5.876,15.629,15.629,0,0,1-4.1,4.885,20.19,20.19,0,0,1-6.185,3.351A23.663,23.663,0,0,1,19.4,30.7Z" transform="translate(1.301 1.301)" fill="#e6fbfd"/>
        <path id="Path_11" data-name="Path 11" d="M20.7,0V2.6a22.5,22.5,0,0,0-7.02,1.1,19.662,19.662,0,0,0-4.9,2.405A15.25,15.25,0,0,0,4.2,10.9a11.247,11.247,0,0,0-1.6,5.752A12.559,12.559,0,0,0,7.695,26.4a18.894,18.894,0,0,0,5.788,3.133,22.865,22.865,0,0,0,14.441,0A18.9,18.9,0,0,0,33.713,26.4a12.559,12.559,0,0,0,5.093-9.748,12.559,12.559,0,0,0-5.093-9.748,18.893,18.893,0,0,0-5.788-3.133A22.368,22.368,0,0,0,20.7,2.6V0m0,0c11.435,0,20.7,7.456,20.7,16.653s-9.27,16.653-20.7,16.653h0C9.27,33.307,0,25.851,0,16.653,0,11.605,2.793,7.082,7.3,3.968a22.18,22.18,0,0,1,5.56-2.733A24.963,24.963,0,0,1,20.7,0Z" fill="#00295d"/>
      </g>
      <path id="Path_1059-3" data-name="Path 1059" d="M0,5.861C2.813,7.62,16.529,10.316,23.915,0" transform="translate(11.881 15.794)" fill="none" stroke="#00295d" stroke-linecap="round" stroke-width="3"/>
      <path id="Path_1060-3" data-name="Path 1060" d="M0,6.387S1.989,5.314,1.768,7.682s4.415.169,4.415-1.592.777-2.454-.762-2.138S3.855,3.2,3.976,2.464,3.52,1.31,3.676.433C4.1-1.967,0,6.387,0,6.387Z" transform="translate(17.069 30.394) rotate(73)" fill="#ddfbfd"/>
    </g>
  </g>
</svg>
