<svg xmlns="http://www.w3.org/2000/svg" width="106" height="106" viewBox="0 0 106 106">
  <g id="_256" data-name="256" transform="translate(-12839.594 -1078.594)">
    <rect id="Rectangle_156" data-name="Rectangle 156" width="106" height="106" transform="translate(12839.594 1078.594)" fill="#fff" opacity="0"/>
    <g id="Group_529" data-name="Group 529" transform="translate(12842.335 1079)">
      <path id="Subtraction_18" data-name="Subtraction 18" d="M20.473,38.819a2.7,2.7,0,0,1-1.383-.382L2.063,31.179A3.478,3.478,0,0,1,.125,29.342a1.7,1.7,0,0,1,.037-1.367L11.483,1.21A2.719,2.719,0,0,1,15.15.392L32.185,7.641a3.552,3.552,0,0,1,1.866,1.866,1.714,1.714,0,0,1,.016,1.337L22.723,37.614A2.685,2.685,0,0,1,20.473,38.819Zm-9.215-24.7a.919.919,0,0,0-.856.578L9.044,17.847a.993.993,0,0,0-.006.763.983.983,0,0,0,.533.543l3.951,1.683-1.8,4.25a.7.7,0,0,0,.377.928l3.642,1.529a.68.68,0,0,0,.284.063.672.672,0,0,0,.634-.43l1.806-4.233,4.041,1.722a1.007,1.007,0,0,0,.347.062,1.076,1.076,0,0,0,.962-.634l1.318-3.106a.082.082,0,0,0,.031-.081.96.96,0,0,0-.558-1.233l-4.024-1.7,1.808-4.241a.733.733,0,0,0-.4-.939l-3.625-1.518a.736.736,0,0,0-.3-.065.721.721,0,0,0-.652.432l-1.8,4.238-3.949-1.665a.057.057,0,0,0-.026-.012.2.2,0,0,1-.053-.023A.886.886,0,0,0,11.257,14.119Z" transform="translate(0)" fill="#fff"/>
      <path id="Path_166" data-name="Path 166" d="M373.378,185.289c-9.319,21.741,1.656,73.093-7.54,79.669-.346.287-.985.552-.327.64,23.62-3.105,29.181-13.4,38.313-26.392,6.3-8.969,23.124-12.357,33.56-8.221-13.649-18.049-25.2-18.033-40.647-19.792-10.988-1.231-22.2-14.687-23.36-25.9" transform="translate(-339.938 -161.248)" fill="#fff"/>
      <path id="Path_167" data-name="Path 167" d="M419.178,196.774a10.779,10.779,0,1,1-4.642-6.847,10.783,10.783,0,0,1,4.642,6.847" transform="translate(-348.173 -166.764)" fill="#fff"/>
      <path id="Path_168" data-name="Path 168" d="M417.363,245.878a31.71,31.71,0,0,0-9.974,8c-2.7,3.331-4.7,6.8-7.028,9.935,11.221-2.174,25.352,1.37,32.992,8.514.409.342.884,1.04.823.253-4.615-13.427-10.226-21.355-16.813-26.7" transform="translate(-340.748 -168.344)" fill="#fff"/>
    </g>
  </g>
</svg>
