<svg xmlns="http://www.w3.org/2000/svg" width="84.67" height="84.669" viewBox="0 0 84.67 84.669">
  <path id="_3" data-name="3" d="M79.095,22.433a3.15,3.15,0,0,1-4.31-1.132,46.27,46.27,0,0,0-5.512-7.591l-.041-.047c-.23-.266-.527-.591-.623-.682-.04-.038-.082-.082-.12-.119-.092-.1-.417-.394-.683-.623l-.046-.041a45.815,45.815,0,0,0-8.189-5.805,3.15,3.15,0,1,1,3.1-5.484,52.072,52.072,0,0,1,9.275,6.58c.189.164.706.617,1.056.976s.811.866.976,1.056a52.589,52.589,0,0,1,6.246,8.6,3.15,3.15,0,0,1-1.132,4.31ZM63.889,47.684a3.151,3.151,0,0,1-2.056,3.125c-.176.066-17.708,6.529-20.038,7.446a3.151,3.151,0,0,1-3.3-.623l-1.1-1.024c-.035-.034-.071-.067-.1-.1L26.139,45.145a28.25,28.25,0,0,1-2.025,2.691l-13.151,15.5-.02.024a4.746,4.746,0,0,0,.118,6.355,4.745,4.745,0,0,0,6.354.117l.024-.02,9.982-8.467a3.151,3.151,0,0,1,4.077,4.8l-9.971,8.461A11.032,11.032,0,0,1,9.44,76.169L5.378,80.234A3.15,3.15,0,1,1,.923,75.778l3.943-3.944a11.033,11.033,0,0,1,1.3-12.583L19.309,43.756a19.42,19.42,0,0,0,3.149-5.013c1.088-2.6,7.451-19.643,7.515-19.815a3.151,3.151,0,0,1,3.12-2.045,36.891,36.891,0,0,1,20.726,8.753c.148.129.453.4.685.634s.505.537.634.685A36.87,36.87,0,0,1,63.889,47.68Zm-6.6-1.916a30.4,30.4,0,0,0-6.862-14.621l-.041-.047c-.1-.115-.239-.269-.291-.321-.034-.033-.067-.066-.1-.1-.053-.052-.207-.191-.322-.291l-.046-.041A30.184,30.184,0,0,0,35,23.475c-1.467,3.918-4.392,11.718-5.923,15.667l12.3,12.528c3.86-1.449,11.9-4.421,15.913-5.9Zm6.988-27.792c-.142-.164-.522-.6-.833-.9s-.738-.689-.9-.832a43.45,43.45,0,0,0-5.038-3.883,3.151,3.151,0,0,0-3.475,5.257,37.046,37.046,0,0,1,4.325,3.335l.046.041c.2.175.455.4.527.48.039.041.075.078.117.116.077.075.307.328.481.53l.041.047A37.607,37.607,0,0,1,63.737,27.8a3.151,3.151,0,1,0,5.39-3.265,43.981,43.981,0,0,0-4.852-6.565Zm0,0" transform="translate(2 1.512)" fill="#00295d" stroke="#e6fbfd" stroke-width="4"/>
</svg>
