<svg xmlns="http://www.w3.org/2000/svg" width="101.339" height="101.337" viewBox="0 0 101.339 101.337">
  <path id="_3" data-name="3" d="M99.376,28.057a3.957,3.957,0,0,1-5.415-1.422A58.135,58.135,0,0,0,87.036,17.1l-.052-.059c-.288-.334-.662-.743-.783-.857-.05-.047-.1-.1-.15-.149-.115-.122-.524-.494-.858-.783l-.058-.052A57.563,57.563,0,0,0,74.847,7.9a3.958,3.958,0,1,1,3.9-6.89A65.424,65.424,0,0,1,90.4,9.282c.238.206.887.776,1.327,1.226s1.019,1.088,1.226,1.327A66.073,66.073,0,0,1,100.8,22.646a3.957,3.957,0,0,1-1.422,5.415Zm-19.1,31.725a3.958,3.958,0,0,1-2.583,3.926c-.221.082-22.249,8.2-25.176,9.355a3.959,3.959,0,0,1-4.141-.783l-1.385-1.286c-.044-.042-.089-.084-.131-.128L32.841,56.592A35.493,35.493,0,0,1,30.3,59.973L13.773,79.449l-.026.03a5.963,5.963,0,0,0,.148,7.985,5.962,5.962,0,0,0,7.984.147l.03-.026L34.451,76.947a3.959,3.959,0,0,1,5.122,6.037L27.046,93.614a13.861,13.861,0,0,1-15.186,1.957l-5.1,5.107a3.958,3.958,0,1,1-5.6-5.6l4.955-4.955a13.862,13.862,0,0,1,1.635-15.81L24.26,54.847a24.4,24.4,0,0,0,3.956-6.3c1.367-3.264,9.362-24.679,9.442-24.9a3.959,3.959,0,0,1,3.92-2.569c.6.033,14.781.9,26.04,11,.186.162.569.5.86.8s.634.675.8.86C79.37,45,80.24,59.179,80.271,59.777ZM71.98,57.375a38.19,38.19,0,0,0-8.621-18.369l-.052-.059c-.126-.144-.3-.338-.366-.4-.042-.041-.084-.082-.125-.126-.067-.066-.26-.24-.4-.366L62.355,38a37.923,37.923,0,0,0-18.38-8.634c-1.843,4.922-5.518,14.722-7.442,19.684l15.45,15.741c4.849-1.821,14.951-5.555,19.993-7.416Zm8.78-34.918c-.178-.206-.656-.75-1.047-1.133s-.927-.866-1.133-1.045A54.589,54.589,0,0,0,72.251,15.4,3.959,3.959,0,1,0,67.885,22a46.545,46.545,0,0,1,5.433,4.19l.058.052c.254.219.572.508.662.6.048.051.095.1.147.146.1.094.385.412.6.665l.051.059a47.249,47.249,0,0,1,5.238,7.088,3.959,3.959,0,1,0,6.772-4.1,55.258,55.258,0,0,0-6.1-8.248Zm0,0" transform="translate(0 -0.5)" fill="#fff"/>
</svg>
