<svg xmlns="http://www.w3.org/2000/svg" width="75.768" height="76.832" viewBox="0 0 75.768 76.832">
  <g id="_6" data-name="6" transform="translate(0.5)">
    <g id="Group_253" data-name="Group 253" transform="translate(0 51.715)">
      <g id="Group_252" data-name="Group 252">
        <path id="Path_1131" data-name="Path 1131" d="M49.748,344.615H43.839a1.477,1.477,0,0,0,0,2.955h5.909a1.477,1.477,0,1,0,0-2.955Z" transform="translate(-42.362 -344.615)" fill="#00295d" stroke="#e6fbfd" stroke-width="1"/>
      </g>
    </g>
    <g id="Group_255" data-name="Group 255" transform="translate(2.956 42.85)">
      <g id="Group_254" data-name="Group 254" transform="translate(0 0)">
        <path id="Path_1132" data-name="Path 1132" d="M67.536,288.95l-2.955-2.975a1.478,1.478,0,1,0-2.1,2.083l2.955,2.975a1.478,1.478,0,1,0,2.1-2.083Z" transform="translate(-62.055 -285.538)" fill="#00295d" stroke="#e6fbfd" stroke-width="1"/>
      </g>
    </g>
    <g id="Group_257" data-name="Group 257" transform="translate(2.955 57.626)">
      <g id="Group_256" data-name="Group 256" transform="translate(0 0)">
        <path id="Path_1133" data-name="Path 1133" d="M67.532,384.434a1.478,1.478,0,0,0-2.09,0l-2.955,2.955a1.478,1.478,0,0,0,2.09,2.09l2.955-2.955a1.477,1.477,0,0,0,0-2.09Z" transform="translate(-62.055 -384.001)" fill="#00295d" stroke="#e6fbfd" stroke-width="1"/>
      </g>
    </g>
    <g id="Group_251" data-name="Group 251" transform="translate(15)">
      <g id="Group_250" data-name="Group 250" transform="translate(0)">
        <path id="Path_1130" data-name="Path 1130" d="M127.769,23.912l-1.447-4.5V18.25C126.322,8.187,118.4,0,108.652,0H90.367C78.057,0,68.041,10.35,68.041,23.072v7.788a13.977,13.977,0,0,0,4.512,10.325,10.858,10.858,0,0,1,3.2,5.373l.53,2.087a17.745,17.745,0,0,1-.084,9.041L71.467,74.964a1.477,1.477,0,0,0,1.425,1.868h44.328a1.477,1.477,0,0,0,1.439-1.813l-4.748-20.35h1.636a8.68,8.68,0,0,0,7.305-4.039l2.328-3.616a7.192,7.192,0,0,0,1.142-3.9V35.83a8.178,8.178,0,0,1,.805-3.534l.077-.16a11.051,11.051,0,0,0,.565-8.224ZM91.714,73.576a.323.323,0,0,1-.118.225.332.332,0,0,1-.243.077l-5.225-.457a.333.333,0,0,1-.3-.36l.457-5.226a.333.333,0,0,1,.36-.3l.581.051.652.057,3.995.349a.333.333,0,0,1,.3.36Zm.265-11.509h0l-.242,2.77a.169.169,0,0,1-.065.119.165.165,0,0,1-.129.04h0l-.652-.057-3.416-.3a.175.175,0,0,1-.159-.189l.242-2.768h0l.242-2.768a.175.175,0,0,1,.174-.16h.016l1.145.1,2.385.209h0l.537.047a.174.174,0,0,1,.159.19Zm.037-8.9h0l-.258,2.944-1.674-.147-1.27-.111.517-5.888,2.944.258Zm32.53-22.319-.077.16a11.15,11.15,0,0,0-1.1,4.818v7.285a4.241,4.241,0,0,1-.672,2.3l-2.328,3.616a5.736,5.736,0,0,1-4.821,2.683h-3.5a1.477,1.477,0,0,0-1.439,1.813l4.749,20.35H94.648a.373.373,0,0,1,.006-.046l.1-1.141,1.472.129c.044,0,.087.006.129.006a1.477,1.477,0,0,0,.129-2.95l-1.472-.129.1-1.14a3.278,3.278,0,0,0-.751-2.389,3.113,3.113,0,0,0,.317-1.123l.114-1.3,1.472.129c.044,0,.087.006.129.006a1.477,1.477,0,0,0,.129-2.95l-1.472-.129.114-1.3a3.107,3.107,0,0,0-.7-2.252,2.932,2.932,0,0,0,.231-.9l.129-1.5,1.472.129c.044,0,.087.006.129.006a1.477,1.477,0,0,0,.129-2.95l-1.472-.129.129-1.5a2.931,2.931,0,0,0-2.663-3.179h-.024l.1-1.175a1.478,1.478,0,0,0-2.944-.258l-.1,1.175h-.024a2.93,2.93,0,0,0-3.175,2.664l-.129,1.5-1.472-.129A1.478,1.478,0,1,0,84.526,54L86,54.131l-.129,1.5a2.937,2.937,0,0,0,.07.934,3.117,3.117,0,0,0-1.076,2.1l-.114,1.3-1.472-.129a1.478,1.478,0,0,0-.258,2.944l1.472.129-.114,1.3a3.125,3.125,0,0,0,.117,1.162,3.266,3.266,0,0,0-1.155,2.225l-.1,1.141L81.767,68.6a1.478,1.478,0,0,0-.258,2.944l1.472.129-.1,1.14a3.284,3.284,0,0,0,.086,1.076H74.83l4.221-15.41a20.705,20.705,0,0,0,.1-10.55l-.53-2.087A13.8,13.8,0,0,0,74.544,39,11.017,11.017,0,0,1,71,30.861V23.072c0-11.093,8.69-20.117,19.373-20.117h18.285c8.114,0,14.715,6.861,14.715,15.3v1.4a1.476,1.476,0,0,0,.071.452l1.518,4.714a8.217,8.217,0,0,1-.415,6.038Z" transform="translate(-68.041)" fill="#00295d"/>
      </g>
    </g>
  </g>
</svg>
