<svg xmlns="http://www.w3.org/2000/svg" width="87.369" height="71.827" viewBox="0 0 87.369 71.827">
  <path id="_8" data-name="8" d="M76.951,54.373H55.814V50.6h8.24a7.607,7.607,0,0,0,0-15.215H58.742L47.383,19.8h0a11.118,11.118,0,0,0-2.526-2.7,9.653,9.653,0,1,0-13.369,0,11.029,11.029,0,0,0-4.357,8.779v28.5H19.74a7.7,7.7,0,0,0-1.914.241,9,9,0,1,0-5.368,10.028,7.729,7.729,0,0,0,7.281,5.166H76.951a7.717,7.717,0,0,0,0-15.434Zm-12.9-14.025a2.646,2.646,0,1,1,0,5.293h-13.2v8.732h-5.6V42.6a2.256,2.256,0,0,1,2.252-2.253ZM52.575,35.387H47.259l-6.388-8.948-4.039,2.883,5.734,8.031a7.192,7.192,0,0,0-2.255,4.762h-8.22V25.877a6.078,6.078,0,0,1,11.041-3.506ZM38.171,5.454a4.691,4.691,0,1,1-4.691,4.691A4.691,4.691,0,0,1,38.171,5.454ZM9,60.374a4.037,4.037,0,1,1,4.037-4.036A4.037,4.037,0,0,1,9,60.374Zm30.419,4.469H19.74a2.756,2.756,0,1,1,0-5.511H39.414Zm-7.323-10.47v-7.3h8.2v7.3Zm44.86,10.473H44.376V59.334H76.951a2.756,2.756,0,1,1,0,5.511Zm0,0" transform="translate(1.45 0.77)" fill="#00295d" stroke="#e6fbfd" stroke-width="2.5"/>
</svg>
