<svg xmlns="http://www.w3.org/2000/svg" xmlns:xlink="http://www.w3.org/1999/xlink" width="115.998" height="116.004" viewBox="0 0 115.998 116.004">
  <defs>
    <linearGradient id="linear-gradient" x1="0.5" x2="0.5" y2="1" gradientUnits="objectBoundingBox">
      <stop offset="0" stop-color="#0cd9ed"/>
      <stop offset="1" stop-color="#00285c"/>
    </linearGradient>
  </defs>
  <g id="bc_image" transform="translate(-897.998 -272)">
    <path id="Subtraction_28" data-name="Subtraction 28" d="M19845-9969a57.626,57.626,0,0,1-22.574-4.558,57.812,57.812,0,0,1-18.436-12.431,57.771,57.771,0,0,1-12.428-18.437A57.619,57.619,0,0,1,19787-10027a57.619,57.619,0,0,1,4.559-22.576,57.749,57.749,0,0,1,12.428-18.437,57.789,57.789,0,0,1,18.436-12.43A57.62,57.62,0,0,1,19845-10085a57.622,57.622,0,0,1,22.576,4.559,57.819,57.819,0,0,1,18.438,12.43,57.829,57.829,0,0,1,12.43,18.438A57.619,57.619,0,0,1,19903-10027a57.619,57.619,0,0,1-4.559,22.576,57.8,57.8,0,0,1-12.43,18.438,57.81,57.81,0,0,1-18.437,12.431A57.635,57.635,0,0,1,19845-9969Zm0-109a51.056,51.056,0,0,0-51,51,51.056,51.056,0,0,0,51,51,51.057,51.057,0,0,0,51-51A51.057,51.057,0,0,0,19845-10078Z" transform="translate(-18889.004 10357.002)" fill="url(#linear-gradient)"/>
    <g id="Group_833" data-name="Group 833" transform="translate(407.377 -685.775) rotate(45)">
      <path id="Union_10" data-name="Union 10" d="M19789.5-10050a2.5,2.5,0,0,1-2.5-2.5,2.5,2.5,0,0,1,2.5-2.5h11.5v-27.5a2.5,2.5,0,0,1,2.5-2.5,2.5,2.5,0,0,1,2.5,2.5v30a2.5,2.5,0,0,1-2.5,2.5Z" transform="translate(-18693 10395)" fill="url(#linear-gradient)"/>
    </g>
  </g>
</svg>
