<svg xmlns="http://www.w3.org/2000/svg" width="512" height="448" viewBox="0 0 512 448">
  <path id="cash" d="M384,256a32,32,0,1,0,32,32A32,32,0,0,0,384,256ZM464,96H448V80a48,48,0,0,0-48-48H96A96,96,0,0,0,0,128V384a96,96,0,0,0,96,96H448a64,64,0,0,0,64-64V144A48,48,0,0,0,464,96Zm16,320a32.042,32.042,0,0,1-32,32H96a64.072,64.072,0,0,1-64-64V128A64.072,64.072,0,0,1,96,64H400a16.021,16.021,0,0,1,16,16V96H112a16,16,0,0,0,0,32H464a16.021,16.021,0,0,1,16,16Z" transform="translate(0 -32)" fill="#00285c"/>
</svg>
