<svg xmlns="http://www.w3.org/2000/svg" width="34.271" height="25.703" viewBox="0 0 34.271 25.703">
  <path id="envelope-solid_1_" data-name="envelope-solid (1)" d="M33.621,72.487a.4.4,0,0,1,.649.315V86.49A3.214,3.214,0,0,1,31.058,89.7H3.213A3.214,3.214,0,0,1,0,86.49V72.809a.4.4,0,0,1,.649-.315c1.5,1.165,3.487,2.644,10.315,7.6,1.412,1.031,3.8,3.2,6.171,3.186,2.39.02,4.819-2.2,6.178-3.186C30.141,75.138,32.122,73.652,33.621,72.487ZM17.135,81.135c1.553.027,3.788-1.954,4.913-2.771,8.882-6.446,9.558-7.008,11.606-8.614a1.6,1.6,0,0,0,.616-1.265V67.213A3.214,3.214,0,0,0,31.058,64H3.213A3.214,3.214,0,0,0,0,67.213v1.272A1.612,1.612,0,0,0,.616,69.75c2.048,1.6,2.724,2.169,11.606,8.614C13.347,79.181,15.582,81.162,17.135,81.135Z" transform="translate(0 -64)" fill="#00285c"/>
</svg>
