<svg id="_5cacd53651b2290266b05d91_respect" data-name="5cacd53651b2290266b05d91_respect" xmlns="http://www.w3.org/2000/svg" width="102.577" height="85.253" viewBox="0 0 102.577 85.253">
  <g id="Group_322" data-name="Group 322" transform="translate(90.288 8.41)">
    <g id="Group_321" data-name="Group 321" transform="translate(0 0)">
      <path id="Path_1140" data-name="Path 1140" d="M454.109,85.753a2.007,2.007,0,1,0,.585,1.416A2.007,2.007,0,0,0,454.109,85.753Z" transform="translate(-450.681 -85.162)" fill="#00285c"/>
    </g>
  </g>
  <g id="Group_324" data-name="Group 324" transform="translate(44.282 55.591)">
    <g id="Group_323" data-name="Group 323" transform="translate(0 0)">
      <path id="Path_1141" data-name="Path 1141" d="M224.42,321.283a2.007,2.007,0,1,0,.585,1.416,2.007,2.007,0,0,0-.585-1.416Z" transform="translate(-220.992 -320.692)" fill="#00285c"/>
    </g>
  </g>
  <g id="Group_326" data-name="Group 326" transform="translate(0 0)">
    <g id="Group_325" data-name="Group 325">
      <path id="Path_1142" data-name="Path 1142" d="M98.552,58.9a2,2,0,0,0-3.484,1.981A26.909,26.909,0,0,1,90.7,93.127l-1.519,1.519a7.5,7.5,0,0,0-1.709-2.64L66.89,71.424a13.841,13.841,0,0,0,3.681-2.637l3.947-3.948A2.005,2.005,0,1,0,71.682,62l-3.944,3.951a9.755,9.755,0,0,1-6.943,2.876H52.9a2,2,0,0,0-1.417.586l-6.041,6.041A4.6,4.6,0,0,1,38.94,68.95L52.732,55.158a26.959,26.959,0,0,1,32-4.507,2,2,0,1,0,1.943-3.5,31.076,31.076,0,0,0-19.052-3.587A30.529,30.529,0,0,0,51.3,51.007,30.855,30.855,0,0,0,9.044,95.94l.755.755a2,2,0,0,0,.431.325,7.532,7.532,0,0,0,7.52,6.958c.1,0,.2,0,.3-.007,0,.1-.007.2-.007.305a7.543,7.543,0,0,0,7.548,7.546c.1,0,.2,0,.3-.007,0,.1-.007.2-.007.305a7.543,7.543,0,0,0,7.548,7.546c.1,0,.2,0,.305-.007A7.546,7.546,0,0,0,46.615,125.3l2.8-2.8,3.781,3.781a7.546,7.546,0,0,0,12.873-5.716c.126,0,.253.009.378.009a7.535,7.535,0,0,0,7.54-7.852c.1,0,.2.007.305.007a7.542,7.542,0,0,0,7.537-7.851c.1,0,.2.007.305.007a7.545,7.545,0,0,0,6.975-4.665,2,2,0,0,0,.54-.382l3.885-3.885A30.922,30.922,0,0,0,98.552,58.9Zm-80.8,41.074a3.542,3.542,0,0,1-2.5-6.047L18.7,90.477a3.542,3.542,0,0,1,5.01,5.01l-3.446,3.451A3.519,3.519,0,0,1,17.751,99.975Zm5.338,6.806a3.542,3.542,0,0,1,0-5.01l3.453-3.453h0a3.542,3.542,0,1,1,5.01,5.01l-3.458,3.457a3.547,3.547,0,0,1-5,0Zm7.84,7.843a3.542,3.542,0,0,1,0-5.01l3.453-3.453h0a3.542,3.542,0,0,1,5.01,5.01l-3.453,3.453a3.546,3.546,0,0,1-5.01,0Zm16.3,4.391-3.453,3.453a3.542,3.542,0,0,1-5.01-5.01L42.224,114h0a3.542,3.542,0,0,1,5.01,5.01Zm37.4-19.165a3.542,3.542,0,0,1-5.01,0l-8.338-8.338h0l-7.841-7.844A2.005,2.005,0,1,0,60.612,86.5L76.8,102.681a3.542,3.542,0,0,1-5.01,5.01L55.605,91.51a2.005,2.005,0,1,0-2.836,2.836l7.841,7.841h0l8.338,8.338a3.542,3.542,0,1,1-5.01,5.01l-8.333-8.345a2,2,0,0,0-.512-.37l-2.378-2.378a2.005,2.005,0,0,0-2.836,2.836l11.159,11.16a3.542,3.542,0,0,1-5.01,5.01l-4.245-4.24a7.551,7.551,0,0,0-7.054-10.242c-.1,0-.2,0-.305.007a7.541,7.541,0,0,0-7.537-7.859c-.1,0-.2,0-.305.007a7.541,7.541,0,0,0-7.537-7.839c-.1,0-.2,0-.305.007a7.544,7.544,0,0,0-12.877-5.639L12.413,91.1A7.546,7.546,0,0,0,11.3,92.512,26.848,26.848,0,0,1,48.418,53.806L36.108,66.116A8.609,8.609,0,1,0,48.281,78.293l5.455-5.455H60.8a14.029,14.029,0,0,0,1.73-.111L84.64,94.838a3.549,3.549,0,0,1,0,5.01Z" transform="translate(0.018 -43.243)" fill="#00285c"/>
    </g>
  </g>
</svg>
