<svg id="_5cacd53651b229b877b05d8f_first-aid-kit" data-name="5cacd53651b229b877b05d8f_first-aid-kit" xmlns="http://www.w3.org/2000/svg" width="108.493" height="101.712" viewBox="0 0 108.493 101.712">
  <g id="Group_314" data-name="Group 314" transform="translate(81.796 46.619)">
    <g id="Group_313" data-name="Group 313" transform="translate(0)">
      <path id="Path_1134" data-name="Path 1134" d="M388.119,236a2.119,2.119,0,1,0,2.119,2.119A2.119,2.119,0,0,0,388.119,236Z" transform="translate(-386 -236)" fill="#00285c"/>
    </g>
  </g>
  <g id="Group_316" data-name="Group 316" transform="translate(22.462 46.619)">
    <g id="Group_315" data-name="Group 315" transform="translate(0)">
      <path id="Path_1135" data-name="Path 1135" d="M108.119,236a2.119,2.119,0,1,0,2.119,2.119A2.119,2.119,0,0,0,108.119,236Z" transform="translate(-106 -236)" fill="#00285c"/>
    </g>
  </g>
  <g id="Group_318" data-name="Group 318" transform="translate(33.057 42.381)">
    <g id="Group_317" data-name="Group 317">
      <path id="Path_1136" data-name="Path 1136" d="M196.262,228.715h-10.6v-10.6a2.119,2.119,0,0,0-2.12-2.119H170.832a2.119,2.119,0,0,0-2.119,2.119v10.6h-10.6A2.119,2.119,0,0,0,156,230.833v12.713a2.119,2.119,0,0,0,2.119,2.119h10.6v10.6a2.119,2.119,0,0,0,2.119,2.119h12.713a2.119,2.119,0,0,0,2.119-2.119V245.666h10.6a2.119,2.119,0,0,0,2.119-2.119V230.833A2.119,2.119,0,0,0,196.262,228.715Zm-2.119,12.715h-10.6a2.119,2.119,0,0,0-2.119,2.119v10.6h-8.476v-10.6a2.119,2.119,0,0,0-2.119-2.119h-10.6v-8.476h10.6a2.119,2.119,0,0,0,2.119-2.119v-10.6h8.476v10.6a2.119,2.119,0,0,0,2.119,2.119h10.6Z" transform="translate(-156 -216)" fill="#00285c"/>
    </g>
  </g>
  <g id="Group_320" data-name="Group 320" transform="translate(0 0)">
    <g id="Group_319" data-name="Group 319">
      <path id="Path_1137" data-name="Path 1137" d="M97.9,41.429H81.8V28.715A12.729,12.729,0,0,0,69.082,16H39.414A12.729,12.729,0,0,0,26.7,28.715V41.429H10.6A10.607,10.607,0,0,0,0,52.024v55.093a10.607,10.607,0,0,0,10.6,10.6H97.9a10.607,10.607,0,0,0,10.6-10.6V52.024A10.607,10.607,0,0,0,97.9,41.429ZM30.936,28.715a8.485,8.485,0,0,1,8.476-8.476h29.67a8.485,8.485,0,0,1,8.476,8.476V41.429H73.322v-10.6a6.364,6.364,0,0,0-6.357-6.357H41.534a6.364,6.364,0,0,0-6.357,6.357v10.6H30.938Zm38.146,2.119v10.6H39.414v-10.6a2.121,2.121,0,0,1,2.119-2.119H66.962A2.121,2.121,0,0,1,69.082,30.833ZM13.989,113.472H10.6a6.364,6.364,0,0,1-6.357-6.353V52.026a6.364,6.364,0,0,1,6.357-6.36h3.391Zm76.292,0H86.034V73.214a2.119,2.119,0,0,0-4.239,0v40.262H26.7V73.214a2.119,2.119,0,1,0-4.239,0v40.262H18.229V45.666h4.239v10.6a2.119,2.119,0,0,0,4.239,0v-10.6H81.8v10.6a2.119,2.119,0,1,0,4.239,0v-10.6h4.239Zm13.976-6.353a6.364,6.364,0,0,1-6.36,6.357H94.51V45.666H97.9a6.364,6.364,0,0,1,6.357,6.357Z" transform="translate(0 -16)" fill="#00285c"/>
    </g>
  </g>
</svg>
