<svg xmlns="http://www.w3.org/2000/svg" width="14.396" height="14.396" viewBox="0 0 14.396 14.396">
  <path id="globe-asia-solid_1_" data-name="globe-asia-solid (1)" d="M7.2,8a7.2,7.2,0,1,0,7.2,7.2A7.2,7.2,0,0,0,7.2,8Zm-.329,6.973a.464.464,0,0,1-.4.226H6.462a.464.464,0,0,0-.328.136l-.164.164a.232.232,0,0,0,0,.328l.164.164a.464.464,0,0,1,.136.328v.272a.464.464,0,0,1-.464.464H5.628a.464.464,0,0,1-.415-.257l-.657-1.313a.232.232,0,0,0-.372-.06l-.565.565a.464.464,0,0,1-.328.136H1.475A5.794,5.794,0,0,1,8.987,9.678L7.531,10.8a.232.232,0,0,0,.025.4l.314.157a.464.464,0,0,1,.257.415v2.267a.232.232,0,0,1-.232.232H7.806a.232.232,0,0,1-.208-.128.129.129,0,0,0-.225-.009Zm4.973,3.2a.464.464,0,0,1-.136.328l-.278.278a.464.464,0,0,1-.328.136h-.44a.464.464,0,0,1-.328-.136L9.954,18.4a.777.777,0,0,0-.738-.2L8.6,18.35a.46.46,0,0,1-.113.014h-.3a.464.464,0,0,1-.328-.136l-.346-.346a.232.232,0,0,1-.068-.164v-.3a.232.232,0,0,1,.146-.216l1.142-.457a.778.778,0,0,0,.162-.089l.688-.49a.232.232,0,0,1,.135-.043h.351a.232.232,0,0,1,.214.143l.155.373a.116.116,0,0,0,.107.071h.11a.116.116,0,0,0,.111-.084l.122-.42A.116.116,0,0,1,11,16.128h.176a.116.116,0,0,1,.116.116v.375a.232.232,0,0,0,.068.164l.346.346a.464.464,0,0,1,.136.328v.714Z" transform="translate(0 -8)" fill="#fff" opacity="0.8"/>
</svg>
