<?xml version="1.0"?>
<svg xmlns="http://www.w3.org/2000/svg" xmlns:xlink="http://www.w3.org/1999/xlink" xmlns:svgjs="http://svgjs.com/svgjs" version="1.1" width="512" height="512" x="0" y="0" viewBox="0 0 512 512" style="enable-background:new 0 0 512 512" xml:space="preserve" class=""><g><path xmlns="http://www.w3.org/2000/svg" d="m241 271v45h30v-45c0-8.291 6.709-15 15-15h45v-30h-45c-8.291 0-15-6.709-15-15v-45h-30v45c0 8.291-6.709 15-15 15h-45v30h45c8.291 0 15 6.709 15 15z" fill="#ffffff" data-original="#000000" style="" class=""/><path xmlns="http://www.w3.org/2000/svg" d="m76 512h360c8.291 0 15-6.709 15-15v-452c0-8.291-6.709-15-15-15h-90v15c0 24.814-20.186 46-45 46h-90c-24.814 0-45-21.186-45-46v-15h-90c-8.291 0-15 6.709-15 15v452c0 8.291 6.709 15 15 15zm270-46h-120c-8.291 0-15-6.709-15-15s6.709-15 15-15h120c8.291 0 15 6.709 15 15s-6.709 15-15 15zm0-60h-120c-8.291 0-15-6.709-15-15s6.709-15 15-15h120c8.291 0 15 6.709 15 15s-6.709 15-15 15zm-195-195c0-8.291 6.709-15 15-15h45v-45c0-8.291 6.709-15 15-15h60c8.291 0 15 6.709 15 15v45h45c8.291 0 15 6.709 15 15v60c0 8.291-6.709 15-15 15h-45v45c0 8.291-6.709 15-15 15h-60c-8.291 0-15-6.709-15-15v-45h-45c-8.291 0-15-6.709-15-15zm15 164.998c8.284 0 15 6.716 15 15 0 8.286-6.716 15-15 15-8.286 0-15-6.714-15-15 0-8.284 6.714-15 15-15zm0 60c8.284 0 15 6.716 15 15 0 8.286-6.716 15-15 15-8.286 0-15-6.714-15-15 0-8.284 6.714-15 15-15z" fill="#ffffff" data-original="#000000" style="" class=""/><path xmlns="http://www.w3.org/2000/svg" d="m211 60h90c8.284 0 15-6.716 15-15v-30c0-8.284-6.716-15-15-15h-90c-8.284 0-15 6.716-15 15v30c0 8.284 6.716 15 15 15z" fill="#ffffff" data-original="#000000" style="" class=""/></g></svg>
