<svg xmlns="http://www.w3.org/2000/svg" width="20.319" height="20.319" viewBox="0 0 20.319 20.319">
  <g id="instagram" transform="translate(-618.6 -10129.599)">
    <path id="Union_3" data-name="Union 3" d="M6.053,20.319A6.061,6.061,0,0,1,0,14.266V6.053A6.06,6.06,0,0,1,6.053,0h8.213a6.061,6.061,0,0,1,6.053,6.053v8.213a6.061,6.061,0,0,1-6.053,6.053ZM2.044,6.053v8.213a4.009,4.009,0,0,0,4.01,4.009h8.213a4.008,4.008,0,0,0,4.009-4.009V6.053a4.009,4.009,0,0,0-4.009-4.01H6.053A4.01,4.01,0,0,0,2.044,6.053Zm2.859,4.1a5.256,5.256,0,1,1,5.255,5.256A5.262,5.262,0,0,1,4.9,10.158Zm2.045,0a3.211,3.211,0,1,0,3.21-3.21A3.21,3.21,0,0,0,6.948,10.158Zm7.218-5.215A1.259,1.259,0,1,1,15.425,6.2,1.259,1.259,0,0,1,14.166,4.944Z" transform="translate(618.6 10129.6)" fill="#fff"/>
  </g>
</svg>
