<svg xmlns="http://www.w3.org/2000/svg" width="402.629" height="176.767" viewBox="0 0 402.629 176.767">
  <g id="logo" transform="translate(0 0)">
    <g id="logo-2" data-name="logo" transform="translate(-0.407)">
      <g id="Group_528" data-name="Group 528">
        <g id="Group_530" data-name="Group 530" transform="translate(281.029)">
          <path id="Subtraction_17" data-name="Subtraction 17" d="M25.348,48.063a3.338,3.338,0,0,1-1.713-.473L2.554,38.6a4.306,4.306,0,0,1-2.4-2.274A2.1,2.1,0,0,1,.2,34.637L14.218,1.5A3.366,3.366,0,0,1,18.758.485L39.85,9.46a4.4,4.4,0,0,1,2.31,2.31,2.122,2.122,0,0,1,.02,1.655L28.134,46.571A3.325,3.325,0,0,1,25.348,48.063ZM13.938,17.482a1.138,1.138,0,0,0-1.06.716L11.2,22.1a1.235,1.235,0,0,0,.652,1.616L16.741,25.8,14.514,31.06a.868.868,0,0,0,.466,1.148L19.49,34.1a.842.842,0,0,0,.352.077.832.832,0,0,0,.785-.532l2.236-5.241,5,2.132a1.247,1.247,0,0,0,.43.076,1.332,1.332,0,0,0,1.191-.785l1.632-3.846a.1.1,0,0,0,.039-.1,1.188,1.188,0,0,0-.691-1.526l-4.982-2.1,2.238-5.251a.907.907,0,0,0-.494-1.163l-4.488-1.879a.911.911,0,0,0-.372-.081.893.893,0,0,0-.807.535l-2.223,5.247L14.447,17.6a.071.071,0,0,0-.032-.015.244.244,0,0,1-.065-.028A1.1,1.1,0,0,0,13.938,17.482Z" transform="translate(5.857 0) rotate(7)" fill="#fff"/>
          <path id="Path_159" data-name="Path 159" d="M375.319,185.289c-11.538,26.919,2.051,90.5-9.335,98.641-.428.355-1.22.683-.4.793,29.245-3.845,36.13-16.586,47.437-32.677,7.806-11.105,28.63-15.3,41.551-10.178-16.9-22.347-31.2-22.327-50.326-24.5-13.6-1.524-27.487-18.184-28.922-32.074" transform="translate(-332.562 -143.123)" fill="#fff"/>
          <path id="Path_160" data-name="Path 160" d="M424.262,198.826a13.345,13.345,0,1,1-5.747-8.477,13.35,13.35,0,0,1,5.747,8.477" transform="translate(-334.99 -148.856)" fill="#fff"/>
          <path id="Path_161" data-name="Path 161" d="M421.412,245.878a39.256,39.256,0,0,0-12.349,9.906c-3.342,4.124-5.817,8.424-8.7,12.3,13.893-2.691,31.388,1.7,40.848,10.541.506.424,1.094,1.288,1.019.313-5.714-16.624-12.661-26.44-20.817-33.061" transform="translate(-325.196 -137.48)" fill="#fff"/>
        </g>
        <path id="Path_162" data-name="Path 162" d="M-139.052,5.367a11.06,11.06,0,0,1-5.4-1.314A9.713,9.713,0,0,1-148.223.421a9.967,9.967,0,0,1-1.371-5.172,9.967,9.967,0,0,1,1.371-5.172,9.713,9.713,0,0,1,3.773-3.631,11.06,11.06,0,0,1,5.4-1.314,11,11,0,0,1,5.37,1.314,9.643,9.643,0,0,1,3.759,3.617,10.025,10.025,0,0,1,1.357,5.186A10.025,10.025,0,0,1-129.924.435a9.643,9.643,0,0,1-3.759,3.617A11,11,0,0,1-139.052,5.367Zm0-2.515a7.772,7.772,0,0,0,3.914-.989A7.257,7.257,0,0,0-132.4-.865a7.631,7.631,0,0,0,1-3.886,7.631,7.631,0,0,0-1-3.886,7.257,7.257,0,0,0-2.741-2.727,7.772,7.772,0,0,0-3.914-.989,7.929,7.929,0,0,0-3.942.989,7.2,7.2,0,0,0-2.77,2.727,7.631,7.631,0,0,0-1,3.886,7.631,7.631,0,0,0,1,3.886,7.2,7.2,0,0,0,2.77,2.727A7.929,7.929,0,0,0-139.052,2.851Zm23.117,2.515a13.539,13.539,0,0,1-4.31-.692,8.85,8.85,0,0,1-3.264-1.795l1.046-2.2a8.659,8.659,0,0,0,2.9,1.653,10.643,10.643,0,0,0,3.631.636,6.541,6.541,0,0,0,3.674-.834,2.57,2.57,0,0,0,1.215-2.218,2.186,2.186,0,0,0-.664-1.653,4.441,4.441,0,0,0-1.639-.975q-.975-.339-2.755-.763a28.4,28.4,0,0,1-3.6-1.074,5.957,5.957,0,0,1-2.346-1.653,4.415,4.415,0,0,1-.975-3.01,5.093,5.093,0,0,1,.834-2.854,5.727,5.727,0,0,1,2.529-2.035,10.26,10.26,0,0,1,4.211-.763,13.325,13.325,0,0,1,3.448.452,9.173,9.173,0,0,1,2.911,1.3l-.933,2.261a10.232,10.232,0,0,0-2.656-1.2,9.915,9.915,0,0,0-2.77-.41,6.1,6.1,0,0,0-3.6.876,2.683,2.683,0,0,0-1.2,2.261,2.163,2.163,0,0,0,.678,1.653,4.705,4.705,0,0,0,1.682.989,26.274,26.274,0,0,0,2.727.749,27.625,27.625,0,0,1,3.589,1.074,6.042,6.042,0,0,1,2.331,1.639,4.317,4.317,0,0,1,.975,2.967,5.051,5.051,0,0,1-.848,2.84A5.679,5.679,0,0,1-111.7,4.618,10.638,10.638,0,0,1-115.935,5.367Zm22.043-20.008A9.164,9.164,0,0,1-87.844-12.8a6.23,6.23,0,0,1,2.2,5.059,6.23,6.23,0,0,1-2.2,5.059A9.164,9.164,0,0,1-93.892-.851h-4.889V5.14h-2.826V-14.642Zm-.085,11.332a6.378,6.378,0,0,0,4.1-1.145,3.991,3.991,0,0,0,1.413-3.292,3.991,3.991,0,0,0-1.413-3.292,6.378,6.378,0,0,0-4.1-1.145h-4.8v8.874Zm29.391,5.991V5.14H-78.942V-14.642h13.961v2.459H-76.116v6.076H-66.2v2.4h-9.919V2.682Zm7.122-17.324h8.337A12.053,12.053,0,0,1-43.56-13.4a9.136,9.136,0,0,1,3.773,3.49,9.86,9.86,0,0,1,1.342,5.158A9.86,9.86,0,0,1-39.787.407,9.136,9.136,0,0,1-43.56,3.9,12.053,12.053,0,0,1-49.127,5.14h-8.337ZM-49.3,2.682a9.152,9.152,0,0,0,4.225-.933A6.742,6.742,0,0,0-42.26-.865a7.52,7.52,0,0,0,.989-3.886,7.52,7.52,0,0,0-.989-3.886,6.742,6.742,0,0,0-2.812-2.614,9.153,9.153,0,0,0-4.225-.933h-5.341V2.682ZM-19.256.195H-29.769L-31.945,5.14h-2.911L-25.9-14.642h2.8L-14.112,5.14H-17.08Zm-.989-2.261-4.267-9.693-4.267,9.693ZM-8.63-14.642H-5.8V2.682H4.907V5.14H-8.63ZM25.057,2.682V5.14H10.7V-14.642H24.661v2.459H13.527v6.076h9.919v2.4H13.527V2.682ZM54.928.195H44.415L42.239,5.14H39.329l8.959-19.782h2.8L60.072,5.14H57.1Zm-.989-2.261-4.267-9.693L45.4-2.066ZM75.7-14.642h8.337A12.053,12.053,0,0,1,89.6-13.4a9.136,9.136,0,0,1,3.773,3.49,9.86,9.86,0,0,1,1.342,5.158A9.86,9.86,0,0,1,93.377.407,9.136,9.136,0,0,1,89.6,3.9,12.053,12.053,0,0,1,84.037,5.14H75.7ZM83.867,2.682a9.153,9.153,0,0,0,4.225-.933A6.742,6.742,0,0,0,90.9-.865a7.52,7.52,0,0,0,.989-3.886A7.52,7.52,0,0,0,90.9-8.637a6.742,6.742,0,0,0-2.812-2.614,9.153,9.153,0,0,0-4.225-.933H78.526V2.682Zm26.65,2.685a11.06,11.06,0,0,1-5.4-1.314A9.713,9.713,0,0,1,101.346.421a9.967,9.967,0,0,1-1.371-5.172,9.967,9.967,0,0,1,1.371-5.172,9.713,9.713,0,0,1,3.773-3.631,11.06,11.06,0,0,1,5.4-1.314,11,11,0,0,1,5.37,1.314,9.643,9.643,0,0,1,3.759,3.617A10.025,10.025,0,0,1,121-4.751,10.025,10.025,0,0,1,119.645.435a9.643,9.643,0,0,1-3.759,3.617A11,11,0,0,1,110.517,5.367Zm0-2.515a7.772,7.772,0,0,0,3.914-.989,7.257,7.257,0,0,0,2.741-2.727,7.631,7.631,0,0,0,1-3.886,7.631,7.631,0,0,0-1-3.886,7.257,7.257,0,0,0-2.741-2.727,7.772,7.772,0,0,0-3.914-.989,7.929,7.929,0,0,0-3.942.989,7.2,7.2,0,0,0-2.77,2.727,7.631,7.631,0,0,0-1,3.886,7.631,7.631,0,0,0,1,3.886,7.2,7.2,0,0,0,2.77,2.727A7.929,7.929,0,0,0,110.517,2.851ZM146.21,5.14l-.028-14.413-7.15,12.011h-1.3l-7.15-11.926V5.14h-2.713V-14.642h2.317l8.252,13.9,8.139-13.9h2.317l.028,19.782ZM157.4-14.642h2.826V5.14H157.4Zm20.15,20.008A10.921,10.921,0,0,1,172.2,4.052,9.669,9.669,0,0,1,168.451.435a10.026,10.026,0,0,1-1.356-5.186,10.026,10.026,0,0,1,1.356-5.186,9.643,9.643,0,0,1,3.759-3.617,11,11,0,0,1,5.37-1.314,11.207,11.207,0,0,1,4.239.777,8.676,8.676,0,0,1,3.278,2.3l-1.837,1.78a7.37,7.37,0,0,0-5.567-2.346,8.065,8.065,0,0,0-3.985.989,7.173,7.173,0,0,0-2.784,2.727,7.631,7.631,0,0,0-1,3.886,7.631,7.631,0,0,0,1,3.886,7.173,7.173,0,0,0,2.784,2.727,8.065,8.065,0,0,0,3.985.989A7.385,7.385,0,0,0,183.26.478l1.837,1.78A8.791,8.791,0,0,1,181.8,4.575,11.137,11.137,0,0,1,177.551,5.367Zm14.13-20.008h2.826V5.14h-2.826Zm11.3,0h2.826V2.682h10.711V5.14H202.986Zm19.33,0h2.826V5.14h-2.826ZM242.55,5.367a11.06,11.06,0,0,1-5.4-1.314A9.713,9.713,0,0,1,233.38.421a9.967,9.967,0,0,1-1.371-5.172,9.967,9.967,0,0,1,1.371-5.172,9.713,9.713,0,0,1,3.773-3.631,11.06,11.06,0,0,1,5.4-1.314,11,11,0,0,1,5.37,1.314,9.643,9.643,0,0,1,3.759,3.617,10.025,10.025,0,0,1,1.357,5.186A10.025,10.025,0,0,1,251.679.435a9.643,9.643,0,0,1-3.759,3.617A11,11,0,0,1,242.55,5.367Zm0-2.515a7.772,7.772,0,0,0,3.914-.989,7.257,7.257,0,0,0,2.741-2.727,7.631,7.631,0,0,0,1-3.886,7.631,7.631,0,0,0-1-3.886,7.257,7.257,0,0,0-2.741-2.727,7.772,7.772,0,0,0-3.914-.989,7.929,7.929,0,0,0-3.942.989,7.2,7.2,0,0,0-2.77,2.727,7.631,7.631,0,0,0-1,3.886,7.631,7.631,0,0,0,1,3.886,7.2,7.2,0,0,0,2.77,2.727A7.929,7.929,0,0,0,242.55,2.851Z" transform="translate(150 171.4)" fill="#fff"/>
      </g>
    </g>
    <path id="Path_184" data-name="Path 184" d="M-94.421-41.583V.6h-11.668V-23.334L-113.927.6h-10.112l-7.838-23.934V.6h-11.787V-41.583h14.42l10.411,27.4,10.112-27.4Zm26.925-.838a21.853,21.853,0,0,1,10.92,2.782A20.3,20.3,0,0,1-48.8-31.89,22.121,22.121,0,0,1-45.956-20.7,21.94,21.94,0,0,1-48.828-9.512a20.515,20.515,0,0,1-7.808,7.749A21.737,21.737,0,0,1-67.5,1.019a21.9,21.9,0,0,1-10.89-2.782,20.454,20.454,0,0,1-7.838-7.749A21.94,21.94,0,0,1-89.1-20.7,21.94,21.94,0,0,1-86.224-31.89a20.454,20.454,0,0,1,7.838-7.749A21.9,21.9,0,0,1-67.5-42.421Zm0,10.89a8.951,8.951,0,0,0-7.06,2.9A11.526,11.526,0,0,0-77.129-20.7a11.458,11.458,0,0,0,2.573,7.838A8.907,8.907,0,0,0-67.5-9.931a8.836,8.836,0,0,0,7-2.932A11.458,11.458,0,0,0-57.922-20.7a11.614,11.614,0,0,0-2.543-7.928A8.859,8.859,0,0,0-67.5-31.531ZM-13.765-21.18a10.289,10.289,0,0,1,5.954,3.71,10.333,10.333,0,0,1,2.184,6.522,10.45,10.45,0,0,1-3.65,8.526Q-12.927.6-19.748.6H-40.69V-41.763h20.463q6.4,0,10.022,2.812t3.62,8.137A9.982,9.982,0,0,1-8.559-24.5,9.079,9.079,0,0,1-13.765-21.18ZM-28.9-24.83h5.924q4.428,0,4.428-3.71,0-3.829-4.488-3.829H-28.9Zm6.642,15.976q4.607,0,4.607-3.829,0-3.949-4.607-3.949H-28.9v7.778ZM11.126-41.763V.6H-.661V-41.763ZM56.541-20.7a22.115,22.115,0,0,1-2.693,10.98,19.288,19.288,0,0,1-7.659,7.569A23.691,23.691,0,0,1,34.522.6H17.648V-41.763H34.522a24.516,24.516,0,0,1,11.7,2.663,18.513,18.513,0,0,1,7.659,7.449A22.144,22.144,0,0,1,56.541-20.7Zm-23.1,10.77q5.206,0,8.2-2.812T44.634-20.7q0-5.086-2.992-7.928t-8.2-2.842H29.436v21.54ZM82.21-42.421a21.853,21.853,0,0,1,10.92,2.782,20.3,20.3,0,0,1,7.778,7.749A22.121,22.121,0,0,1,103.75-20.7a21.94,21.94,0,0,1-2.872,11.189,20.515,20.515,0,0,1-7.808,7.749A21.737,21.737,0,0,1,82.21,1.019,21.9,21.9,0,0,1,71.32-1.764a20.454,20.454,0,0,1-7.838-7.749A21.94,21.94,0,0,1,60.609-20.7,21.94,21.94,0,0,1,63.481-31.89a20.454,20.454,0,0,1,7.838-7.749A21.9,21.9,0,0,1,82.21-42.421Zm0,10.89a8.951,8.951,0,0,0-7.06,2.9A11.526,11.526,0,0,0,72.576-20.7a11.458,11.458,0,0,0,2.573,7.838,8.907,8.907,0,0,0,7.06,2.932,8.836,8.836,0,0,0,7-2.932A11.458,11.458,0,0,0,91.783-20.7a11.614,11.614,0,0,0-2.543-7.928A8.859,8.859,0,0,0,82.21-31.531Zm46.372-10.651a22.656,22.656,0,0,1,9.723,2,17.87,17.87,0,0,1,6.971,5.684,21.184,21.184,0,0,1,3.65,8.526H136.539a8.239,8.239,0,0,0-3.171-3.919,8.88,8.88,0,0,0-4.966-1.406,7.749,7.749,0,0,0-6.283,2.9,11.8,11.8,0,0,0-2.393,7.749,11.921,11.921,0,0,0,2.393,7.778A7.717,7.717,0,0,0,128.4-9.931a8.744,8.744,0,0,0,4.966-1.436,8.412,8.412,0,0,0,3.171-3.949h12.386A19.544,19.544,0,0,1,142.134-3.5Q136.778.9,128.581.9A21.5,21.5,0,0,1,117.6-1.823a18.423,18.423,0,0,1-7.24-7.629,23.962,23.962,0,0,1-2.543-11.189,23.962,23.962,0,0,1,2.543-11.189,18.423,18.423,0,0,1,7.24-7.629A21.5,21.5,0,0,1,128.581-42.182Z" transform="translate(146.593 134.974)" fill="#fff"/>
  </g>
</svg>
