<svg xmlns="http://www.w3.org/2000/svg" width="63.953" height="213.107" viewBox="0 0 63.953 213.107">
  <g id="members-area-tab" transform="translate(64.953 827.913) rotate(180)">
    <g id="Rectangle_193" data-name="Rectangle 193" transform="translate(1 827.913) rotate(-90)" opacity="0.51">
      <path id="Path_292" data-name="Path 292" d="M0,0H213.107V41.953a22,22,0,0,1-22,22H22a22,22,0,0,1-22-22Z" fill="#00285c"/>
      <path id="Path_293" data-name="Path 293" d="M1,.5H212.107a.5.5,0,0,1,.5.5V41.953a21.5,21.5,0,0,1-21.5,21.5H22A21.5,21.5,0,0,1,.5,41.953V1A.5.5,0,0,1,1,.5Z" fill="none"/>
    </g>
    <path id="Path_284" data-name="Path 284" d="M7.085,0H8.333L5.07-9.009H3.7L.429,0H1.677L2.4-2.015H6.357ZM6.019-2.977H2.743L4.381-7.553ZM15.912-6.4c0,1.014-.585,1.742-1.924,1.742H12.246V-8.086h1.742C15.34-8.086,15.912-7.423,15.912-6.4ZM11.063-9.061V0h1.183V-3.7h1.43L15.834,0h1.417L14.976-3.8a2.555,2.555,0,0,0,2.158-2.6c0-1.482-1.014-2.665-3.146-2.665Zm14.079-.013H20.267V0h4.875V-.975H21.45V-4.1h3.3v-.97h-3.3V-8.1h3.692ZM34.32,0h1.248L32.305-9.009H30.94L27.664,0h1.248l.728-2.015h3.952ZM33.254-2.977H29.978l1.638-4.576Zm11-1.781V-8.086H46c1.352,0,1.924.624,1.924,1.677,0,1.014-.572,1.651-1.924,1.651Zm4.875-1.651c0-1.482-1-2.652-3.133-2.652H43.069V0h1.183V-3.783h1.742c2.249,0,3.133-1.248,3.133-2.626Zm7.618.013c0,1.014-.585,1.742-1.924,1.742H53.079V-8.086h1.742c1.352,0,1.924.663,1.924,1.686ZM51.9-9.061V0h1.183V-3.7h1.43L56.667,0h1.417L55.809-3.8a2.555,2.555,0,0,0,2.158-2.6c0-1.482-1.014-2.665-3.146-2.665ZM69.758-4.537a4.462,4.462,0,0,0-1.277-3.3,4.462,4.462,0,0,0-3.273-1.333,4.47,4.47,0,0,0-3.27,1.335,4.47,4.47,0,0,0-1.28,3.293,4.47,4.47,0,0,0,1.28,3.293A4.47,4.47,0,0,0,65.208.091a4.462,4.462,0,0,0,3.273-1.333,4.462,4.462,0,0,0,1.277-3.3Zm-7.891,0a3.3,3.3,0,0,1,.867-2.545,3.3,3.3,0,0,1,2.474-1.055,3.3,3.3,0,0,1,2.474,1.055,3.3,3.3,0,0,1,.867,2.545A3.31,3.31,0,0,1,67.678-2a3.31,3.31,0,0,1-2.47,1.058A3.31,3.31,0,0,1,62.738-2a3.31,3.31,0,0,1-.871-2.542ZM72.618,0H73.8V-4.082H77v-.962H73.8V-8.1h3.94v-.962H72.618ZM85.345-9.074H80.47V0h4.875V-.975H81.653V-4.1h3.3v-.97h-3.3V-8.1h3.692Zm8.983,6.6c0-3.354-4.888-1.9-4.888-4.238,0-.975.767-1.482,1.742-1.456a1.641,1.641,0,0,1,1.755,1.313h1.3a2.71,2.71,0,0,0-3-2.327c-1.794,0-3,1.014-3,2.509,0,3.367,4.9,1.807,4.9,4.251,0,.858-.676,1.508-1.82,1.508a1.678,1.678,0,0,1-1.256-.356,1.678,1.678,0,0,1-.621-1.148H88.179C88.2-.923,89.492.091,91.312.091a2.715,2.715,0,0,0,2.062-.628,2.715,2.715,0,0,0,.954-1.933Zm8.931,0c0-3.354-4.888-1.9-4.888-4.238,0-.975.767-1.482,1.742-1.456a1.641,1.641,0,0,1,1.755,1.313h1.3a2.71,2.71,0,0,0-3-2.327c-1.794,0-3,1.014-3,2.509,0,3.367,4.9,1.807,4.9,4.251,0,.858-.676,1.508-1.82,1.508a1.678,1.678,0,0,1-1.254-.359,1.678,1.678,0,0,1-.618-1.149H97.11c.026,1.5,1.313,2.513,3.133,2.513A2.715,2.715,0,0,0,102.3-.537a2.715,2.715,0,0,0,.954-1.933ZM106.3,0h1.183V-9.061H106.3Zm13.156-4.537a4.462,4.462,0,0,0-1.277-3.3,4.462,4.462,0,0,0-3.273-1.333,4.47,4.47,0,0,0-3.27,1.335,4.47,4.47,0,0,0-1.28,3.293,4.47,4.47,0,0,0,1.28,3.293,4.47,4.47,0,0,0,3.27,1.335,4.462,4.462,0,0,0,3.274-1.333,4.462,4.462,0,0,0,1.277-3.3Zm-7.891,0a3.3,3.3,0,0,1,.867-2.545,3.3,3.3,0,0,1,2.474-1.055,3.3,3.3,0,0,1,2.474,1.055,3.3,3.3,0,0,1,.867,2.545A3.31,3.31,0,0,1,117.376-2a3.31,3.31,0,0,1-2.47,1.058A3.31,3.31,0,0,1,112.437-2a3.31,3.31,0,0,1-.871-2.542Zm16.692-4.537v7.2l-4.758-7.2h-1.183V0H123.5V-7.215L128.258,0h1.183V-9.074ZM132.756,0h1.183V-9.061h-1.183Zm10.387-2.47c0-3.354-4.888-1.9-4.888-4.238,0-.975.767-1.482,1.742-1.456a1.641,1.641,0,0,1,1.755,1.313h1.3a2.71,2.71,0,0,0-3-2.327c-1.794,0-3,1.014-3,2.509,0,3.367,4.9,1.807,4.9,4.251,0,.858-.676,1.508-1.82,1.508a1.678,1.678,0,0,1-1.254-.359,1.678,1.678,0,0,1-.618-1.149H137c.026,1.5,1.313,2.509,3.133,2.509a2.715,2.715,0,0,0,2.059-.63,2.715,2.715,0,0,0,.952-1.931Zm2.483-5.63h2.483V0h1.183V-8.1h2.47v-.962h-6.136ZM154.518,0H155.7V-9.061h-1.183Z" transform="translate(28.953 642.912) rotate(90)" fill="#fff"/>
  </g>
</svg>
