<svg xmlns="http://www.w3.org/2000/svg" width="640" height="480" viewBox="0 0 640 480">
  <path id="online" d="M80,480A80.087,80.087,0,0,1,0,400V352a16,16,0,0,1,16-16H64V64A64.072,64.072,0,0,1,128,0H512a64.072,64.072,0,0,1,64,64V336h48a16,16,0,0,1,16,16v48a80.087,80.087,0,0,1-80,80ZM32,400a48.051,48.051,0,0,0,48,48H560a48.051,48.051,0,0,0,48-48V368H413.25A48.047,48.047,0,0,1,368,400H272a48.057,48.057,0,0,1-45.25-32H32ZM96,64V336H248.87c4.06,0,7.02,3.13,7.92,7.09A32.021,32.021,0,0,0,288,368h64a32.021,32.021,0,0,0,31.21-24.91c.9-3.96,3.86-7.09,7.92-7.09H544V64a32,32,0,0,0-32-32H128A32,32,0,0,0,96,64ZM308.64,258.944a66.774,66.774,0,0,1-27.061-27.028A72.462,72.462,0,0,1,276.742,221H248V196h24.172q-.093-2.23-.093-4.513,0-2.267.1-4.488H248V161h29.563a75.858,75.858,0,0,1,4.316-9.187,71.232,71.232,0,0,1,27.141-27.706A76.058,76.058,0,0,1,347.768,114.1a97.349,97.349,0,0,1,34.226,6.172l-1.808,24.694q-11.441-6.777-27.553-6.775a52.459,52.459,0,0,0-26.2,6.614A46.189,46.189,0,0,0,309.508,161H348v26H301.815q-.074,1.586-.074,3.211,0,2.954.22,5.791H348v25H309.428a46.522,46.522,0,0,0,16.327,16.872q11.371,6.915,26.276,6.916a52.415,52.415,0,0,0,15.96-2.256,73.688,73.688,0,0,0,15.509-7.38l2.259,25.7a83.992,83.992,0,0,1-17.415,5.836,94.024,94.024,0,0,1-19.675,1.895Q326.2,268.58,308.64,258.944Z" fill="#00285c"/>
</svg>
