<svg xmlns="http://www.w3.org/2000/svg" width="147.835" height="197.152" viewBox="0 0 147.835 197.152">
  <g id="Group_531" data-name="Group 531" transform="translate(1437.918 736.526)">
    <path id="Untitled-1" d="M142.407,37.629l-32.3-32.3A18.48,18.48,0,0,0,97.055-.1H18.479A18.542,18.542,0,0,0,0,18.418V178.573a18.484,18.484,0,0,0,18.479,18.479H129.356a18.484,18.484,0,0,0,18.479-18.479V50.718a18.569,18.569,0,0,0-5.428-13.09Zm-8.7,8.739a6.057,6.057,0,0,1,1.617,2.849H98.557V12.451a6.057,6.057,0,0,1,2.849,1.617Zm-4.35,138.364H18.479a6.178,6.178,0,0,1-6.16-6.16V18.418a6.178,6.178,0,0,1,6.16-6.16H86.237V52.3a9.218,9.218,0,0,0,9.24,9.24h40.039V178.573A6.178,6.178,0,0,1,129.356,184.732ZM69.567,73.856h8.7a4.625,4.625,0,0,1,4.62,4.889l-2.579,46.2a4.608,4.608,0,0,1-4.62,4.35h-3.58a4.636,4.636,0,0,1-4.62-4.35l-2.579-46.2a4.679,4.679,0,0,1,4.658-4.889ZM84.7,147.774a10.78,10.78,0,1,1-10.78-10.78A10.762,10.762,0,0,1,84.7,147.774Z" transform="translate(-1437.918 -736.426)" fill="#00285c"/>
  </g>
</svg>
