<svg id="Livello_1" data-name="Livello 1" xmlns="http://www.w3.org/2000/svg" viewBox="0 0 150 109.1"><defs><style>.cls-1{fill:#00285c;}</style></defs><title>PayPal e carta di credito</title><path class="cls-1" d="M74.86,129.59H16.78C4.86,129.58,0,124.76,0,112.9q0-38,0-76c0-11.5,5-16.4,16.55-16.41q58.57,0,117.13,0c11.25,0,16.29,5,16.3,16.18q0,38.48,0,77c0,10.85-5.12,15.92-16.08,15.93Q104.39,129.63,74.86,129.59Zm0-6.75q29.55,0,59.09,0c7,0,9.21-2.22,9.21-9.27q0-38.5,0-77c0-7.07-2.17-9.29-9.21-9.29q-59.09,0-118.17,0c-6.72,0-9,2.3-9,9q0,38.51,0,77c0,7.39,2.11,9.52,9.45,9.52Q45.57,122.86,74.87,122.84Z" transform="translate(0 -20.49)"/><path class="cls-1" d="M53.2,98.6a34.64,34.64,0,0,1-3.57,0c-2.9-.35-4.27-1.78-3.68-4.92,2.91-15.33,5.67-30.69,8.63-46,.83-4.26,3.09-5.93,7.52-6,6.77-.09,13.55-.15,20.32,0,7.72.19,12.18,3.6,14.87,10.75.49,1.28,1.61,2.3,2.28,3.52,1.51,2.75,3.69,5.42,4.25,8.37A23,23,0,0,1,81,91.8c-1.59,0-3.18,0-5,0-1.12,4.49-2.39,8.62-3.12,12.85-.6,3.46-2.46,4.57-5.66,4.48s-6.45,0-9.67,0c-5-.1-5.84-1.23-5-6.29C52.86,101.58,53,100.34,53.2,98.6Zm8.12-50.1c-1.44,7.57-2.81,14.68-4.14,21.79s-2.58,14.1-3.91,21.32h6.78c.63-2.67,1.17-5.18,1.81-7.66,2.78-10.9,1.07-9.47,11.76-9.52S90.68,68,91,57.44c.14-5.42-2.58-8.72-7.92-8.89C76,48.33,68.86,48.5,61.32,48.5ZM69.58,81c-1,4.22-2,7.61-2.64,11.06-.71,3.91-1.71,7.3-6.83,6.65v3.49h6.33c.63-2.46,1.25-4.77,1.82-7.09,2.8-11.41.59-10,12.61-10.11,10.76,0,18-8.87,15.92-21.21C92.34,77.91,83,82.86,69.58,81Z" transform="translate(0 -20.49)"/></svg>