<svg xmlns="http://www.w3.org/2000/svg" width="28.731" height="28.731" viewBox="0 0 28.731 28.731">
  <path id="phone-solid" d="M1.033,1.37,6.869.023A1.355,1.355,0,0,1,8.412.8l2.694,6.285a1.344,1.344,0,0,1-.387,1.571l-3.4,2.783a20.794,20.794,0,0,0,9.943,9.943l2.783-3.4a1.346,1.346,0,0,1,1.571-.387L27.9,20.292a1.362,1.362,0,0,1,.785,1.548L27.34,27.677a1.346,1.346,0,0,1-1.313,1.043A26.034,26.034,0,0,1-.01,2.683,1.345,1.345,0,0,1,1.033,1.37Z" transform="translate(0.01 0.01)" fill="#00285c"/>
</svg>
