<svg xmlns="http://www.w3.org/2000/svg" width="24.003" height="24.003" viewBox="0 0 24.003 24.003">
  <path id="phone-alt-solid" d="M23.318,16.968l-5.251-2.25a1.125,1.125,0,0,0-1.313.323l-2.325,2.841A17.377,17.377,0,0,1,6.123,9.575L8.964,7.25a1.122,1.122,0,0,0,.323-1.313L7.037.686A1.133,1.133,0,0,0,5.748.035L.872,1.16A1.125,1.125,0,0,0,0,2.256,21.75,21.75,0,0,0,21.753,24.009a1.125,1.125,0,0,0,1.1-.872l1.125-4.876A1.139,1.139,0,0,0,23.318,16.968Z" transform="translate(0 -0.006)" fill="#fff"/>
</svg>
