<svg xmlns="http://www.w3.org/2000/svg" width="19.104" height="31.043" viewBox="0 0 19.104 31.043">
  <path id="Subtraction_20" data-name="Subtraction 20" d="M9.552,31.043h0C9.527,31,7.124,26.91,4.776,22.276c-1.386-2.737-2.491-5.139-3.283-7.14A17.356,17.356,0,0,1,0,9.552,9.552,9.552,0,0,1,16.306,2.8a9.489,9.489,0,0,1,2.8,6.754,17.356,17.356,0,0,1-1.492,5.584c-.792,2-1.9,4.4-3.283,7.14C11.98,26.91,9.576,31,9.552,31.042Zm0-26.665a4.776,4.776,0,1,0,4.776,4.776A4.781,4.781,0,0,0,9.552,4.378Z" fill="#00285c"/>
</svg>
