<?xml version="1.0"?>
<svg xmlns="http://www.w3.org/2000/svg" xmlns:xlink="http://www.w3.org/1999/xlink" xmlns:svgjs="http://svgjs.com/svgjs" version="1.1" width="512" height="512" x="0" y="0" viewBox="0 0 512 512" style="enable-background:new 0 0 512 512" xml:space="preserve" class=""><g><g xmlns="http://www.w3.org/2000/svg"><path d="m196 90h30c8.284 0 15-6.716 15-15s-6.716-15-15-15h-30c-8.284 0-15 6.716-15 15s6.716 15 15 15z" fill="#ffffff" data-original="#000000" style="" class=""/><path d="m226 422h-30c-8.284 0-15 6.716-15 15s6.716 15 15 15h30c8.284 0 15-6.716 15-15s-6.716-15-15-15z" fill="#ffffff" data-original="#000000" style="" class=""/><path d="m361 152.076v-107.076c0-24.813-20.187-45-45-45h-210c-24.813 0-45 20.187-45 45v422c0 24.813 20.187 45 45 45h210c24.813 0 45-20.187 45-45v-107.076c50.816-7.301 90-51.119 90-103.924s-39.184-96.623-90-103.924zm-45 329.924h-210c-8.271 0-15-6.729-15-15v-422c0-8.271 6.729-15 15-15h210c8.271 0 15 6.729 15 15v107.076c-50.816 7.301-90 51.119-90 103.924 0 16.107 3.555 31.568 10.566 45.953 5.344 10.965 3.145 24.123-5.47 32.739l-.701.7c-4.291 4.29-5.575 10.742-3.254 16.347 2.322 5.606 7.792 9.261 13.859 9.261h75v106c0 8.271-6.729 15-15 15zm30-151h-63.919c4.02-13.704 3.002-28.751-3.547-42.19-4.999-10.257-7.534-21.296-7.534-32.81 0-41.355 33.645-75 75-75s75 33.645 75 75-33.645 75-75 75z" fill="#ffffff" data-original="#000000" style="" class=""/><path d="m376 241h-15v-15c0-8.284-6.716-15-15-15s-15 6.716-15 15v15h-15c-8.284 0-15 6.716-15 15s6.716 15 15 15h15v15c0 8.284 6.716 15 15 15s15-6.716 15-15v-15h15c8.284 0 15-6.716 15-15s-6.716-15-15-15z" fill="#ffffff" data-original="#000000" style="" class=""/></g></g></svg>
