<svg xmlns="http://www.w3.org/2000/svg" width="16.964" height="13.778" viewBox="0 0 16.964 13.778">
  <path id="twitter-brands" d="M15.221,51.516c.011.151.011.3.011.452A9.824,9.824,0,0,1,5.339,61.86,9.825,9.825,0,0,1,0,60.3a7.192,7.192,0,0,0,.84.043,6.963,6.963,0,0,0,4.316-1.485,3.483,3.483,0,0,1-3.251-2.411,4.384,4.384,0,0,0,.657.054,3.677,3.677,0,0,0,.915-.118A3.477,3.477,0,0,1,.689,52.969v-.043a3.5,3.5,0,0,0,1.572.441,3.482,3.482,0,0,1-1.076-4.65,9.883,9.883,0,0,0,7.169,3.638,3.925,3.925,0,0,1-.086-.8,3.48,3.48,0,0,1,6.017-2.379,6.845,6.845,0,0,0,2.207-.84,3.467,3.467,0,0,1-1.529,1.916,6.97,6.97,0,0,0,2-.538A7.474,7.474,0,0,1,15.221,51.516Z" transform="translate(0 -48.082)" fill="#fff"/>
</svg>
