<svg xmlns="http://www.w3.org/2000/svg" width="41.272" height="47.835" viewBox="0 0 41.272 47.835">
  <g id="upload" transform="translate(59.144 0) rotate(90)">
    <g id="Group_724" data-name="Group 724" transform="translate(47.835 31.05) rotate(180)">
      <g id="Group_723" data-name="Group 723">
        <path id="Path_201" data-name="Path 201" d="M46.618,339.95a1.218,1.218,0,0,0-1.218,1.218v4.653a4.876,4.876,0,0,1-4.871,4.871H7.306a4.876,4.876,0,0,1-4.871-4.871v-4.653a1.218,1.218,0,0,0-2.435,0v4.653a7.315,7.315,0,0,0,7.306,7.306H40.529a7.315,7.315,0,0,0,7.306-7.306v-4.653A1.218,1.218,0,0,0,46.618,339.95Z" transform="translate(0 -339.95)" fill="#00285c"/>
      </g>
    </g>
    <g id="Group_728" data-name="Group 728" transform="translate(11.283 31.009)">
      <g id="Group_727" data-name="Group 727" transform="translate(0 0)">
        <path id="Path_203" data-name="Path 203" d="M145.629,40.9l-10.2-9.112a3.042,3.042,0,0,0-4.056,0l-10.2,9.112a1.218,1.218,0,1,0,1.623,1.816l9.388-8.387v23.6a1.218,1.218,0,0,0,2.436,0v-23.6l9.388,8.387a1.218,1.218,0,1,0,1.622-1.816Z" transform="translate(-120.766 -31.009)" fill="#00285c"/>
      </g>
    </g>
  </g>
</svg>
