<svg xmlns="http://www.w3.org/2000/svg" width="33.03" height="33.03" viewBox="0 0 33.03 33.03">
  <path id="whatsapp-brands" d="M28.083,36.8A16.373,16.373,0,0,0,2.322,56.552L0,65.03l8.678-2.278A16.318,16.318,0,0,0,16.5,64.743h.007A16.264,16.264,0,0,0,28.083,36.8ZM16.508,61.985a13.58,13.58,0,0,1-6.93-1.895L9.083,59.8,3.937,61.145l1.371-5.021-.324-.516a13.631,13.631,0,1,1,25.281-7.233A13.756,13.756,0,0,1,16.508,61.985ZM23.969,51.8c-.406-.206-2.418-1.194-2.794-1.327s-.649-.206-.922.206S19.2,52,18.956,52.283s-.479.31-.885.1c-2.4-1.2-3.981-2.145-5.566-4.866-.42-.723.42-.671,1.2-2.234a.758.758,0,0,0-.037-.715c-.1-.206-.922-2.219-1.261-3.038-.332-.8-.671-.686-.922-.7s-.509-.015-.782-.015a1.515,1.515,0,0,0-1.091.509,4.6,4.6,0,0,0-1.43,3.414A8.012,8.012,0,0,0,9.85,48.972c.206.273,2.883,4.4,6.989,6.178,2.6,1.121,3.613,1.217,4.91,1.025a4.189,4.189,0,0,0,2.757-1.946,3.421,3.421,0,0,0,.236-1.946C24.647,52.1,24.375,52,23.969,51.8Z" transform="translate(0 -32)" fill="#00285c"/>
</svg>
